<svg width="2132" height="1720" viewBox="0 0 2132 1720" fill="none" xmlns="http://www.w3.org/2000/svg">
<g filter="url(#filter0_f_878_1456)">
<path d="M513.104 1117.78C476.033 1202.57 528.55 1221.22 559.442 1219.94H1523.32C1539.89 1219.94 1553.32 1206.51 1553.32 1189.94V1188.9C1553.32 1184.12 1551.24 1179.44 1551.48 1174.67C1552.21 1160.11 1587.98 1158.13 1618.84 1117.78C1653.99 1071.8 1618.84 1023.27 1510.18 912.171C1401.52 801.068 1535.75 899.401 1583.68 821.501C1631.62 743.601 1556.52 795.959 1475.03 765.311C1393.53 734.662 1470.23 724.445 1288.07 598.017C1105.92 471.589 1177.82 624.834 1069.17 548.211C960.51 471.588 979.684 504.791 855.05 525.224C730.415 545.657 808.711 576.306 700.055 654.206C591.4 732.106 700.055 696.349 629.749 795.959C559.442 895.569 700.055 914.724 700.055 953.036C700.055 991.347 559.442 1011.78 513.104 1117.78Z" fill="url(#paint0_linear_878_1456)" fill-opacity="0.1"/>
</g>
<defs>
<filter id="filter0_f_878_1456" x="0.353516" y="0.222656" width="2131.62" height="1719.78" filterUnits="userSpaceOnUse" color-interpolation-filters="sRGB">
<feFlood flood-opacity="0" result="BackgroundImageFix"/>
<feBlend mode="normal" in="SourceGraphic" in2="BackgroundImageFix" result="shape"/>
<feGaussianBlur stdDeviation="250" result="effect1_foregroundBlur_878_1456"/>
</filter>
<linearGradient id="paint0_linear_878_1456" x1="1066.16" y1="500.223" x2="1066.16" y2="1220" gradientUnits="userSpaceOnUse">
<stop stop-color="#8EA2B4"/>
<stop offset="0.694444" stop-color="#A0A7AD"/>
<stop offset="1" stop-color="#E0EAF2"/>
</linearGradient>
</defs>
</svg>
