<svg width="50" height="31" viewBox="0 0 50 31" fill="none" xmlns="http://www.w3.org/2000/svg">
<path d="M48.6304 13.8823C47.8145 12.1261 46.6171 10.7881 45.0489 9.86816C43.4807 8.93631 41.3403 8.48234 38.6278 8.48234C35.29 8.48234 32.6728 9.50976 30.7867 11.5765C28.89 13.6314 27.9364 16.3313 27.9364 19.6645C27.9364 22.018 28.4132 24.0489 29.3563 25.7932C30.2993 27.5254 31.4966 28.7918 32.9271 29.5922C34.3682 30.3807 36.339 30.7869 38.8503 30.7869C41.7324 30.7869 43.9469 30.321 45.494 29.3891C46.9244 28.529 48.1536 27.1551 49.192 25.2675C49.3085 25.0405 49.192 24.7538 48.9483 24.7299L42.8873 24.0848C42.5483 24.0489 42.1986 24.1803 41.9655 24.4671C41.6476 24.8852 41.3403 25.1839 41.0436 25.375C40.3973 25.7812 39.7191 25.9843 39.0092 25.9843C37.8754 25.9843 36.9642 25.5184 36.2648 24.5865C35.7668 23.9534 35.449 22.9737 35.3218 21.6596H49.7641C49.7641 21.6596 49.8383 21.5282 49.8595 21.4565V20.7397C49.8595 17.9203 49.4463 15.6384 48.6304 13.8823ZM35.3324 17.7411C35.4595 16.4628 35.735 15.507 36.1695 14.8619C36.8582 13.8345 37.7801 13.3208 38.935 13.3208C39.9311 13.3208 40.7364 13.6672 41.3509 14.3482C41.9655 15.0291 42.3363 16.1641 42.4847 17.7411H35.3324ZM23.7828 17.2512C22.8927 16.0088 21.5152 15.1367 19.6397 14.623C20.8689 14.1451 21.8119 13.488 22.4477 12.6517C23.4119 11.4093 23.8993 9.91594 23.8993 8.17172C23.8993 6.10493 23.2212 4.36071 21.8755 2.951C20.5192 1.54128 18.5907 0.836426 16.0689 0.836426H2.72851C1.75368 0.836426 0.958984 1.73243 0.958984 2.83153V28.2661C0.958984 29.3891 1.76428 30.2971 2.7603 30.2971H14.8927C15.4861 30.2971 16.694 30.1657 18.5166 29.9028C19.8728 29.6997 20.9007 29.3772 21.5788 28.9351C22.6702 28.2183 23.5285 27.2626 24.1642 26.044C24.7894 24.8255 25.1073 23.4516 25.1073 21.9224C25.1073 20.0468 24.6622 18.4818 23.7828 17.2512ZM9.09671 6.80979H12.6676C13.8861 6.80979 14.7444 7.04873 15.2424 7.53854C15.7298 8.01641 15.9841 8.68543 15.9841 9.5456C15.9841 10.4655 15.7298 11.1704 15.2424 11.6602C14.7444 12.15 13.8755 12.4009 12.6146 12.4009H9.09671V6.80979ZM16.1642 23.141C15.5921 23.6905 14.6066 23.9653 13.2186 23.9653H9.09671V18.0039H13.1974C14.6172 18.0039 15.6027 18.2667 16.1642 18.7924C16.7364 19.33 17.0119 20.0229 17.0119 20.895C17.0119 21.8388 16.7258 22.5795 16.1642 23.141Z" fill="#626366" fill-opacity="0.7"/>
<path d="M46.9136 0.525879H30.5958C30.3266 0.525879 30.1084 0.77192 30.1084 1.07543V5.0298C30.1084 5.33331 30.3266 5.57935 30.5958 5.57935H46.9136C47.1828 5.57935 47.4011 5.33331 47.4011 5.0298V1.07543C47.4011 0.77192 47.1828 0.525879 46.9136 0.525879Z" fill="#626366" fill-opacity="0.7"/>
</svg>
