<svg width="28" height="25" viewBox="0 0 28 25" fill="none" xmlns="http://www.w3.org/2000/svg">
<path d="M19.7334 19.5483C19.5748 19.1835 19.1395 19.0362 18.7953 19.2203L12.3874 22.6078C12.2389 22.6848 12.0634 22.5776 12.0668 22.4103L12.1242 19.8027C12.1309 19.478 11.861 19.2103 11.5337 19.2203L11.4291 19.2236H11.4257C11.4156 19.2236 11.3784 19.2236 11.3211 19.2236C10.7744 19.227 8.21664 19.1433 5.87818 17.9851C4.70727 17.4061 3.59372 16.5726 2.76362 15.3542C1.93352 14.1391 1.37338 12.529 1.34976 10.3232C1.35313 10.2529 1.37675 9.69051 1.55222 8.88381C1.82554 7.63192 2.46668 5.81768 3.91766 4.34486C4.64316 3.60511 5.57112 2.94569 6.78252 2.46368C7.9838 1.98501 9.46853 1.68041 11.3177 1.67706C11.618 1.67706 11.9116 1.50635 12.0027 1.22182C12.1478 0.759896 11.8036 0.338135 11.3616 0.338135C8.63506 0.338135 6.52269 0.947345 4.91648 1.88459C3.71183 2.58753 2.79399 3.47456 2.10899 4.39842C1.0798 5.7842 0.556774 7.25033 0.290197 8.37167C0.0168719 9.49302 0 10.2729 0 10.3098V10.3198V10.3298C0.0202463 12.76 0.654631 14.6613 1.64333 16.1073C2.38232 17.1918 3.3069 18.0153 4.28547 18.6345C5.74996 19.5617 7.3258 20.0404 8.62494 20.2914C9.49553 20.4588 10.2379 20.5257 10.7474 20.5525C10.7542 20.5525 10.7575 20.5592 10.7575 20.5626L10.6799 24.2078C10.6732 24.5793 11.0714 24.8237 11.4021 24.6496L19.3892 20.4253C19.7031 20.2546 19.8751 19.873 19.7334 19.5483Z" fill="#CDCDCD"/>
<path d="M20.1048 11.3641C19.683 11.3641 19.3151 11.18 18.998 10.8152C18.6808 10.4503 18.5255 9.79757 18.5255 8.85698C18.5255 8.16743 18.6403 7.53144 18.8664 6.94566C19.0924 6.36323 19.4096 5.9013 19.8146 5.55318C20.2195 5.20841 20.6885 5.03435 21.225 5.03435C21.468 5.03435 21.6705 5.05109 21.8324 5.08121C21.9944 5.11469 22.1091 5.14816 22.1733 5.18833L21.7953 9.23857C21.7312 9.85782 21.5557 10.3666 21.2655 10.7616C20.9753 11.1633 20.5907 11.3641 20.1048 11.3641ZM20.2735 16.375C20.5907 16.375 20.8404 16.3215 21.026 16.211C21.2116 16.1039 21.306 15.9332 21.306 15.6989C21.306 15.4746 21.2284 15.3039 21.0766 15.1934C20.9247 15.083 20.675 15.0127 20.3342 14.9892C18.6099 14.9256 17.2939 14.3934 16.3862 13.3993C15.4785 12.4018 15.0263 10.9658 15.0263 9.08459C15.0263 7.55153 15.2929 6.20591 15.8227 5.05444C16.3524 3.90296 17.1218 3.00923 18.1307 2.37994C19.1397 1.75064 20.3308 1.43265 21.7076 1.43265C23.3442 1.43265 24.5556 1.90127 25.3452 2.84186C26.1348 3.78246 26.5296 5.11469 26.5296 6.8419C26.5296 7.70885 26.4385 8.51555 26.2563 9.25865C26.074 10.0018 25.7973 10.611 25.4295 11.0829C25.0617 11.5583 24.6096 11.7926 24.0764 11.7926C23.7052 11.7926 23.442 11.6553 23.2935 11.3775C23.1451 11.0997 23.0675 10.7047 23.0675 10.1892C23.0675 9.71389 23.1619 8.54568 23.3475 6.68123C23.4454 5.68373 23.4926 5.06113 23.4926 4.81343C23.4926 4.56573 23.4386 4.37158 23.334 4.23434C23.2294 4.0971 23.0506 3.97995 22.8009 3.88622C22.315 3.73225 21.8459 3.65861 21.3904 3.65861C20.54 3.65861 19.7909 3.89627 19.1431 4.37493C18.4952 4.8536 17.9958 5.50297 17.6482 6.31972C17.3006 7.13981 17.1252 8.04693 17.1252 9.04443C17.1252 9.88125 17.25 10.5741 17.4963 11.1298C17.7427 11.6855 18.07 12.0905 18.4817 12.3482C18.89 12.606 19.3388 12.7332 19.8247 12.7332C20.2364 12.7332 20.6075 12.6528 20.9315 12.4922C21.2554 12.3315 21.5152 12.1239 21.7076 11.8662C21.9033 11.6085 22.0282 11.3306 22.0855 11.0361C22.0855 11.6386 22.2407 12.1173 22.5478 12.4687C22.8549 12.8235 23.3374 12.9976 23.992 12.9976C24.8356 12.9976 25.5578 12.7097 26.1618 12.1373C26.7658 11.5649 27.2213 10.8018 27.5352 9.85448C27.8456 8.90719 28.0042 7.87956 28.0042 6.76826C28.0042 5.22515 27.7444 3.94982 27.2213 2.93559C26.6983 1.9247 25.9762 1.1816 25.0516 0.706282C24.1236 0.237659 23.0641 0 21.8662 0C20.1486 0 18.6605 0.374898 17.3951 1.12804C16.1331 1.87784 15.1613 2.94228 14.4864 4.31468C13.8115 5.68708 13.4707 7.28709 13.4707 9.11137C13.4707 10.8854 13.7879 12.3147 14.4257 13.3959C15.0634 14.4771 15.8868 15.2436 16.8991 15.6989C17.9114 16.1541 19.0351 16.375 20.2735 16.375Z" fill="#CDCDCD"/>
</svg>
