<svg width="25" height="21" viewBox="0 0 25 21" fill="none" xmlns="http://www.w3.org/2000/svg">
<g clip-path="url(#clip0_895_231)">
<path d="M24.7236 10.3962C24.4994 9.53384 24.1187 8.81521 23.6389 8.25627C22.9193 7.40989 22.0015 6.92015 21.1149 6.64867C20.2284 6.37186 19.3575 6.30266 18.664 6.30266C18.4658 6.30266 18.2833 6.30798 18.1164 6.31863C17.9965 6.32395 17.8922 6.24411 17.8609 6.127C17.402 4.48745 16.6249 3.2365 15.6967 2.33688C14.6016 1.26692 13.3239 0.676046 12.1715 0.356654C11.3267 0.11711 10.461 0 9.59533 0C8.19775 0 6.79495 0.308745 5.51731 0.931559C3.37922 1.96958 1.97121 3.38555 1.12641 4.9346C0.281602 6.48365 0 8.13384 0 9.65095C0.00521485 12.9886 1.34022 15.7194 1.36108 15.7779C1.55403 16.1719 2.02336 16.3369 2.40926 16.1399C2.79516 15.943 2.95682 15.4692 2.76387 15.07C2.74823 15.0487 1.55924 12.5042 1.56446 9.65095C1.56446 8.33612 1.80955 6.96806 2.4927 5.71711C3.18106 4.46616 4.30747 3.29506 6.19003 2.37414C7.24864 1.85779 8.42199 1.59696 9.59533 1.59696C10.3202 1.59696 11.0503 1.6981 11.7543 1.89506C12.7295 2.16654 13.7516 2.65095 14.612 3.48669C15.4725 4.32776 16.1921 5.5308 16.5415 7.35133C16.6249 7.78251 17.0265 8.06464 17.4489 7.98479C17.4802 7.97947 17.9756 7.8943 18.6587 7.8943C19.441 7.8943 20.4683 8.01141 21.3183 8.43194C21.7459 8.63954 22.1318 8.92167 22.4552 9.29962C22.7785 9.67757 23.0392 10.1567 23.2061 10.8008C23.3678 11.4236 23.4303 11.9665 23.4303 12.4456C23.4303 13.1376 23.2947 13.6966 23.1018 14.1544C22.8098 14.8411 22.3717 15.3255 21.9962 15.6342C21.8137 15.7886 21.6469 15.9004 21.5321 15.9643C21.4748 15.9962 21.433 16.0228 21.4018 16.0388L21.3757 16.0548H21.3705C20.9793 16.2357 20.802 16.7042 20.9741 17.1034C21.1514 17.508 21.6103 17.689 22.0067 17.5133C22.0693 17.4867 22.7837 17.1567 23.519 16.3635C23.884 15.9643 24.2543 15.4479 24.5307 14.7932C24.8071 14.1437 24.9896 13.3559 24.9896 12.4509C25 11.8228 24.9166 11.1361 24.7236 10.3962Z" fill="url(#paint0_linear_895_231)"/>
<path d="M16.4892 14.793L13.7984 17.5397C13.6367 17.7047 13.3655 17.5876 13.3655 17.3587V9.51235C13.3655 9.07052 13.0161 8.71387 12.5833 8.71387C12.1505 8.71387 11.8011 9.07052 11.8011 9.51235V17.4918C11.8011 17.7207 11.5299 17.8378 11.3682 17.6728L8.21326 14.4523C7.90558 14.1382 7.41017 14.1382 7.10771 14.4523C6.80003 14.7663 6.80003 15.272 7.10771 15.5808L12.3382 20.92C12.4373 21.0211 12.5989 21.0211 12.698 20.92L17.6 15.9161C17.9077 15.6021 17.9077 15.0964 17.6 14.7876C17.2923 14.4789 16.7969 14.4789 16.4892 14.793Z" fill="url(#paint1_linear_895_231)"/>
</g>
<defs>
<linearGradient id="paint0_linear_895_231" x1="12.4952" y1="0" x2="12.4952" y2="17.5803" gradientUnits="userSpaceOnUse">
<stop stop-color="#7863E6"/>
<stop offset="0.71" stop-color="#E29EB2"/>
</linearGradient>
<linearGradient id="paint1_linear_895_231" x1="12.3539" y1="8.71387" x2="12.3539" y2="20.9958" gradientUnits="userSpaceOnUse">
<stop stop-color="#7863E6"/>
<stop offset="0.71" stop-color="#E29EB2"/>
</linearGradient>
<clipPath id="clip0_895_231">
<rect width="25" height="21" fill="white"/>
</clipPath>
</defs>
</svg>
