<svg width="43" height="42" viewBox="0 0 43 42" fill="none" xmlns="http://www.w3.org/2000/svg">
<path d="M35.9391 6.07877C32.1869 2.32424 26.9902 0 21.2618 0C15.5335 0 10.3367 2.32424 6.58457 6.07877C2.82765 9.83331 0.503418 15.0301 0.503418 20.7584C0.503418 26.4868 2.82765 31.6835 6.58457 35.4357C10.3367 39.1902 15.5335 41.5168 21.2618 41.5144C26.9902 41.5144 32.1869 39.1902 35.9391 35.4357C39.6936 31.6835 42.0202 26.4868 42.0202 20.7584C42.0202 15.0301 39.696 9.83331 35.9391 6.07877ZM39.6364 20.7584C39.6364 20.8013 39.634 20.8466 39.634 20.8895C37.429 20.4914 35.3431 20.3102 33.3788 20.3102C31.1452 20.3102 29.0665 20.5439 27.1404 20.9515C26.4324 19.1541 25.6362 17.4878 24.7923 15.9502C28.2107 14.5438 30.6422 12.8894 32.3085 11.4186C33.6196 10.2624 34.4611 9.22543 34.9569 8.51505C37.8676 11.769 39.6364 16.0527 39.6364 20.7608V20.7584ZM33.2239 6.81776C33.0451 7.09905 32.7304 7.55436 32.2394 8.11933C30.9783 9.5687 28.5635 11.7451 24.2964 13.5735C24.0628 13.6737 23.8244 13.7714 23.5789 13.8691C22.0699 11.4352 20.4823 9.38753 19.0425 7.74507C17.2832 5.74027 15.7433 4.33142 14.8183 3.54714C16.8231 2.79623 18.9924 2.38383 21.2618 2.38383C25.8364 2.38383 30.0081 4.0549 33.2239 6.81776ZM8.26994 7.76652C9.55006 6.48879 11.0161 5.39938 12.6228 4.5412L12.4869 4.72714C12.5465 4.77005 16.3631 7.63065 20.139 12.9895C20.5228 13.533 20.9043 14.1027 21.2809 14.6963C17.2784 15.9741 12.034 16.8871 5.21387 16.8871C4.59169 16.8871 3.95282 16.8775 3.30442 16.8608C4.06248 13.3542 5.81936 10.2195 8.26756 7.76891L8.26994 7.76652ZM2.88725 20.7584C2.88725 20.2435 2.91347 19.7357 2.95638 19.2304C3.72397 19.2518 4.48203 19.2661 5.21625 19.2661C11.2831 19.2661 16.2033 18.5653 20.1796 17.4997C21.0068 17.278 21.7887 17.0396 22.5372 16.7893C23.3548 18.253 24.1296 19.8406 24.8161 21.5522C23.7625 21.8717 22.7613 22.2411 21.8149 22.6536C16.9519 24.7656 13.4738 27.9194 11.2068 30.5417C10.0006 31.9386 9.13766 33.1829 8.58699 34.053C8.4821 33.9529 8.37483 33.8552 8.27233 33.7527C4.9445 30.4248 2.89202 25.8384 2.88963 20.7608L2.88725 20.7584ZM10.4297 35.5978C11.1806 34.3701 12.8636 31.9147 15.5716 29.4856C17.4763 27.7764 19.884 26.0791 22.8304 24.8085C23.7148 24.4271 24.6516 24.0862 25.6362 23.793C26.8614 27.4617 27.6529 31.6239 27.6553 36.2676C27.6553 36.7968 27.6457 37.3332 27.6243 37.8743L27.9151 37.8862C25.8531 38.6872 23.6123 39.133 21.2642 39.133C17.2093 39.133 13.4691 37.8195 10.4321 35.5978H10.4297ZM34.2561 33.7527C33.0117 34.997 31.591 36.0626 30.0343 36.9112C30.0367 36.6967 30.0415 36.4822 30.0415 36.27C30.0415 31.4284 29.2238 27.066 27.9604 23.2209C29.6338 22.8872 31.4384 22.6965 33.3812 22.6965C35.274 22.6965 37.3002 22.8776 39.4648 23.2829C38.9069 27.3497 37.0261 30.9874 34.2585 33.7551L34.2561 33.7527Z" fill="#626366" fill-opacity="0.7"/>
<path d="M40.5776 22.0187L39.4664 21.8181C37.3146 21.4296 35.2849 21.2538 33.3788 21.2538C31.2115 21.2538 29.1983 21.4804 27.3357 21.8746L26.5549 22.0399L26.2624 21.2973C25.57 19.5394 24.7911 17.9091 23.9651 16.4042L23.4574 15.4791L24.4333 15.0776C27.7551 13.7109 30.0968 12.1122 31.6841 10.7112L31.6844 10.7108C32.9355 9.60763 33.7275 8.62786 34.1832 7.975L34.8655 6.99752L35.6602 7.88597C38.7187 11.3052 40.5794 15.8097 40.58 20.7584L40.5776 22.0187ZM40.5776 22.0187V20.8895M40.5776 22.0187V20.8895M40.5776 20.8895C40.5776 20.883 40.5778 20.8739 40.5784 20.8495L40.5785 20.8461C40.5791 20.8264 40.5799 20.7944 40.58 20.7608L40.5776 20.8895ZM34.4584 6.63444L34.0202 7.3239C33.8191 7.64034 33.4767 8.13407 32.9515 8.73833L32.9512 8.73868C31.6013 10.2902 29.0718 12.5539 24.6681 14.4408M34.4584 6.63444L23.5789 13.8691C22.0699 11.4352 20.4823 9.38753 19.0425 7.74507M34.4584 6.63444L33.8388 6.10206C30.4589 3.19822 26.0711 1.44027 21.2618 1.44027C18.8772 1.44027 16.5959 1.87377 14.4874 2.66353L12.9822 3.2273L14.2081 4.26681C15.103 5.02561 16.6087 6.40217 18.3329 8.36707M34.4584 6.63444L19.0425 7.74507M24.6681 14.4408L24.2964 13.5735L24.6681 14.4408C24.6681 14.4408 24.6681 14.4408 24.6681 14.4408ZM24.6681 14.4408C24.4253 14.5449 24.1791 14.6458 23.9279 14.7458L23.1935 15.0381L22.777 14.3663C21.299 11.9825 19.7436 9.97619 18.3329 8.36707M18.3329 8.36707C18.3331 8.36719 18.3332 8.36731 18.3333 8.36742L19.0425 7.74507M18.3329 8.36707L19.0425 7.74507M1.94369 21.1494V20.7584C1.94369 20.2115 1.97154 19.6766 2.0162 19.1505L2.09162 18.2623L2.98274 18.2872C3.74515 18.3085 4.4938 18.3226 5.21625 18.3226C11.2104 18.3226 16.0476 17.6301 19.9353 16.5883C20.7426 16.3719 21.5061 16.1392 22.2379 15.8945L22.9796 15.6465L23.3609 16.3292C24.1965 17.8249 24.9891 19.4488 25.6919 21.201L26.0751 22.1565L25.0899 22.4552C24.0707 22.7642 23.104 23.1211 22.1918 23.5186L22.1908 23.519C17.4921 25.5597 14.1234 28.611 11.921 31.1583L1.94369 21.1494ZM1.94369 21.1494L1.95019 21.1559M1.94369 21.1494L1.95019 21.1559M1.95019 21.1559C2.05608 26.3362 4.19388 31.0086 7.60512 34.4199C7.68377 34.4985 7.77474 34.5841 7.85045 34.6553C7.88214 34.6851 7.91116 34.7124 7.93548 34.7356L8.76847 35.5307L9.3843 34.5576C9.91432 33.7201 10.7499 32.5146 11.9206 31.1588L1.95019 21.1559ZM35.2717 6.74576L35.2721 6.74618C38.8589 10.3308 41.0767 15.2902 41.0767 20.7584C41.0767 26.2265 38.8567 31.1859 35.2721 34.7682L35.2717 34.7687C31.6895 38.3531 26.7302 40.5709 21.2618 40.5709H21.2614C16.7628 40.5727 12.6083 39.0704 9.28177 36.5413H10.128C13.2747 38.7666 17.1138 40.0765 21.2642 40.0765C23.7328 40.0765 26.0892 39.6077 28.2567 38.7658L28.1117 37.8936L28.5671 37.9117C28.5891 37.357 28.5988 36.8081 28.5988 36.2676V36.2671C28.5964 31.5146 27.7861 27.2518 26.5311 23.4941L26.2419 22.6281L25.3668 22.8887C24.3476 23.1923 23.3758 23.5457 22.4567 23.9421C19.4011 25.2598 16.9086 27.0181 14.9414 28.7834C12.1463 31.2906 10.408 33.8248 9.62476 35.1054L8.91918 36.259C8.33551 35.7936 7.77885 35.2959 7.25199 34.7687L7.25135 34.768C3.66474 31.186 1.44698 26.2267 1.44698 20.7584C1.44698 15.2902 3.66471 10.3308 7.25156 6.74618L7.25199 6.74576C10.8341 3.16135 15.7935 0.943564 21.2618 0.943564C26.7302 0.943564 31.6895 3.16135 35.2717 6.74576ZM7.60336 7.0987L7.60287 7.0992L7.60048 7.10158L7.60003 7.10203C5.02721 9.67736 3.1795 12.9732 2.38216 16.6615L2.14148 17.7748L3.28015 17.8041C3.93511 17.8209 4.5822 17.8306 5.21387 17.8306C12.1184 17.8306 17.461 16.9063 21.5679 15.5952L22.7328 15.2233L22.0776 14.1908C21.693 13.5846 21.303 13.002 20.9099 12.4454C17.0596 6.98117 13.1606 4.04951 13.0383 3.9614L12.7479 4.36474L12.1783 3.70892C10.4893 4.61103 8.94855 5.75602 7.60336 7.0987ZM30.486 37.7397C31.8438 36.9994 33.1032 36.1022 34.2399 35.0709L34.2585 35.0895L34.9257 34.4223C37.8346 31.5134 39.8129 27.688 40.3996 23.4111L40.5217 22.5208L39.6384 22.3554C37.4189 21.9399 35.3345 21.7529 33.3812 21.7529C31.3761 21.7529 29.5098 21.9498 27.7759 22.2956L26.7316 22.5038L27.064 23.5154C28.2987 27.2732 29.0979 31.5363 29.0979 36.27C29.0979 36.4045 29.096 36.5344 29.0939 36.6722C29.0928 36.7455 29.0917 36.8211 29.0908 36.9008L29.0729 38.5101L30.486 37.7397Z" stroke="#626366" stroke-opacity="0.7" stroke-width="1.88713"/>
</svg>
