<svg width="24" height="19" viewBox="0 0 24 19" fill="none" xmlns="http://www.w3.org/2000/svg">
<path d="M18.5099 0H5.49013C2.45665 0 0 2.44814 0 5.4711V13.5289C0 16.5519 2.45665 19 5.49013 19H18.5099C21.5433 19 24 16.5519 24 13.5289V5.4711C24 2.44814 21.5382 0 18.5099 0ZM8.11159 12.3023L5.54678 14.9865C5.15537 15.3971 4.50129 15.4125 4.08927 15.0224C3.67725 14.6324 3.6618 13.9806 4.05322 13.57L6.61803 10.8857C7.00944 10.4751 7.66352 10.4598 8.07554 10.8498C8.48755 11.245 8.50301 11.8917 8.11159 12.3023ZM11.8764 10.5162C11.2069 10.5162 10.5373 10.3212 9.96567 9.92599L4.61459 6.28201C4.14592 5.9638 4.02232 5.32226 4.34678 4.85521C4.66609 4.38817 5.30987 4.26499 5.77854 4.58833L11.1296 8.23231C11.3562 8.38628 11.6137 8.46326 11.8815 8.46326C12.1339 8.46326 12.3811 8.39141 12.5974 8.25284L18.4481 4.50621C18.927 4.19827 19.5657 4.33684 19.8695 4.81415C20.1734 5.29146 20.0395 5.92788 19.5605 6.23069L13.7099 9.97731C13.1485 10.3366 12.5099 10.5162 11.8764 10.5162ZM19.8953 14.9711C19.4781 15.356 18.824 15.3304 18.4378 14.9146L16.0069 12.292C15.6206 11.8763 15.6464 11.2245 16.0635 10.8395C16.4807 10.4546 17.1348 10.4803 17.521 10.896L19.9519 13.5186C20.3382 13.9344 20.3176 14.5862 19.8953 14.9711Z" fill="url(#paint0_linear_895_283)"/>
<defs>
<linearGradient id="paint0_linear_895_283" x1="12" y1="0" x2="12" y2="19" gradientUnits="userSpaceOnUse">
<stop stop-color="#7863E6"/>
<stop offset="0.71" stop-color="#E29EB2"/>
</linearGradient>
</defs>
</svg>
