<svg width="138" height="136" viewBox="0 0 138 136" fill="none" xmlns="http://www.w3.org/2000/svg">
<g filter="url(#filter0_b_1040_2634)">
<path d="M135.5 96.8471V38.8286C135.5 28.4303 128.666 19.2682 118.7 16.3038L75.6996 3.5143C71.3278 2.21402 66.6722 2.21402 62.3004 3.5143L19.3004 16.3038C9.33366 19.2682 2.5 28.4303 2.5 38.8286V96.8471C2.5 107.355 9.4752 116.585 19.5834 119.454L62.5834 131.659C66.7783 132.85 71.2217 132.85 75.4166 131.659L118.417 119.454C128.525 116.585 135.5 107.355 135.5 96.8471Z" stroke="url(#paint0_linear_1040_2634)"/>
</g>
<g filter="url(#filter1_f_1040_2634)">
<path d="M132.5 94.7033V40.9314C132.5 30.5322 125.665 21.3697 115.697 18.406L75.6974 6.51293C71.327 5.21351 66.673 5.21351 62.3026 6.51293L22.3026 18.406C12.3347 21.3697 5.5 30.5322 5.5 40.9314V94.7033C5.5 105.212 12.4763 114.443 22.5855 117.311L62.5855 128.66C66.7791 129.85 71.2209 129.85 75.4145 128.66L115.415 117.311C125.524 114.443 132.5 105.212 132.5 94.7033Z" stroke="url(#paint1_linear_1040_2634)"/>
</g>
<path d="M22.594 98.242V99.278H18.352V102.568H21.796V103.604H18.352V108H17.078V98.242H22.594ZM23.6567 104.136C23.6567 103.352 23.8154 102.666 24.1327 102.078C24.45 101.481 24.884 101.019 25.4347 100.692C25.9947 100.365 26.6154 100.202 27.2967 100.202C27.9687 100.202 28.552 100.347 29.0467 100.636C29.5414 100.925 29.91 101.289 30.1527 101.728V100.328H31.4407V108H30.1527V106.572C29.9007 107.02 29.5227 107.393 29.0187 107.692C28.524 107.981 27.9454 108.126 27.2827 108.126C26.6014 108.126 25.9854 107.958 25.4347 107.622C24.884 107.286 24.45 106.815 24.1327 106.208C23.8154 105.601 23.6567 104.911 23.6567 104.136ZM30.1527 104.15C30.1527 103.571 30.036 103.067 29.8027 102.638C29.5694 102.209 29.252 101.882 28.8507 101.658C28.4587 101.425 28.0247 101.308 27.5487 101.308C27.0727 101.308 26.6387 101.42 26.2467 101.644C25.8547 101.868 25.542 102.195 25.3087 102.624C25.0754 103.053 24.9587 103.557 24.9587 104.136C24.9587 104.724 25.0754 105.237 25.3087 105.676C25.542 106.105 25.8547 106.437 26.2467 106.67C26.6387 106.894 27.0727 107.006 27.5487 107.006C28.0247 107.006 28.4587 106.894 28.8507 106.67C29.252 106.437 29.5694 106.105 29.8027 105.676C30.036 105.237 30.1527 104.729 30.1527 104.15ZM36.3096 108.126C35.7216 108.126 35.1943 108.028 34.7276 107.832C34.261 107.627 33.8923 107.347 33.6216 106.992C33.351 106.628 33.2016 106.213 33.1736 105.746H34.4896C34.527 106.129 34.7043 106.441 35.0216 106.684C35.3483 106.927 35.773 107.048 36.2956 107.048C36.781 107.048 37.1636 106.941 37.4436 106.726C37.7236 106.511 37.8636 106.241 37.8636 105.914C37.8636 105.578 37.7143 105.331 37.4156 105.172C37.117 105.004 36.655 104.841 36.0296 104.682C35.4603 104.533 34.9936 104.383 34.6296 104.234C34.275 104.075 33.967 103.847 33.7056 103.548C33.4536 103.24 33.3276 102.839 33.3276 102.344C33.3276 101.952 33.4443 101.593 33.6776 101.266C33.911 100.939 34.2423 100.683 34.6716 100.496C35.101 100.3 35.591 100.202 36.1416 100.202C36.991 100.202 37.677 100.417 38.1996 100.846C38.7223 101.275 39.0023 101.863 39.0396 102.61H37.7656C37.7376 102.209 37.5743 101.887 37.2756 101.644C36.9863 101.401 36.5943 101.28 36.0996 101.28C35.6423 101.28 35.2783 101.378 35.0076 101.574C34.737 101.77 34.6016 102.027 34.6016 102.344C34.6016 102.596 34.681 102.806 34.8396 102.974C35.0076 103.133 35.213 103.263 35.4556 103.366C35.7076 103.459 36.053 103.567 36.4916 103.688C37.0423 103.837 37.4903 103.987 37.8356 104.136C38.181 104.276 38.475 104.491 38.7176 104.78C38.9696 105.069 39.1003 105.447 39.1096 105.914C39.1096 106.334 38.993 106.712 38.7596 107.048C38.5263 107.384 38.195 107.65 37.7656 107.846C37.3456 108.033 36.8603 108.126 36.3096 108.126ZM44.7161 100.188C45.2947 100.188 45.8174 100.314 46.2841 100.566C46.7507 100.809 47.1147 101.177 47.3761 101.672C47.6467 102.167 47.7821 102.769 47.7821 103.478V108H46.5221V103.66C46.5221 102.895 46.3307 102.311 45.9481 101.91C45.5654 101.499 45.0427 101.294 44.3801 101.294C43.7081 101.294 43.1714 101.504 42.7701 101.924C42.3781 102.344 42.1821 102.955 42.1821 103.758V108H40.9081V97.64H42.1821V101.42C42.4341 101.028 42.7794 100.725 43.2181 100.51C43.6661 100.295 44.1654 100.188 44.7161 100.188ZM50.5212 99.082C50.2785 99.082 50.0732 98.998 49.9052 98.83C49.7372 98.662 49.6532 98.4567 49.6532 98.214C49.6532 97.9713 49.7372 97.766 49.9052 97.598C50.0732 97.43 50.2785 97.346 50.5212 97.346C50.7545 97.346 50.9505 97.43 51.1092 97.598C51.2772 97.766 51.3612 97.9713 51.3612 98.214C51.3612 98.4567 51.2772 98.662 51.1092 98.83C50.9505 98.998 50.7545 99.082 50.5212 99.082ZM51.1372 100.328V108H49.8632V100.328H51.1372ZM56.6545 108.126C55.9358 108.126 55.2825 107.963 54.6945 107.636C54.1158 107.309 53.6585 106.847 53.3225 106.25C52.9958 105.643 52.8325 104.943 52.8325 104.15C52.8325 103.366 53.0005 102.675 53.3365 102.078C53.6818 101.471 54.1485 101.009 54.7365 100.692C55.3245 100.365 55.9825 100.202 56.7105 100.202C57.4385 100.202 58.0965 100.365 58.6845 100.692C59.2725 101.009 59.7345 101.467 60.0705 102.064C60.4158 102.661 60.5885 103.357 60.5885 104.15C60.5885 104.943 60.4111 105.643 60.0565 106.25C59.7111 106.847 59.2398 107.309 58.6425 107.636C58.0451 107.963 57.3825 108.126 56.6545 108.126ZM56.6545 107.006C57.1118 107.006 57.5411 106.899 57.9425 106.684C58.3438 106.469 58.6658 106.147 58.9085 105.718C59.1605 105.289 59.2865 104.766 59.2865 104.15C59.2865 103.534 59.1651 103.011 58.9225 102.582C58.6798 102.153 58.3625 101.835 57.9705 101.63C57.5785 101.415 57.1538 101.308 56.6965 101.308C56.2298 101.308 55.8005 101.415 55.4085 101.63C55.0258 101.835 54.7178 102.153 54.4845 102.582C54.2511 103.011 54.1345 103.534 54.1345 104.15C54.1345 104.775 54.2465 105.303 54.4705 105.732C54.7038 106.161 55.0118 106.483 55.3945 106.698C55.7771 106.903 56.1971 107.006 56.6545 107.006ZM66.0015 100.188C66.9349 100.188 67.6909 100.473 68.2695 101.042C68.8482 101.602 69.1375 102.414 69.1375 103.478V108H67.8775V103.66C67.8775 102.895 67.6862 102.311 67.3035 101.91C66.9209 101.499 66.3982 101.294 65.7355 101.294C65.0635 101.294 64.5269 101.504 64.1255 101.924C63.7335 102.344 63.5375 102.955 63.5375 103.758V108H62.2635V100.328H63.5375V101.42C63.7895 101.028 64.1302 100.725 64.5595 100.51C64.9982 100.295 65.4789 100.188 66.0015 100.188ZM77.989 98.242C79.053 98.242 79.9724 98.4427 80.747 98.844C81.531 99.236 82.1284 99.8007 82.539 100.538C82.959 101.275 83.169 102.143 83.169 103.142C83.169 104.141 82.959 105.009 82.539 105.746C82.1284 106.474 81.531 107.034 80.747 107.426C79.9724 107.809 79.053 108 77.989 108H74.951V98.242H77.989ZM77.989 106.95C79.249 106.95 80.2104 106.619 80.873 105.956C81.5357 105.284 81.867 104.346 81.867 103.142C81.867 101.929 81.531 100.981 80.859 100.3C80.1964 99.6187 79.2397 99.278 77.989 99.278H76.225V106.95H77.989ZM91.8495 103.87C91.8495 104.113 91.8355 104.369 91.8075 104.64H85.6755C85.7222 105.396 85.9788 105.989 86.4455 106.418C86.9215 106.838 87.4955 107.048 88.1675 107.048C88.7182 107.048 89.1755 106.922 89.5395 106.67C89.9128 106.409 90.1742 106.063 90.3235 105.634H91.6955C91.4902 106.371 91.0795 106.973 90.4635 107.44C89.8475 107.897 89.0822 108.126 88.1675 108.126C87.4395 108.126 86.7862 107.963 86.2075 107.636C85.6382 107.309 85.1902 106.847 84.8635 106.25C84.5368 105.643 84.3735 104.943 84.3735 104.15C84.3735 103.357 84.5322 102.661 84.8495 102.064C85.1668 101.467 85.6102 101.009 86.1795 100.692C86.7582 100.365 87.4208 100.202 88.1675 100.202C88.8955 100.202 89.5395 100.361 90.0995 100.678C90.6595 100.995 91.0888 101.434 91.3875 101.994C91.6955 102.545 91.8495 103.17 91.8495 103.87ZM90.5335 103.604C90.5335 103.119 90.4262 102.703 90.2115 102.358C89.9968 102.003 89.7028 101.737 89.3295 101.56C88.9655 101.373 88.5595 101.28 88.1115 101.28C87.4675 101.28 86.9168 101.485 86.4595 101.896C86.0115 102.307 85.7548 102.876 85.6895 103.604H90.5335ZM96.2471 108.126C95.6591 108.126 95.1318 108.028 94.6651 107.832C94.1985 107.627 93.8298 107.347 93.5591 106.992C93.2885 106.628 93.1391 106.213 93.1111 105.746H94.4271C94.4645 106.129 94.6418 106.441 94.9591 106.684C95.2858 106.927 95.7105 107.048 96.2331 107.048C96.7185 107.048 97.1011 106.941 97.3811 106.726C97.6611 106.511 97.8011 106.241 97.8011 105.914C97.8011 105.578 97.6518 105.331 97.3531 105.172C97.0545 105.004 96.5925 104.841 95.9671 104.682C95.3978 104.533 94.9311 104.383 94.5671 104.234C94.2125 104.075 93.9045 103.847 93.6431 103.548C93.3911 103.24 93.2651 102.839 93.2651 102.344C93.2651 101.952 93.3818 101.593 93.6151 101.266C93.8485 100.939 94.1798 100.683 94.6091 100.496C95.0385 100.3 95.5285 100.202 96.0791 100.202C96.9285 100.202 97.6145 100.417 98.1371 100.846C98.6598 101.275 98.9398 101.863 98.9771 102.61H97.7031C97.6751 102.209 97.5118 101.887 97.2131 101.644C96.9238 101.401 96.5318 101.28 96.0371 101.28C95.5798 101.28 95.2158 101.378 94.9451 101.574C94.6745 101.77 94.5391 102.027 94.5391 102.344C94.5391 102.596 94.6185 102.806 94.7771 102.974C94.9451 103.133 95.1505 103.263 95.3931 103.366C95.6451 103.459 95.9905 103.567 96.4291 103.688C96.9798 103.837 97.4278 103.987 97.7731 104.136C98.1185 104.276 98.4125 104.491 98.6551 104.78C98.9071 105.069 99.0378 105.447 99.0471 105.914C99.0471 106.334 98.9305 106.712 98.6971 107.048C98.4638 107.384 98.1325 107.65 97.7031 107.846C97.2831 108.033 96.7978 108.126 96.2471 108.126ZM101.504 99.082C101.261 99.082 101.056 98.998 100.888 98.83C100.72 98.662 100.636 98.4567 100.636 98.214C100.636 97.9713 100.72 97.766 100.888 97.598C101.056 97.43 101.261 97.346 101.504 97.346C101.737 97.346 101.933 97.43 102.092 97.598C102.26 97.766 102.344 97.9713 102.344 98.214C102.344 98.4567 102.26 98.662 102.092 98.83C101.933 98.998 101.737 99.082 101.504 99.082ZM102.12 100.328V108H100.846V100.328H102.12ZM107.455 100.202C108.118 100.202 108.696 100.347 109.191 100.636C109.695 100.925 110.068 101.289 110.311 101.728V100.328H111.599V108.168C111.599 108.868 111.45 109.489 111.151 110.03C110.852 110.581 110.423 111.01 109.863 111.318C109.312 111.626 108.668 111.78 107.931 111.78C106.923 111.78 106.083 111.542 105.411 111.066C104.739 110.59 104.342 109.941 104.221 109.12H105.481C105.621 109.587 105.91 109.96 106.349 110.24C106.788 110.529 107.315 110.674 107.931 110.674C108.631 110.674 109.2 110.455 109.639 110.016C110.087 109.577 110.311 108.961 110.311 108.168V106.558C110.059 107.006 109.686 107.379 109.191 107.678C108.696 107.977 108.118 108.126 107.455 108.126C106.774 108.126 106.153 107.958 105.593 107.622C105.042 107.286 104.608 106.815 104.291 106.208C103.974 105.601 103.815 104.911 103.815 104.136C103.815 103.352 103.974 102.666 104.291 102.078C104.608 101.481 105.042 101.019 105.593 100.692C106.153 100.365 106.774 100.202 107.455 100.202ZM110.311 104.15C110.311 103.571 110.194 103.067 109.961 102.638C109.728 102.209 109.41 101.882 109.009 101.658C108.617 101.425 108.183 101.308 107.707 101.308C107.231 101.308 106.797 101.42 106.405 101.644C106.013 101.868 105.7 102.195 105.467 102.624C105.234 103.053 105.117 103.557 105.117 104.136C105.117 104.724 105.234 105.237 105.467 105.676C105.7 106.105 106.013 106.437 106.405 106.67C106.797 106.894 107.231 107.006 107.707 107.006C108.183 107.006 108.617 106.894 109.009 106.67C109.41 106.437 109.728 106.105 109.961 105.676C110.194 105.237 110.311 104.729 110.311 104.15ZM117.49 100.188C118.423 100.188 119.179 100.473 119.758 101.042C120.336 101.602 120.626 102.414 120.626 103.478V108H119.366V103.66C119.366 102.895 119.174 102.311 118.792 101.91C118.409 101.499 117.886 101.294 117.224 101.294C116.552 101.294 116.015 101.504 115.614 101.924C115.222 102.344 115.026 102.955 115.026 103.758V108H113.752V100.328H115.026V101.42C115.278 101.028 115.618 100.725 116.048 100.51C116.486 100.295 116.967 100.188 117.49 100.188Z" fill="#979292"/>
<g clip-path="url(#clip0_1040_2634)">
<path opacity="0.5" d="M77.1313 41.8539C74.99 40.816 72.8488 39.8026 70.7239 38.732C70.3807 38.5603 69.7269 38.5685 69.9067 37.8902C70.0374 37.3998 70.4706 36.9994 70.8956 37.1138C72.0642 37.408 72.2114 36.5417 72.5464 35.8552C73.5925 33.7385 74.0012 33.5914 76.1505 34.6293C78.8802 35.9533 81.5935 37.2936 84.3395 38.5848C85.5654 39.1569 85.8187 39.966 85.2466 41.151C84.7726 42.1154 83.9145 43.0634 85.0914 44.1667C85.3611 44.4201 85.1894 44.9676 84.8952 45.2782C84.5601 45.6296 84.2332 45.2864 83.9472 45.1556C81.6752 44.0605 79.4032 42.9572 77.1313 41.8539Z" fill="url(#paint2_linear_1040_2634)"/>
<path opacity="0.5" d="M60.3361 77.0533C62.5101 78.1076 64.7003 79.1455 66.8579 80.2325C67.2011 80.4041 67.904 80.4041 67.6506 81.0824C67.4708 81.5646 67.0377 82.0223 66.4901 81.8506C65.444 81.5237 65.3296 82.3001 65.0354 82.9049C63.8749 85.275 63.4417 85.4221 61.1044 84.2943C58.5627 83.0602 56.0128 81.8506 53.4793 80.6002C51.8939 79.8157 51.665 79.072 52.4251 77.4456C52.8337 76.5793 53.5692 75.7457 52.4578 74.814C52.1717 74.577 52.3107 74.0377 52.5967 73.6944C52.9318 73.2858 53.2423 73.6372 53.5284 73.7761C55.8004 74.8631 58.0723 75.9664 60.3443 77.0697C60.328 77.0615 60.328 77.0533 60.3361 77.0533Z" fill="url(#paint3_linear_1040_2634)"/>
<path d="M84.9033 45.2781L67.7817 80.6491L53.0547 73.5226L70.1844 38.1516L84.9033 45.2781Z" fill="url(#paint4_linear_1040_2634)"/>
<path d="M68.8851 78.2709C66.3597 70.981 63.908 63.8708 61.4235 56.7689C61.1538 55.9925 61.2274 55.641 62.0773 55.3468C69.1956 52.9114 76.2894 50.4269 83.5957 47.8853C83.1135 49.2582 82.7131 50.2798 81.242 50.762C75.7746 52.56 70.3643 54.5459 64.8968 56.3684C63.7363 56.7525 63.4503 57.1121 63.8998 58.338C65.804 63.5521 67.5284 68.8398 69.449 74.0539C70.0129 75.5658 70.0211 76.8326 68.8851 78.2709Z" fill="url(#paint5_linear_1040_2634)"/>
<path d="M70.3966 75.0837C68.4597 69.4365 66.5964 63.9527 64.7003 58.477C64.4388 57.717 64.2999 57.2511 65.3051 56.9161C70.7154 55.0936 76.0929 53.1894 81.4868 51.326C81.6094 51.2852 81.7565 51.3015 81.969 51.2852C81.5849 52.8053 80.7922 53.6879 79.2639 54.1701C75.4146 55.3796 71.6389 56.8343 67.7978 58.0766C66.768 58.4117 66.7925 58.7958 67.0949 59.6375C68.4189 63.3479 69.6039 67.1073 71.0178 70.785C71.598 72.3132 71.5817 73.58 70.3966 75.0837Z" fill="url(#paint6_linear_1040_2634)"/>
<path d="M72.0393 71.7165C70.6255 67.6465 69.2443 63.642 67.8223 59.6619C67.5934 59.0244 67.7487 58.7874 68.3535 58.5831C72.309 57.2183 76.2564 55.8208 80.4571 54.3416C79.9504 55.8862 79.4355 56.9159 77.8909 57.3491C75.5617 58.0029 73.3142 58.9591 71.0014 59.6864C70.1433 59.9561 69.9063 60.2013 70.2659 61.1166C71.0749 63.1843 71.6634 65.3419 72.5052 67.4013C73.1263 68.9133 73.2897 70.2781 72.0393 71.7165Z" fill="url(#paint7_linear_1040_2634)"/>
<path d="M78.7411 57.7415C78.4469 60.4221 76.3057 60.6019 74.5323 61.1413C73.4453 61.4763 73.0367 61.885 73.6333 62.9637C73.8539 63.356 73.8948 63.8464 74.1073 64.2387C74.9164 65.7261 74.7938 67.0991 73.5515 68.5865C72.6689 65.9794 71.8353 63.4786 70.969 60.986C70.7974 60.4874 71.0589 60.3894 71.4185 60.2668C73.8376 59.4332 76.2567 58.5996 78.7411 57.7415Z" fill="url(#paint8_linear_1040_2634)"/>
<path d="M75.4471 50.0672C74.8668 50.2307 74.2947 50.3941 73.8044 50.5249C72.4804 46.741 71.1565 42.9489 69.7998 39.0833C71.2464 39.4837 72.1699 40.1947 72.6193 41.7639C73.4121 44.5262 74.4582 47.215 75.4471 50.0672Z" fill="url(#paint9_linear_1040_2634)"/>
<path d="M69.0568 39.8599C70.3317 43.5457 71.5903 47.1907 72.8488 50.852C71.2552 51.5303 71.2552 51.5303 70.6422 49.7732C69.9639 47.82 69.3918 45.8259 68.5746 43.938C67.9289 42.4342 67.9616 41.1511 69.0568 39.8599Z" fill="url(#paint10_linear_1040_2634)"/>
<path d="M53.4219 72.7789C56.9361 71.553 60.3032 70.3843 63.6621 69.1993C64.3486 68.9541 64.8635 68.6436 65.264 69.706C65.6808 70.8175 64.9044 70.7276 64.3731 70.9156C62.0521 71.741 59.6739 72.4275 57.4101 73.3837C55.9063 74.013 54.7213 73.8005 53.4219 72.7789Z" fill="url(#paint11_linear_1040_2634)"/>
<path d="M53.5449 72.0025C53.9127 70.2863 54.7545 69.4853 56.2419 69.0604C58.6119 68.3902 60.9248 67.5157 63.2294 66.6494C63.9977 66.3634 64.1775 66.674 64.3899 67.2787C64.5697 67.81 64.7005 68.145 63.9731 68.3902C60.5488 69.5425 57.1409 70.7521 53.5449 72.0025Z" fill="url(#paint12_linear_1040_2634)"/>
<path d="M56.5771 74.3155C59.4539 73.3266 62.2162 72.4031 64.9541 71.4142C65.7713 71.12 65.8612 71.6267 66.09 72.1661C66.3597 72.7954 66.1636 73.0324 65.5507 73.2285C63.9161 73.7598 62.2489 74.2338 60.6961 74.9448C59.1842 75.6476 57.9501 75.3371 56.5771 74.3155Z" fill="url(#paint13_linear_1040_2634)"/>
<path d="M72.8564 40.6443C74.5972 41.0447 75.5044 41.8702 75.8966 43.4311C76.3053 45.0902 76.9427 46.7002 77.572 48.2857C77.8826 49.0702 77.6129 49.2745 76.9264 49.5279C76.2317 49.7812 76.0029 49.6505 75.7741 48.964C74.8587 46.2425 73.878 43.5456 72.8564 40.6443Z" fill="url(#paint14_linear_1040_2634)"/>
<path d="M70.1918 51.8898C69.1948 52.6335 68.5491 52.1268 68.1977 50.6067C67.928 49.438 67.5357 48.2694 67.0045 47.1824C66.2853 45.7032 66.3916 44.3955 67.3069 43.3086C68.2304 46.0464 69.1948 48.915 70.1918 51.8898Z" fill="url(#paint15_linear_1040_2634)"/>
<path d="M55.1143 68.807C55.433 66.9682 56.4219 66.1754 57.9338 65.775C59.4457 65.3745 60.9168 64.8106 62.3797 64.2467C63.0907 63.9688 63.3195 64.1732 63.5565 64.8433C63.8099 65.5298 63.72 65.7832 63.0008 66.0202C60.4183 66.8946 57.8602 67.8345 55.1143 68.807Z" fill="url(#paint16_linear_1040_2634)"/>
<path d="M59.8457 75.8682C61.8643 75.1817 63.7604 74.5769 65.6319 73.8822C66.4165 73.588 66.6453 73.8741 66.9232 74.5524C67.2419 75.3124 66.9232 75.5086 66.302 75.6802C65.6237 75.8682 64.9454 76.0643 64.3161 76.3749C62.796 77.1186 61.3576 77.184 59.8457 75.8682Z" fill="url(#paint17_linear_1040_2634)"/>
<path d="M56.8467 65.5053C57.0919 64.5409 57.1082 63.4948 57.95 63.1271C59.2821 62.5468 60.6796 62.0564 62.0935 61.7132C62.7473 61.5579 62.5838 62.4406 62.8208 62.8247C63.1069 63.2987 62.7391 63.3967 62.3713 63.5275C60.5243 64.1813 58.6937 64.8515 56.8467 65.5053Z" fill="url(#paint18_linear_1040_2634)"/>
<path d="M78.6341 48.8415C77.8577 46.6757 77.0813 44.5182 76.2559 42.2217C77.637 42.6875 78.7975 43.1615 79.0264 44.7797C79.1244 45.458 79.4677 46.1118 79.6965 46.7738C80.2686 48.392 80.2686 48.392 78.6341 48.8415Z" fill="url(#paint19_linear_1040_2634)"/>
<path d="M66.4741 53.1322C66.0491 50.8602 63.6873 48.817 66.0655 46.2263C66.7356 48.2204 67.4303 50.0838 67.9779 51.988C68.3538 53.3201 66.8582 52.4947 66.4741 53.1322Z" fill="url(#paint20_linear_1040_2634)"/>
<path d="M63.1309 77.4864C64.3404 77.0614 65.3947 76.7345 66.4162 76.3177C67.0946 76.0399 67.4868 76.0562 67.7484 76.8653C67.9936 77.6172 67.7811 77.8215 67.0946 78.1566C65.6235 78.8594 64.4385 78.4508 63.1309 77.4864Z" fill="url(#paint21_linear_1040_2634)"/>
<path d="M58.1133 62.4653C58.6854 60.8961 59.0531 59.7928 60.5487 59.4496C61.3741 59.2616 61.6111 59.376 61.9299 60.1442C62.3385 61.1331 61.6357 61.0923 61.129 61.2884C60.2463 61.6398 59.3555 61.9831 58.1133 62.4653Z" fill="url(#paint22_linear_1040_2634)"/>
<path d="M79.4434 43.8152C81.1433 44.183 81.9932 45.0819 82.3937 46.602C82.6143 47.452 82.3119 47.5827 81.6908 47.8688C80.8817 48.2366 80.7673 47.7789 80.5875 47.215C80.2443 46.128 79.8602 45.0492 79.4434 43.8152Z" fill="url(#paint23_linear_1040_2634)"/>
<path d="M64.4548 49.2991C64.8635 50.5985 65.1086 51.5302 65.4519 52.421C65.6971 53.0585 65.7951 53.4507 64.937 53.7041C64.2015 53.9248 63.9645 53.8103 63.6294 53.1075C62.9756 51.7345 63.6049 50.7374 64.4548 49.2991Z" fill="url(#paint24_linear_1040_2634)"/>
<path d="M75.2346 65.2275C73.9188 62.0075 73.9188 62.0075 77.2859 60.9941C76.583 62.4407 75.9292 63.781 75.2346 65.2275Z" fill="url(#paint25_linear_1040_2634)"/>
<path d="M82.8271 45.458C83.3829 45.8094 84.3963 45.5724 84.3799 46.5368C84.3718 46.9046 83.955 47.1824 83.6281 47.117C82.7372 46.9454 83.0805 46.0546 82.8271 45.458Z" fill="url(#paint26_linear_1040_2634)"/>
<path d="M66.5312 79.1699C67.1442 78.9166 67.6427 78.2301 68.3292 78.7531C68.6071 78.9656 68.5417 79.5295 68.3047 79.7011C67.5528 80.2405 67.1687 79.317 66.5312 79.1699Z" fill="url(#paint27_linear_1040_2634)"/>
<path d="M60.7611 57.0139C61.3741 58.6076 61.3741 58.6076 59.8213 58.8527C60.0011 58.2235 60.2544 57.6514 60.7611 57.0139Z" fill="url(#paint28_linear_1040_2634)"/>
</g>
<defs>
<filter id="filter0_b_1040_2634" x="-1.4268" y="-1.38773" width="140.854" height="137.867" filterUnits="userSpaceOnUse" color-interpolation-filters="sRGB">
<feFlood flood-opacity="0" result="BackgroundImageFix"/>
<feGaussianBlur in="BackgroundImageFix" stdDeviation="1.7134"/>
<feComposite in2="SourceAlpha" operator="in" result="effect1_backgroundBlur_1040_2634"/>
<feBlend mode="normal" in="SourceGraphic" in2="effect1_backgroundBlur_1040_2634" result="shape"/>
</filter>
<filter id="filter1_f_1040_2634" x="0" y="0.0383301" width="138" height="135.014" filterUnits="userSpaceOnUse" color-interpolation-filters="sRGB">
<feFlood flood-opacity="0" result="BackgroundImageFix"/>
<feBlend mode="normal" in="SourceGraphic" in2="BackgroundImageFix" result="shape"/>
<feGaussianBlur stdDeviation="2.5" result="effect1_foregroundBlur_1040_2634"/>
</filter>
<linearGradient id="paint0_linear_1040_2634" x1="133" y1="14.5" x2="69" y2="134" gradientUnits="userSpaceOnUse">
<stop stop-color="#454343"/>
<stop offset="0.404952" stop-color="#4D4C4C" stop-opacity="0.2"/>
<stop offset="1" stop-color="#3C3A3A" stop-opacity="0.2"/>
</linearGradient>
<linearGradient id="paint1_linear_1040_2634" x1="115.5" y1="15" x2="69" y2="131" gradientUnits="userSpaceOnUse">
<stop stop-color="#5E5C5C"/>
<stop offset="0.356744" stop-color="#908D8D" stop-opacity="0.1"/>
<stop offset="1" stop-color="#C4C0C0" stop-opacity="0.05"/>
</linearGradient>
<linearGradient id="paint2_linear_1040_2634" x1="69.8784" y1="39.7181" x2="85.5366" y2="39.7181" gradientUnits="userSpaceOnUse">
<stop stop-color="white"/>
<stop offset="0.9955" stop-color="#5C5C5C"/>
</linearGradient>
<linearGradient id="paint3_linear_1040_2634" x1="52.0083" y1="79.2405" x2="67.703" y2="79.2405" gradientUnits="userSpaceOnUse">
<stop stop-color="white"/>
<stop offset="0.9955" stop-color="#5C5C5C"/>
</linearGradient>
<linearGradient id="paint4_linear_1040_2634" x1="53.0585" y1="59.3973" x2="84.9003" y2="59.3973" gradientUnits="userSpaceOnUse">
<stop stop-color="#ABABAB"/>
<stop offset="0.9955" stop-color="#5F5F5F"/>
</linearGradient>
<linearGradient id="paint5_linear_1040_2634" x1="61.2877" y1="63.0809" x2="83.5936" y2="63.0809" gradientUnits="userSpaceOnUse">
<stop stop-color="white"/>
<stop offset="0.9955" stop-color="#5C5C5C"/>
</linearGradient>
<linearGradient id="paint6_linear_1040_2634" x1="64.5135" y1="63.1866" x2="81.9673" y2="63.1866" gradientUnits="userSpaceOnUse">
<stop stop-color="white"/>
<stop offset="0.9955" stop-color="#5C5C5C"/>
</linearGradient>
<linearGradient id="paint7_linear_1040_2634" x1="67.7237" y1="63.0306" x2="80.4559" y2="63.0306" gradientUnits="userSpaceOnUse">
<stop stop-color="white"/>
<stop offset="0.9955" stop-color="#5C5C5C"/>
</linearGradient>
<linearGradient id="paint8_linear_1040_2634" x1="70.9163" y1="63.165" x2="78.7404" y2="63.165" gradientUnits="userSpaceOnUse">
<stop stop-color="white"/>
<stop offset="0.9955" stop-color="#5C5C5C"/>
</linearGradient>
<linearGradient id="paint9_linear_1040_2634" x1="69.8007" y1="44.8051" x2="75.4465" y2="44.8051" gradientUnits="userSpaceOnUse">
<stop stop-color="white"/>
<stop offset="0.9955" stop-color="#5C5C5C"/>
</linearGradient>
<linearGradient id="paint10_linear_1040_2634" x1="68.1492" y1="45.5671" x2="72.8484" y2="45.5671" gradientUnits="userSpaceOnUse">
<stop stop-color="white"/>
<stop offset="0.9955" stop-color="#5C5C5C"/>
</linearGradient>
<linearGradient id="paint11_linear_1040_2634" x1="53.4238" y1="71.3493" x2="65.3812" y2="71.3493" gradientUnits="userSpaceOnUse">
<stop stop-color="white"/>
<stop offset="0.9955" stop-color="#5C5C5C"/>
</linearGradient>
<linearGradient id="paint12_linear_1040_2634" x1="53.5466" y1="69.2727" x2="64.5296" y2="69.2727" gradientUnits="userSpaceOnUse">
<stop stop-color="white"/>
<stop offset="0.9955" stop-color="#5C5C5C"/>
</linearGradient>
<linearGradient id="paint13_linear_1040_2634" x1="56.5787" y1="73.3262" x2="66.2074" y2="73.3262" gradientUnits="userSpaceOnUse">
<stop stop-color="white"/>
<stop offset="0.9955" stop-color="#5C5C5C"/>
</linearGradient>
<linearGradient id="paint14_linear_1040_2634" x1="72.8572" y1="45.1468" x2="77.6995" y2="45.1468" gradientUnits="userSpaceOnUse">
<stop stop-color="white"/>
<stop offset="0.9955" stop-color="#5C5C5C"/>
</linearGradient>
<linearGradient id="paint15_linear_1040_2634" x1="66.5338" y1="47.7692" x2="70.1915" y2="47.7692" gradientUnits="userSpaceOnUse">
<stop stop-color="white"/>
<stop offset="0.9955" stop-color="#5C5C5C"/>
</linearGradient>
<linearGradient id="paint16_linear_1040_2634" x1="55.1156" y1="66.467" x2="63.6841" y2="66.467" gradientUnits="userSpaceOnUse">
<stop stop-color="white"/>
<stop offset="0.9955" stop-color="#5C5C5C"/>
</linearGradient>
<linearGradient id="paint17_linear_1040_2634" x1="59.8468" y1="75.3352" x2="67.0478" y2="75.3352" gradientUnits="userSpaceOnUse">
<stop stop-color="white"/>
<stop offset="0.9955" stop-color="#5C5C5C"/>
</linearGradient>
<linearGradient id="paint18_linear_1040_2634" x1="56.8476" y1="63.6005" x2="62.9224" y2="63.6005" gradientUnits="userSpaceOnUse">
<stop stop-color="white"/>
<stop offset="0.9955" stop-color="#5C5C5C"/>
</linearGradient>
<linearGradient id="paint19_linear_1040_2634" x1="76.2565" y1="45.5322" x2="80.0424" y2="45.5322" gradientUnits="userSpaceOnUse">
<stop stop-color="white"/>
<stop offset="0.9955" stop-color="#5C5C5C"/>
</linearGradient>
<linearGradient id="paint20_linear_1040_2634" x1="65.02" y1="49.6799" x2="68.0377" y2="49.6799" gradientUnits="userSpaceOnUse">
<stop stop-color="white"/>
<stop offset="0.9955" stop-color="#5C5C5C"/>
</linearGradient>
<linearGradient id="paint21_linear_1040_2634" x1="63.1316" y1="77.3328" x2="67.8461" y2="77.3328" gradientUnits="userSpaceOnUse">
<stop stop-color="white"/>
<stop offset="0.9955" stop-color="#5C5C5C"/>
</linearGradient>
<linearGradient id="paint22_linear_1040_2634" x1="58.1139" y1="60.9181" x2="62.052" y2="60.9181" gradientUnits="userSpaceOnUse">
<stop stop-color="white"/>
<stop offset="0.9955" stop-color="#5C5C5C"/>
</linearGradient>
<linearGradient id="paint23_linear_1040_2634" x1="79.4438" y1="45.9085" x2="82.4652" y2="45.9085" gradientUnits="userSpaceOnUse">
<stop stop-color="white"/>
<stop offset="0.9955" stop-color="#5C5C5C"/>
</linearGradient>
<linearGradient id="paint24_linear_1040_2634" x1="63.3588" y1="51.5527" x2="65.6235" y2="51.5527" gradientUnits="userSpaceOnUse">
<stop stop-color="white"/>
<stop offset="0.9955" stop-color="#5C5C5C"/>
</linearGradient>
<linearGradient id="paint25_linear_1040_2634" x1="74.4174" y1="63.1112" x2="77.2856" y2="63.1112" gradientUnits="userSpaceOnUse">
<stop stop-color="white"/>
<stop offset="0.9955" stop-color="#5C5C5C"/>
</linearGradient>
<linearGradient id="paint26_linear_1040_2634" x1="82.8274" y1="46.2925" x2="84.38" y2="46.2925" gradientUnits="userSpaceOnUse">
<stop stop-color="white"/>
<stop offset="0.9955" stop-color="#5C5C5C"/>
</linearGradient>
<linearGradient id="paint27_linear_1040_2634" x1="66.5316" y1="79.2152" x2="68.5113" y2="79.2152" gradientUnits="userSpaceOnUse">
<stop stop-color="white"/>
<stop offset="0.9955" stop-color="#5C5C5C"/>
</linearGradient>
<linearGradient id="paint28_linear_1040_2634" x1="59.8215" y1="57.9335" x2="61.1428" y2="57.9335" gradientUnits="userSpaceOnUse">
<stop stop-color="white"/>
<stop offset="0.9955" stop-color="#5C5C5C"/>
</linearGradient>
<clipPath id="clip0_1040_2634">
<rect width="33.5485" height="50.9724" fill="white" transform="translate(52 34)"/>
</clipPath>
</defs>
</svg>
