<svg width="28" height="28" viewBox="0 0 28 28" fill="none" xmlns="http://www.w3.org/2000/svg">
<path d="M9.45911 3.97542C10.8884 -0.423444 17.1116 -0.423444 18.5409 3.97542C19.1801 5.94266 21.0133 7.27457 23.0818 7.27457C27.707 7.27457 29.6301 13.1932 25.8882 15.9119C24.2148 17.1277 23.5145 19.2828 24.1537 21.25C25.583 25.6489 20.5483 29.3068 16.8064 26.5881C15.133 25.3723 12.867 25.3723 11.1936 26.5881C7.45168 29.3068 2.41698 25.6489 3.84626 21.25C4.48545 19.2828 3.78522 17.1277 2.11179 15.9119C-1.63011 13.1932 0.292974 7.27457 4.91822 7.27457C6.98669 7.27457 8.81992 5.94266 9.45911 3.97542Z" fill="url(#paint0_linear_674_1800)"/>
<defs>
<linearGradient id="paint0_linear_674_1800" x1="14" y1="-10" x2="14" y2="40" gradientUnits="userSpaceOnUse">
<stop stop-color="#7863E6"/>
<stop offset="0.71" stop-color="#E29EB2"/>
</linearGradient>
</defs>
</svg>
