<svg width="47" height="34" viewBox="0 0 47 34" fill="none" xmlns="http://www.w3.org/2000/svg">
<g clip-path="url(#clip0_1502_774)">
<path d="M46.5956 25.4759C46.9951 26.8505 46.1129 27.9805 45.0564 29.036C43.2276 30.8626 40.9563 31.9288 38.5241 32.6972C37.1056 33.1438 35.6522 33.4549 34.1639 33.5905C33.6464 33.6384 33.2576 33.4842 32.9572 33.0588C32.4906 32.3994 32.0187 31.7373 31.5172 31.1046C31.2545 30.7722 31.3564 30.6792 31.7103 30.5834C33.9789 29.9746 36.1188 29.0706 38.0683 27.7518C38.3096 27.587 38.5536 27.4168 38.7708 27.2227C39.2079 26.8266 39.2508 26.2603 38.8969 25.8402C38.5617 25.4414 38.0039 25.3643 37.5454 25.6939C33.7483 28.4298 29.4069 29.4535 24.8107 29.6316C20.96 29.7831 17.2192 29.2487 13.642 27.7731C12.3764 27.2493 11.1697 26.6165 10.0729 25.7923C9.5071 25.3669 8.92253 25.4015 8.56052 25.8694C8.19583 26.34 8.30041 26.9223 8.85817 27.345C10.8801 28.8765 13.1781 29.8496 15.6023 30.5462C16.2351 30.727 16.2378 30.7217 15.8463 31.2535C15.3985 31.865 14.9453 32.4712 14.5055 33.088C14.2534 33.439 13.9236 33.6464 13.4946 33.6012C9.64118 33.1837 6.05327 32.0777 3.00972 29.5784C2.77106 29.3817 2.55117 29.1583 2.3286 28.943C1.26135 27.9114 0.759898 26.7442 0.869842 25.1808C1.31766 18.8556 2.72011 12.7776 5.25685 6.95753C5.42043 6.57998 5.63495 6.2237 5.79584 5.8435C6.57349 4.02489 8.09393 3.02253 9.80476 2.22224C12.2691 1.06833 14.8675 0.398318 17.5732 0.116487C18.2865 0.0420412 18.9596 0.656219 18.9381 1.35282C18.9301 1.61338 18.686 1.54957 18.5466 1.5735C16.8733 1.87128 15.2456 2.33125 13.6608 2.92948C12.5265 3.35754 11.4405 3.88664 10.4027 4.51411C9.79403 4.88102 9.61705 5.42873 9.92543 5.94187C10.2258 6.44438 10.7916 6.56934 11.3708 6.23168C14.7066 4.27748 18.3508 3.36817 22.1828 3.12888C26.5859 2.85237 30.7932 3.63405 34.786 5.51115C35.2231 5.71588 35.6388 5.9658 36.0598 6.20243C36.6792 6.55073 37.245 6.46565 37.5588 5.96314C37.8832 5.44468 37.6955 4.87304 37.0654 4.49816C34.896 3.20333 32.547 2.35784 30.0853 1.81013C29.6965 1.72505 29.3076 1.6506 28.9161 1.58147C28.648 1.53362 28.4925 1.4831 28.6212 1.13214C28.951 0.230815 29.2004 0.0340649 30.206 0.156369C33.3621 0.536574 36.3574 1.38738 39.1328 2.98797C40.7284 3.90791 41.5141 5.39682 42.2086 6.95221C44.3645 11.7673 45.6731 16.8163 46.3113 22.0381C46.3757 22.5672 46.4374 23.0963 46.483 23.6254C46.5259 24.1492 46.5473 24.6809 46.5956 25.4759ZM20.7455 19.2437C20.7562 17.808 20.4344 16.8721 19.7962 16.0984C18.56 14.5989 16.4362 14.4739 15.0338 15.8166C13.4356 17.348 13.39 20.1504 14.9372 21.7324C16.2807 23.1043 18.3133 23.1016 19.6353 21.7138C20.3969 20.9161 20.7374 19.9483 20.7455 19.2437ZM26.7334 18.813C26.72 19.4086 26.8433 19.9749 27.0686 20.52C28.0983 23.0112 31.1284 23.5297 32.7588 21.4957C33.877 20.1025 33.9923 18.0287 33.0377 16.5265C32.0643 14.9977 30.2596 14.4314 28.7687 15.2396C27.3555 16.0054 26.7843 17.2736 26.7334 18.813Z" fill="#4F4F52"/>
</g>
<defs>
<clipPath id="clip0_1502_774">
<rect width="45.8357" height="33.4953" fill="white" transform="translate(0.859131 0.111328)"/>
</clipPath>
</defs>
</svg>
