<svg width="26" height="24" viewBox="0 0 26 24" fill="none" xmlns="http://www.w3.org/2000/svg">
<g clip-path="url(#clip0_1043_2786)">
<path d="M21.3996 23.3155V22.6311H4.14665C3.77451 22.6311 3.44136 22.4873 3.19681 22.2512C2.95226 22.0151 2.80341 21.6934 2.80341 21.334V15.1022C2.80341 14.7429 2.95226 14.4212 3.19681 14.185C3.44136 13.9489 3.77451 13.8052 4.14665 13.8052H21.3996C21.7718 13.8052 22.1049 13.9489 22.3495 14.185C22.594 14.4212 22.7429 14.7429 22.7429 15.1022V21.334C22.7429 21.6934 22.594 22.0151 22.3495 22.2512C22.1049 22.4873 21.7718 22.6311 21.3996 22.6311V23.3155V23.9999C22.9236 23.9999 24.1605 22.8056 24.1605 21.334V15.1022C24.1605 13.6306 22.9236 12.4363 21.3996 12.4363H4.14665C2.62266 12.4363 1.38574 13.6306 1.38574 15.1022V21.334C1.38574 22.8056 2.62266 23.9999 4.14665 23.9999H21.3996V23.3155Z" fill="#D9D9D9"/>
<path d="M23.2852 13.1207V12.4362H2.71483C2.35333 12.4362 2.03435 12.2959 1.79689 12.07C1.56298 11.8408 1.41767 11.5328 1.41767 11.1837V9.20565C1.41767 8.85658 1.56298 8.54858 1.79689 8.31929C2.03435 8.09 2.35333 7.95311 2.71483 7.95311H23.2852C23.6467 7.95311 23.9656 8.09343 24.2031 8.31929C24.4406 8.54858 24.5823 8.85658 24.5823 9.20565V11.1871C24.5823 11.5362 24.437 11.8442 24.2031 12.0735C23.9656 12.3028 23.6467 12.4396 23.2852 12.4396V13.1207V13.8051C24.7844 13.8051 26 12.6313 26 11.1837V9.20565C26 7.75805 24.7844 6.58423 23.2852 6.58423H2.71483C1.21565 6.58423 0 7.75463 0 9.20565V11.1871C0 12.6347 1.21565 13.8085 2.71483 13.8085H23.2852V13.1207Z" fill="#D9D9D9"/>
<path d="M12.6382 6.49875L13.347 6.51244L13.3825 4.6268V4.54466C13.3825 3.31609 12.8615 2.18676 12.0251 1.36885C11.1887 0.550939 10.0226 0.0307617 8.73609 0.0307617C8.64748 0.0307617 8.55888 0.0341839 8.46673 0.0376061H8.47028C7.63385 0.0855172 6.79743 0.434583 6.1453 1.05058C5.48963 1.66316 5.02889 2.55294 4.96864 3.62751C4.96155 3.73018 4.95801 3.82942 4.95801 3.92867C4.95801 4.62338 5.10686 5.23595 5.39394 5.73902C5.60659 6.11546 5.89367 6.43031 6.21973 6.67671C6.70883 7.0463 7.27589 7.26875 7.85359 7.40222C8.43129 7.53568 9.02671 7.58017 9.59378 7.58017C11.295 7.57675 12.7906 7.1695 12.8225 7.16266L13.3329 7.02577L13.3435 6.51586L12.6382 6.49875L12.4468 5.83826C12.3937 5.85537 11.015 6.20786 9.59732 6.20444C9.16493 6.20444 8.729 6.17364 8.33205 6.09493C7.73309 5.97857 7.244 5.76297 6.92148 5.44129C6.75844 5.28044 6.62731 5.09222 6.53162 4.84924C6.43947 4.60969 6.37922 4.30853 6.37922 3.92524C6.37922 3.85338 6.38276 3.77809 6.38631 3.69938C6.43238 2.95676 6.73009 2.41605 7.13767 2.02591C7.54525 1.6392 8.07687 1.42703 8.55534 1.39965H8.55888C8.61559 1.39623 8.67584 1.3928 8.73963 1.3928C9.62922 1.3928 10.4302 1.74871 11.0185 2.32365C11.6069 2.89858 11.9648 3.68569 11.9648 4.53782V4.596L11.9294 6.48164L12.6382 6.49875Z" fill="#D9D9D9"/>
<path d="M13.3683 6.47141L14.0771 6.45772L14.0417 4.57208V4.56866V4.5139C14.0417 3.66177 14.4032 2.87466 14.988 2.29973C15.5763 1.7248 16.3773 1.36889 17.2669 1.36889C17.3271 1.36889 17.3874 1.36889 17.4476 1.37573H17.4547C17.9332 1.39969 18.4648 1.61529 18.8724 2.002C19.28 2.38871 19.5777 2.93284 19.6238 3.67546C19.6273 3.75417 19.6308 3.82604 19.6308 3.90133C19.6308 4.41124 19.5245 4.77741 19.3686 5.05461C19.2516 5.26337 19.0992 5.42764 18.9114 5.57137C18.6314 5.78355 18.2592 5.94097 17.8233 6.04021C17.3909 6.13946 16.8983 6.18052 16.4127 6.18052C15.6826 6.18052 14.9596 6.08812 14.4245 5.99572C14.1586 5.94781 13.9389 5.90332 13.7865 5.8691C13.7121 5.85199 13.6518 5.8383 13.6128 5.82803L13.5703 5.81777L13.5597 5.81435L13.3683 6.47141L13.1769 7.1319C13.2124 7.13874 14.708 7.54599 16.4056 7.54941C16.9125 7.54941 17.437 7.51176 17.9509 7.41252C18.7235 7.26194 19.4926 6.96079 20.088 6.37901C20.3857 6.08812 20.6303 5.72879 20.7933 5.31128C20.9564 4.89377 21.0414 4.4215 21.0414 3.8979C21.0414 3.79866 21.0379 3.69942 21.0343 3.59675C20.9741 2.5256 20.5133 1.6324 19.8577 1.01982C19.202 0.407244 18.3691 0.0547555 17.5327 0.00684443H17.5398C17.4476 0.00342222 17.3555 0 17.2669 0C15.9803 0 14.8143 0.520177 13.9779 1.33809C13.1415 2.156 12.624 3.28533 12.624 4.5139V4.59946V4.59604L12.6701 6.99159L13.1805 7.12848L13.3683 6.47141Z" fill="#D9D9D9"/>
<path d="M14.2507 7.9668H11.4756V12.4225H14.2507V7.9668Z" fill="#D9D9D9"/>
<path d="M14.3112 13.7334H11.5361V22.6893H14.3112V13.7334Z" fill="#D9D9D9"/>
</g>
<defs>
<clipPath id="clip0_1043_2786">
<rect width="26" height="24" fill="white"/>
</clipPath>
</defs>
</svg>
