<svg width="24" height="24" viewBox="0 0 24 24" fill="none" xmlns="http://www.w3.org/2000/svg">
<g clip-path="url(#clip0_1043_2779)">
<path d="M20.115 22.3918V21.5779H3.97426C3.01379 21.5779 2.2324 20.7965 2.2324 19.836V13.536C2.2324 12.5756 3.01379 11.8023 3.97426 11.7942H20.115C21.0754 11.7942 21.8487 12.5756 21.8568 13.536V19.836C21.8568 20.7965 21.0754 21.5697 20.115 21.5779V22.3918V23.2058C21.9708 23.2058 23.4847 21.7 23.4847 19.836V13.536C23.4847 11.6721 21.9789 10.1663 20.115 10.1663H3.97426C2.11031 10.1663 0.604492 11.6721 0.604492 13.536V19.836C0.604492 21.6918 2.11031 23.2058 3.97426 23.2058H20.115V22.3918Z" fill="#D9D9D9"/>
<path d="M3.42944 10.8501V8.22912C3.42944 7.83029 3.62479 7.44773 4.00735 7.12215C4.3899 6.80471 4.95967 6.58494 5.61084 6.58494H18.4632C19.1062 6.58494 19.6841 6.80471 20.0666 7.12215C20.4573 7.44773 20.6446 7.83029 20.6446 8.22912V11.1919H22.2725V8.22912C22.2725 7.2768 21.7922 6.43029 21.0922 5.86052C20.3922 5.29075 19.4643 4.95703 18.455 4.95703H5.61084C4.60967 4.96517 3.68177 5.29075 2.98177 5.86052C2.28177 6.43029 1.80153 7.26866 1.80967 8.22912V10.8501H3.42944Z" fill="#D9D9D9"/>
<path d="M4.63377 6.18605V3.8093C4.63377 2.60465 5.61051 1.62791 6.81516 1.62791H17.3152C18.5198 1.62791 19.4966 2.60465 19.4966 3.8093V6.14535H21.1245V3.8093C21.1245 1.70116 19.4152 0 17.3152 0H6.81516C4.70702 0 3.00586 1.7093 3.00586 3.8093V6.18605H4.63377Z" fill="#D9D9D9"/>
</g>
<defs>
<clipPath id="clip0_1043_2779">
<rect width="22.8721" height="23.2058" fill="white" transform="translate(0.604492)"/>
</clipPath>
</defs>
</svg>
