<svg width="39" height="39" viewBox="0 0 39 39" fill="none" xmlns="http://www.w3.org/2000/svg">
<path d="M24.1607 34.2074C24.1144 33.0083 24.2766 31.8036 24.0634 30.61C23.9364 29.899 23.6666 29.2528 23.2133 28.686C23.1298 28.5816 22.9629 28.4863 23.0278 28.3421C23.0955 28.1905 23.2902 28.2034 23.4385 28.1849C24.221 28.0851 24.9923 27.9344 25.7506 27.7171C29.1706 26.738 31.2221 24.2741 31.5689 20.7322C31.6912 19.4868 31.7608 18.2461 31.4928 17.0081C31.2435 15.8561 30.7456 14.8234 29.9864 13.9239C29.7815 13.6816 29.737 13.469 29.8269 13.1713C30.2524 11.766 30.1328 10.3764 29.7083 8.98864C29.571 8.54117 29.3096 8.41635 28.8795 8.4709C27.3822 8.66136 26.0853 9.33627 24.8523 10.1443C24.4546 10.405 24.1032 10.4605 23.6453 10.3514C20.8483 9.6876 18.044 9.70054 15.2479 10.3579C14.8002 10.4633 14.4581 10.3976 14.0798 10.1526C12.8302 9.3409 11.5267 8.65211 10.0073 8.47275C9.57803 8.4219 9.34348 8.53932 9.2174 8.96276C8.79373 10.381 8.68062 11.803 9.10707 13.2388C9.17475 13.4681 9.16548 13.6465 9.00881 13.8351C7.3503 15.8275 7.01469 18.1453 7.34566 20.624C7.51809 21.9156 7.82588 23.1665 8.49429 24.3046C9.67629 26.3164 11.5304 27.3519 13.7294 27.8798C14.3144 28.0204 14.9058 28.1313 15.5066 28.196C15.9432 28.2432 15.9775 28.3301 15.7115 28.6537C15.2479 29.2186 14.993 29.8759 14.8641 30.5795C14.8085 30.8818 14.6574 31.027 14.3895 31.1324C12.2137 31.9885 10.3076 31.3506 9.07927 29.3609C8.4637 28.3643 7.63769 27.6394 6.439 27.4268C6.39357 27.4185 6.34814 27.4037 6.30271 27.4009C5.97639 27.3806 5.56848 27.3353 5.43498 27.6616C5.29221 28.0093 5.68436 28.1932 5.93189 28.3412C6.9739 28.9652 7.65901 29.8879 8.08639 30.9835C8.84287 32.9251 10.3558 33.6804 12.3082 33.8034C12.9433 33.8431 13.5764 33.783 14.1957 33.6471C14.6305 33.5519 14.739 33.7081 14.7334 34.114C14.7195 35.0691 14.739 36.0241 14.7418 36.9792C14.7445 38.0526 14.1401 38.4816 13.1055 38.1284C11.1587 37.4636 9.36943 36.4984 7.75264 35.2336C3.47332 31.8877 0.916485 27.5202 0.281448 22.1384C-0.383256 16.5043 1.12692 11.4461 4.83054 7.10812C7.96122 3.44139 11.955 1.25114 16.7322 0.561436C21.1663 -0.0792727 25.3613 0.722306 29.2058 3.02719C34.4085 6.14567 37.5651 10.7342 38.5228 16.7058C39.9476 25.5907 35.2131 33.9938 27.2562 37.5413C26.7491 37.7669 26.2345 37.9842 25.707 38.1534C24.742 38.4621 24.1616 38.0276 24.157 37.0273C24.1542 36.5493 24.1598 36.0722 24.1607 35.5942C24.1616 35.1319 24.1607 34.6697 24.1607 34.2074Z" fill="#4F4F52"/>
</svg>
