<svg width="138" height="136" viewBox="0 0 138 136" fill="none" xmlns="http://www.w3.org/2000/svg">
<g filter="url(#filter0_b_678_5949)">
<path d="M2.5 96.8471C2.5 107.355 9.4752 116.585 19.5834 119.454L62.5834 131.659C66.7783 132.85 71.2217 132.85 75.4166 131.659L118.417 119.454C128.525 116.585 135.5 107.355 135.5 96.8471V38.8286C135.5 28.4303 128.666 19.2682 118.7 16.3038L75.6996 3.5143C71.3278 2.214 66.6722 2.214 62.3004 3.5143L19.3004 16.3038C9.33366 19.2682 2.5 28.4303 2.5 38.8286V96.8471Z" stroke="url(#paint0_linear_678_5949)"/>
</g>
<g filter="url(#filter1_f_678_5949)">
<path d="M5.5 94.7033C5.5 105.212 12.4763 114.443 22.5855 117.311L62.5855 128.66C66.779 129.85 71.2209 129.85 75.4145 128.66L115.415 117.311C125.524 114.443 132.5 105.212 132.5 94.7033V40.9314C132.5 30.5322 125.665 21.3697 115.697 18.406L75.6974 6.51293C71.327 5.21351 66.673 5.21351 62.3026 6.51293L22.3026 18.406C12.3347 21.3697 5.5 30.5322 5.5 40.9314V94.7033Z" stroke="url(#paint1_linear_678_5949)"/>
</g>
<g clip-path="url(#clip0_678_5949)">
<path opacity="0.5" d="M70.6355 35.5536L70.8124 54.9799C70.8166 55.335 70.9725 55.6859 71.2758 55.872C72.5016 56.616 73.2178 58.1169 72.767 59.7318C72.4595 60.8268 71.5622 61.7104 70.467 62.0021C68.2132 62.6067 66.1827 60.9198 66.1827 58.7552C66.1827 57.7279 66.6377 56.8147 67.3581 56.1933C67.5518 56.0242 67.6824 55.7959 67.6824 55.5337V35.8073C67.6824 35.6466 67.4634 35.5916 67.3918 35.7396L56.5991 57.4912C56.3842 57.9266 56.4137 58.4424 56.6833 58.8483L61.0855 65.528H77.8264L81.9969 58.8779C82.2622 58.4551 82.2875 57.9224 82.06 57.4743L70.8545 35.4986C70.7998 35.3929 70.6355 35.431 70.6355 35.5536Z" fill="url(#paint2_linear_678_5949)"/>
<path d="M76.676 76H62.0246C61.8476 76 61.7002 75.8563 61.7002 75.6745V68.0731C61.7002 67.8955 61.8434 67.7476 62.0246 67.7476H76.676C76.8529 67.7476 77.0004 67.8913 77.0004 68.0731V75.6787C77.0004 75.8563 76.8529 76 76.676 76Z" fill="url(#paint3_linear_678_5949)"/>
<path d="M48.9404 35.5366C48.9404 35.5366 54.3031 52.1008 69.1567 52.811C84.0103 53.5213 89.4909 37.1939 89.4909 37.1939" stroke="white" stroke-width="0.75" stroke-miterlimit="10"/>
<path d="M51.9486 37.4896L47.7992 39.0665C47.7107 39.1003 47.6138 39.0538 47.5801 38.9692L46.013 34.805C45.9793 34.7162 46.0257 34.6189 46.1099 34.5851L50.2593 33.0082C50.3478 32.9744 50.4447 33.0209 50.4784 33.1054L52.0497 37.2697C52.0834 37.3627 52.037 37.46 51.9486 37.4896Z" fill="url(#paint4_linear_678_5949)"/>
<path d="M91.1254 39.3838L87.0602 37.7815C86.9549 37.7392 86.9044 37.6209 86.9465 37.5152L88.5431 33.4354C88.5852 33.3297 88.7031 33.279 88.8085 33.3213L92.8736 34.9236C92.9789 34.9659 93.0295 35.0842 92.9874 35.1899L91.3908 39.2697C91.3487 39.3711 91.2307 39.4219 91.1254 39.3838Z" fill="url(#paint5_linear_678_5949)"/>
</g>
<path d="M23.47 95.07C23.1993 94.5007 22.8073 94.062 22.294 93.754C21.7807 93.4367 21.1833 93.278 20.502 93.278C19.8207 93.278 19.2047 93.4367 18.654 93.754C18.1127 94.062 17.6833 94.51 17.366 95.098C17.058 95.6767 16.904 96.3487 16.904 97.114C16.904 97.8793 17.058 98.5513 17.366 99.13C17.6833 99.7087 18.1127 100.157 18.654 100.474C19.2047 100.782 19.8207 100.936 20.502 100.936C21.454 100.936 22.238 100.651 22.854 100.082C23.47 99.5127 23.8293 98.7427 23.932 97.772H20.04V96.736H25.29V97.716C25.2153 98.5187 24.9633 99.256 24.534 99.928C24.1047 100.591 23.54 101.118 22.84 101.51C22.14 101.893 21.3607 102.084 20.502 102.084C19.5967 102.084 18.7707 101.874 18.024 101.454C17.2773 101.025 16.6847 100.432 16.246 99.676C15.8167 98.92 15.602 98.066 15.602 97.114C15.602 96.162 15.8167 95.308 16.246 94.552C16.6847 93.7867 17.2773 93.194 18.024 92.774C18.7707 92.3447 19.5967 92.13 20.502 92.13C21.538 92.13 22.4527 92.3867 23.246 92.9C24.0487 93.4133 24.632 94.1367 24.996 95.07H23.47ZM28.2485 95.574C28.4725 95.1353 28.7898 94.7947 29.2005 94.552C29.6205 94.3093 30.1292 94.188 30.7265 94.188V95.504H30.3905C28.9625 95.504 28.2485 96.2787 28.2485 97.828V102H26.9745V94.328H28.2485V95.574ZM31.7211 98.136C31.7211 97.352 31.8798 96.666 32.1971 96.078C32.5145 95.4807 32.9485 95.0187 33.4991 94.692C34.0591 94.3653 34.6798 94.202 35.3611 94.202C36.0331 94.202 36.6165 94.3467 37.1111 94.636C37.6058 94.9253 37.9745 95.2893 38.2171 95.728V94.328H39.5051V102H38.2171V100.572C37.9651 101.02 37.5871 101.393 37.0831 101.692C36.5885 101.981 36.0098 102.126 35.3471 102.126C34.6658 102.126 34.0498 101.958 33.4991 101.622C32.9485 101.286 32.5145 100.815 32.1971 100.208C31.8798 99.6013 31.7211 98.9107 31.7211 98.136ZM38.2171 98.15C38.2171 97.5713 38.1005 97.0673 37.8671 96.638C37.6338 96.2087 37.3165 95.882 36.9151 95.658C36.5231 95.4247 36.0891 95.308 35.6131 95.308C35.1371 95.308 34.7031 95.42 34.3111 95.644C33.9191 95.868 33.6065 96.1947 33.3731 96.624C33.1398 97.0533 33.0231 97.5573 33.0231 98.136C33.0231 98.724 33.1398 99.2373 33.3731 99.676C33.6065 100.105 33.9191 100.437 34.3111 100.67C34.7031 100.894 35.1371 101.006 35.6131 101.006C36.0891 101.006 36.5231 100.894 36.9151 100.67C37.3165 100.437 37.6338 100.105 37.8671 99.676C38.1005 99.2373 38.2171 98.7287 38.2171 98.15ZM42.9321 95.742C43.1841 95.3033 43.5574 94.9393 44.0521 94.65C44.5561 94.3513 45.1394 94.202 45.8021 94.202C46.4834 94.202 47.0994 94.3653 47.6501 94.692C48.2101 95.0187 48.6487 95.4807 48.9661 96.078C49.2834 96.666 49.4421 97.352 49.4421 98.136C49.4421 98.9107 49.2834 99.6013 48.9661 100.208C48.6487 100.815 48.2101 101.286 47.6501 101.622C47.0994 101.958 46.4834 102.126 45.8021 102.126C45.1487 102.126 44.5701 101.981 44.0661 101.692C43.5714 101.393 43.1934 101.025 42.9321 100.586V105.64H41.6581V94.328H42.9321V95.742ZM48.1401 98.136C48.1401 97.5573 48.0234 97.0533 47.7901 96.624C47.5567 96.1947 47.2394 95.868 46.8381 95.644C46.4461 95.42 46.0121 95.308 45.5361 95.308C45.0694 95.308 44.6354 95.4247 44.2341 95.658C43.8421 95.882 43.5247 96.2133 43.2821 96.652C43.0487 97.0813 42.9321 97.5807 42.9321 98.15C42.9321 98.7287 43.0487 99.2373 43.2821 99.676C43.5247 100.105 43.8421 100.437 44.2341 100.67C44.6354 100.894 45.0694 101.006 45.5361 101.006C46.0121 101.006 46.4461 100.894 46.8381 100.67C47.2394 100.437 47.5567 100.105 47.7901 99.676C48.0234 99.2373 48.1401 98.724 48.1401 98.136ZM54.927 94.188C55.5057 94.188 56.0283 94.314 56.495 94.566C56.9617 94.8087 57.3257 95.1773 57.587 95.672C57.8577 96.1667 57.993 96.7687 57.993 97.478V102H56.733V97.66C56.733 96.8947 56.5417 96.3113 56.159 95.91C55.7763 95.4993 55.2537 95.294 54.591 95.294C53.919 95.294 53.3823 95.504 52.981 95.924C52.589 96.344 52.393 96.9553 52.393 97.758V102H51.119V91.64H52.393V95.42C52.645 95.028 52.9903 94.7247 53.429 94.51C53.877 94.2953 54.3763 94.188 54.927 94.188ZM60.7321 93.082C60.4894 93.082 60.2841 92.998 60.1161 92.83C59.9481 92.662 59.8641 92.4567 59.8641 92.214C59.8641 91.9713 59.9481 91.766 60.1161 91.598C60.2841 91.43 60.4894 91.346 60.7321 91.346C60.9654 91.346 61.1614 91.43 61.3201 91.598C61.4881 91.766 61.5721 91.9713 61.5721 92.214C61.5721 92.4567 61.4881 92.662 61.3201 92.83C61.1614 92.998 60.9654 93.082 60.7321 93.082ZM61.3481 94.328V102H60.0741V94.328H61.3481ZM63.0434 98.15C63.0434 97.3567 63.2021 96.666 63.5194 96.078C63.8367 95.4807 64.2754 95.0187 64.8354 94.692C65.4047 94.3653 66.0534 94.202 66.7814 94.202C67.7241 94.202 68.4987 94.4307 69.1054 94.888C69.7214 95.3453 70.1274 95.98 70.3234 96.792H68.9514C68.8207 96.3253 68.5641 95.9567 68.1814 95.686C67.8081 95.4153 67.3414 95.28 66.7814 95.28C66.0534 95.28 65.4654 95.532 65.0174 96.036C64.5694 96.5307 64.3454 97.2353 64.3454 98.15C64.3454 99.074 64.5694 99.788 65.0174 100.292C65.4654 100.796 66.0534 101.048 66.7814 101.048C67.3414 101.048 67.8081 100.917 68.1814 100.656C68.5547 100.395 68.8114 100.021 68.9514 99.536H70.3234C70.1181 100.32 69.7074 100.95 69.0914 101.426C68.4754 101.893 67.7054 102.126 66.7814 102.126C66.0534 102.126 65.4047 101.963 64.8354 101.636C64.2754 101.309 63.8367 100.847 63.5194 100.25C63.2021 99.6527 63.0434 98.9527 63.0434 98.15ZM78.7937 92.242C79.8577 92.242 80.7771 92.4427 81.5517 92.844C82.3357 93.236 82.9331 93.8007 83.3437 94.538C83.7637 95.2753 83.9737 96.1433 83.9737 97.142C83.9737 98.1407 83.7637 99.0087 83.3437 99.746C82.9331 100.474 82.3357 101.034 81.5517 101.426C80.7771 101.809 79.8577 102 78.7937 102H75.7557V92.242H78.7937ZM78.7937 100.95C80.0537 100.95 81.0151 100.619 81.6777 99.956C82.3404 99.284 82.6717 98.346 82.6717 97.142C82.6717 95.9287 82.3357 94.9813 81.6637 94.3C81.0011 93.6187 80.0444 93.278 78.7937 93.278H77.0297V100.95H78.7937ZM92.6542 97.87C92.6542 98.1127 92.6402 98.3693 92.6122 98.64H86.4802C86.5268 99.396 86.7835 99.9887 87.2502 100.418C87.7262 100.838 88.3002 101.048 88.9722 101.048C89.5228 101.048 89.9802 100.922 90.3442 100.67C90.7175 100.409 90.9788 100.063 91.1282 99.634H92.5002C92.2948 100.371 91.8842 100.973 91.2682 101.44C90.6522 101.897 89.8868 102.126 88.9722 102.126C88.2442 102.126 87.5908 101.963 87.0122 101.636C86.4428 101.309 85.9948 100.847 85.6682 100.25C85.3415 99.6433 85.1782 98.9433 85.1782 98.15C85.1782 97.3567 85.3368 96.6613 85.6542 96.064C85.9715 95.4667 86.4148 95.0093 86.9842 94.692C87.5628 94.3653 88.2255 94.202 88.9722 94.202C89.7002 94.202 90.3442 94.3607 90.9042 94.678C91.4642 94.9953 91.8935 95.434 92.1922 95.994C92.5002 96.5447 92.6542 97.17 92.6542 97.87ZM91.3382 97.604C91.3382 97.1187 91.2308 96.7033 91.0162 96.358C90.8015 96.0033 90.5075 95.7373 90.1342 95.56C89.7702 95.3733 89.3642 95.28 88.9162 95.28C88.2722 95.28 87.7215 95.4853 87.2642 95.896C86.8162 96.3067 86.5595 96.876 86.4942 97.604H91.3382ZM97.0518 102.126C96.4638 102.126 95.9365 102.028 95.4698 101.832C95.0031 101.627 94.6345 101.347 94.3638 100.992C94.0931 100.628 93.9438 100.213 93.9158 99.746H95.2318C95.2691 100.129 95.4465 100.441 95.7638 100.684C96.0905 100.927 96.5151 101.048 97.0378 101.048C97.5231 101.048 97.9058 100.941 98.1858 100.726C98.4658 100.511 98.6058 100.241 98.6058 99.914C98.6058 99.578 98.4565 99.3307 98.1578 99.172C97.8591 99.004 97.3971 98.8407 96.7718 98.682C96.2025 98.5327 95.7358 98.3833 95.3718 98.234C95.0171 98.0753 94.7091 97.8467 94.4478 97.548C94.1958 97.24 94.0698 96.8387 94.0698 96.344C94.0698 95.952 94.1865 95.5927 94.4198 95.266C94.6531 94.9393 94.9845 94.6827 95.4138 94.496C95.8431 94.3 96.3331 94.202 96.8838 94.202C97.7331 94.202 98.4191 94.4167 98.9418 94.846C99.4645 95.2753 99.7445 95.8633 99.7818 96.61H98.5078C98.4798 96.2087 98.3165 95.8867 98.0178 95.644C97.7285 95.4013 97.3365 95.28 96.8418 95.28C96.3845 95.28 96.0205 95.378 95.7498 95.574C95.4791 95.77 95.3438 96.0267 95.3438 96.344C95.3438 96.596 95.4231 96.806 95.5818 96.974C95.7498 97.1327 95.9551 97.2633 96.1978 97.366C96.4498 97.4593 96.7951 97.5667 97.2338 97.688C97.7845 97.8373 98.2325 97.9867 98.5778 98.136C98.9231 98.276 99.2171 98.4907 99.4598 98.78C99.7118 99.0693 99.8425 99.4473 99.8518 99.914C99.8518 100.334 99.7351 100.712 99.5018 101.048C99.2685 101.384 98.9371 101.65 98.5078 101.846C98.0878 102.033 97.6025 102.126 97.0518 102.126ZM102.308 93.082C102.066 93.082 101.86 92.998 101.692 92.83C101.524 92.662 101.44 92.4567 101.44 92.214C101.44 91.9713 101.524 91.766 101.692 91.598C101.86 91.43 102.066 91.346 102.308 91.346C102.542 91.346 102.738 91.43 102.896 91.598C103.064 91.766 103.148 91.9713 103.148 92.214C103.148 92.4567 103.064 92.662 102.896 92.83C102.738 92.998 102.542 93.082 102.308 93.082ZM102.924 94.328V102H101.65V94.328H102.924ZM108.26 94.202C108.922 94.202 109.501 94.3467 109.996 94.636C110.5 94.9253 110.873 95.2893 111.116 95.728V94.328H112.404V102.168C112.404 102.868 112.254 103.489 111.956 104.03C111.657 104.581 111.228 105.01 110.668 105.318C110.117 105.626 109.473 105.78 108.736 105.78C107.728 105.78 106.888 105.542 106.216 105.066C105.544 104.59 105.147 103.941 105.026 103.12H106.286C106.426 103.587 106.715 103.96 107.154 104.24C107.592 104.529 108.12 104.674 108.736 104.674C109.436 104.674 110.005 104.455 110.444 104.016C110.892 103.577 111.116 102.961 111.116 102.168V100.558C110.864 101.006 110.49 101.379 109.996 101.678C109.501 101.977 108.922 102.126 108.26 102.126C107.578 102.126 106.958 101.958 106.398 101.622C105.847 101.286 105.413 100.815 105.096 100.208C104.778 99.6013 104.62 98.9107 104.62 98.136C104.62 97.352 104.778 96.666 105.096 96.078C105.413 95.4807 105.847 95.0187 106.398 94.692C106.958 94.3653 107.578 94.202 108.26 94.202ZM111.116 98.15C111.116 97.5713 110.999 97.0673 110.766 96.638C110.532 96.2087 110.215 95.882 109.814 95.658C109.422 95.4247 108.988 95.308 108.512 95.308C108.036 95.308 107.602 95.42 107.21 95.644C106.818 95.868 106.505 96.1947 106.272 96.624C106.038 97.0533 105.922 97.5573 105.922 98.136C105.922 98.724 106.038 99.2373 106.272 99.676C106.505 100.105 106.818 100.437 107.21 100.67C107.602 100.894 108.036 101.006 108.512 101.006C108.988 101.006 109.422 100.894 109.814 100.67C110.215 100.437 110.532 100.105 110.766 99.676C110.999 99.2373 111.116 98.7287 111.116 98.15ZM118.295 94.188C119.228 94.188 119.984 94.4727 120.563 95.042C121.141 95.602 121.431 96.414 121.431 97.478V102H120.171V97.66C120.171 96.8947 119.979 96.3113 119.597 95.91C119.214 95.4993 118.691 95.294 118.029 95.294C117.357 95.294 116.82 95.504 116.419 95.924C116.027 96.344 115.831 96.9553 115.831 97.758V102H114.557V94.328H115.831V95.42C116.083 95.028 116.423 94.7247 116.853 94.51C117.291 94.2953 117.772 94.188 118.295 94.188Z" fill="#979292"/>
<defs>
<filter id="filter0_b_678_5949" x="-1.4268" y="-1.38773" width="140.854" height="137.867" filterUnits="userSpaceOnUse" color-interpolation-filters="sRGB">
<feFlood flood-opacity="0" result="BackgroundImageFix"/>
<feGaussianBlur in="BackgroundImageFix" stdDeviation="1.7134"/>
<feComposite in2="SourceAlpha" operator="in" result="effect1_backgroundBlur_678_5949"/>
<feBlend mode="normal" in="SourceGraphic" in2="effect1_backgroundBlur_678_5949" result="shape"/>
</filter>
<filter id="filter1_f_678_5949" x="0" y="0.0383301" width="138" height="135.014" filterUnits="userSpaceOnUse" color-interpolation-filters="sRGB">
<feFlood flood-opacity="0" result="BackgroundImageFix"/>
<feBlend mode="normal" in="SourceGraphic" in2="BackgroundImageFix" result="shape"/>
<feGaussianBlur stdDeviation="2.5" result="effect1_foregroundBlur_678_5949"/>
</filter>
<linearGradient id="paint0_linear_678_5949" x1="133" y1="14.5" x2="69" y2="134" gradientUnits="userSpaceOnUse">
<stop stop-color="#454343"/>
<stop offset="0.404952" stop-color="#4D4C4C" stop-opacity="0.2"/>
<stop offset="1" stop-color="#3C3A3A" stop-opacity="0.2"/>
</linearGradient>
<linearGradient id="paint1_linear_678_5949" x1="115.5" y1="15" x2="69" y2="131" gradientUnits="userSpaceOnUse">
<stop stop-color="#5E5C5C"/>
<stop offset="0.356744" stop-color="#908D8D" stop-opacity="0.1"/>
<stop offset="1" stop-color="#C4C0C0" stop-opacity="0.05"/>
</linearGradient>
<linearGradient id="paint2_linear_678_5949" x1="56.4567" y1="50.4835" x2="82.2108" y2="50.4835" gradientUnits="userSpaceOnUse">
<stop stop-color="#ABABAB"/>
<stop offset="0.9955" stop-color="#5F5F5F"/>
</linearGradient>
<linearGradient id="paint3_linear_678_5949" x1="61.7026" y1="71.8746" x2="76.9989" y2="71.8746" gradientUnits="userSpaceOnUse">
<stop stop-color="white"/>
<stop offset="0.9955" stop-color="#5C5C5C"/>
</linearGradient>
<linearGradient id="paint4_linear_678_5949" x1="46.0004" y1="36.0402" x2="52.0595" y2="36.0402" gradientUnits="userSpaceOnUse">
<stop stop-color="#ABABAB"/>
<stop offset="0.9955" stop-color="#5F5F5F"/>
</linearGradient>
<linearGradient id="paint5_linear_678_5949" x1="86.9324" y1="36.351" x2="93.0016" y2="36.351" gradientUnits="userSpaceOnUse">
<stop stop-color="#ABABAB"/>
<stop offset="0.9955" stop-color="#5F5F5F"/>
</linearGradient>
<clipPath id="clip0_678_5949">
<rect width="47" height="43" fill="white" transform="translate(46 33)"/>
</clipPath>
</defs>
</svg>
