<svg width="25" height="25" viewBox="0 0 25 25" fill="none" xmlns="http://www.w3.org/2000/svg">
<g clip-path="url(#clip0_1043_2796)">
<path d="M0.867754 10.5259H0V21.1732C0 23.2905 1.70948 25.0087 3.8268 25.0087H21.1732C23.2905 25.0087 25 23.2905 25 21.1732V10.656C25 9.44984 24.4273 8.30441 23.4641 7.58417L14.3093 0.763624C13.6324 0.251649 12.8254 0 12.0184 0C11.1593 0 10.3002 0.286359 9.59736 0.859077L1.40576 7.55814C0.520653 8.27838 0 9.37175 0 10.5259H0.867754H1.73551C1.73551 9.8924 2.02187 9.30233 2.50781 8.90316L10.6994 2.21277C11.0812 1.8917 11.5498 1.73551 12.0184 1.73551C12.461 1.73551 12.8948 1.87435 13.268 2.15203L22.4141 8.98126C22.9434 9.38042 23.2558 9.99653 23.2558 10.6647V21.1732C23.2558 22.3273 22.3186 23.2645 21.1645 23.2732H3.8268C2.67268 23.2645 1.73551 22.3273 1.73551 21.1645V10.5259H0.867754Z" fill="#D9D9D9"/>
<path d="M14.7084 13.0508L13.5977 14.1355C13.5022 14.231 13.3374 14.205 13.2679 14.0922L12.539 12.7992L12.3742 12.7037V12.6951H12.3568H12.3395V12.7037L12.1746 12.7992L11.4457 14.0922C11.3762 14.2136 11.22 14.231 11.1159 14.1355L10.0052 13.0508C9.87503 12.9207 9.64941 13.0161 9.64941 13.1984V17.2161C9.64941 17.3289 9.74487 17.4243 9.85767 17.4243H12.3395H12.3828H14.8646C14.9774 17.4243 15.0729 17.3289 15.0729 17.2161V13.1984C15.0642 13.0161 14.8473 12.9207 14.7084 13.0508Z" fill="#D9D9D9"/>
</g>
<defs>
<clipPath id="clip0_1043_2796">
<rect width="25" height="25" fill="white"/>
</clipPath>
</defs>
</svg>
