<svg width="138" height="136" viewBox="0 0 138 136" fill="none" xmlns="http://www.w3.org/2000/svg">
<g filter="url(#filter0_b_1040_2593)">
<path d="M135.5 96.8471V38.8286C135.5 28.4303 128.666 19.2682 118.7 16.3038L75.6996 3.5143C71.3278 2.21402 66.6722 2.21402 62.3004 3.5143L19.3004 16.3038C9.33366 19.2682 2.5 28.4303 2.5 38.8286V96.8471C2.5 107.355 9.4752 116.585 19.5834 119.454L62.5834 131.659C66.7783 132.85 71.2217 132.85 75.4166 131.659L118.417 119.454C128.525 116.585 135.5 107.355 135.5 96.8471Z" stroke="url(#paint0_linear_1040_2593)"/>
</g>
<g filter="url(#filter1_f_1040_2593)">
<path d="M132.5 94.7033V40.9314C132.5 30.5322 125.665 21.3697 115.697 18.406L75.6974 6.51293C71.327 5.21351 66.673 5.21351 62.3026 6.51293L22.3026 18.406C12.3347 21.3697 5.5 30.5322 5.5 40.9314V94.7033C5.5 105.212 12.4763 114.443 22.5855 117.311L62.5855 128.66C66.7791 129.85 71.2209 129.85 75.4145 128.66L115.415 117.311C125.524 114.443 132.5 105.212 132.5 94.7033Z" stroke="url(#paint1_linear_1040_2593)"/>
</g>
<path opacity="0.5" d="M88.293 38.7258L86.1183 41.2979L82.5053 45.5732L57.6385 74.9506L52.1705 77.2238L50.3362 77.9815C50.1486 78.058 49.9541 77.8842 50.0097 77.6965L50.6002 75.6736L52.1079 70.5989L78.4269 39.2472L79.9207 37.4676L82.7763 34.0752C83.4919 33.2202 84.5202 32.7822 85.5416 32.7822C86.4657 32.7822 87.3828 33.1368 88.0984 33.8458C89.4255 35.1666 89.5089 37.2938 88.293 38.7258Z" fill="url(#paint2_linear_1040_2593)"/>
<path d="M88.2935 38.726L86.1188 41.298L80.3867 36.9324L82.7699 34.0684C83.4855 33.2133 84.5138 32.7754 85.5352 32.7754C86.4592 32.7754 87.3764 33.1299 88.092 33.839C89.426 35.1667 89.5094 37.2939 88.2935 38.726Z" fill="url(#paint3_linear_1040_2593)"/>
<path d="M52.1705 77.217L50.3362 77.9747C50.1486 78.0511 49.9541 77.8773 50.0097 77.6897L50.6002 75.6667C51.0588 76.1325 51.6216 76.6886 52.1705 77.217Z" fill="white"/>
<path d="M20.3965 98.0575V108H19.0984V98.0575H20.3965ZM23.9069 97.4441V108H22.6088V97.4441H23.9069ZM27.4174 97.4441V108H26.1193V97.4441H27.4174ZM36.5624 100.183V108H35.2643V106.845C35.017 107.244 34.6699 107.558 34.223 107.786C33.7855 108.005 33.3005 108.114 32.768 108.114C32.1593 108.114 31.6125 107.99 31.1275 107.743C30.6425 107.486 30.2574 107.106 29.9721 106.602C29.6963 106.098 29.5584 105.485 29.5584 104.762V100.183H30.8422V104.591C30.8422 105.361 31.0372 105.955 31.4271 106.374C31.817 106.783 32.3495 106.987 33.0247 106.987C33.7189 106.987 34.2657 106.773 34.6652 106.345C35.0646 105.917 35.2643 105.294 35.2643 104.477V100.183H36.5624ZM41.5215 108.128C40.9223 108.128 40.385 108.029 39.9095 107.829C39.4341 107.62 39.0584 107.334 38.7826 106.973C38.5069 106.602 38.3547 106.179 38.3262 105.703H39.667C39.7051 106.093 39.8858 106.412 40.2091 106.659C40.542 106.906 40.9746 107.03 41.5072 107.03C42.0017 107.03 42.3916 106.921 42.6769 106.702C42.9622 106.483 43.1048 106.207 43.1048 105.875C43.1048 105.532 42.9527 105.28 42.6484 105.119C42.3441 104.947 41.8733 104.781 41.2362 104.619C40.6561 104.467 40.1806 104.315 39.8097 104.163C39.4483 104.001 39.1345 103.768 38.8682 103.464C38.6115 103.15 38.4831 102.741 38.4831 102.237C38.4831 101.838 38.602 101.472 38.8397 101.139C39.0774 100.806 39.415 100.544 39.8525 100.354C40.2899 100.154 40.7892 100.055 41.3503 100.055C42.2157 100.055 42.9146 100.273 43.4472 100.711C43.9797 101.148 44.265 101.747 44.3031 102.508H43.005C42.9765 102.099 42.81 101.771 42.5057 101.524C42.2109 101.277 41.8115 101.153 41.3075 101.153C40.8415 101.153 40.4706 101.253 40.1948 101.453C39.9191 101.652 39.7812 101.914 39.7812 102.237C39.7812 102.494 39.862 102.708 40.0237 102.879C40.1948 103.041 40.4041 103.174 40.6513 103.278C40.9081 103.373 41.2599 103.483 41.7069 103.606C42.268 103.759 42.7244 103.911 43.0763 104.063C43.4282 104.206 43.7277 104.424 43.975 104.719C44.2317 105.014 44.3649 105.399 44.3744 105.875C44.3744 106.303 44.2555 106.688 44.0178 107.03C43.78 107.372 43.4424 107.643 43.005 107.843C42.577 108.033 42.0825 108.128 41.5215 108.128ZM47.7902 101.253V105.86C47.7902 106.241 47.8711 106.512 48.0327 106.673C48.1944 106.826 48.4749 106.902 48.8743 106.902H49.8301V108H48.6604C47.9376 108 47.3956 107.834 47.0342 107.501C46.6728 107.168 46.4921 106.621 46.4921 105.86V101.253H45.4794V100.183H46.4921V98.2144H47.7902V100.183H49.8301V101.253H47.7902ZM52.701 101.453C52.9292 101.006 53.2525 100.658 53.671 100.411C54.0989 100.164 54.6172 100.04 55.2258 100.04V101.381H54.8835C53.4285 101.381 52.701 102.17 52.701 103.749V108H51.4029V100.183H52.701V101.453ZM56.2393 104.063C56.2393 103.264 56.4009 102.565 56.7243 101.966C57.0476 101.357 57.4898 100.887 58.0509 100.554C58.6215 100.221 59.2539 100.055 59.9481 100.055C60.6328 100.055 61.2272 100.202 61.7312 100.497C62.2352 100.792 62.6108 101.162 62.8581 101.609V100.183H64.1704V108H62.8581V106.545C62.6013 107.001 62.2162 107.382 61.7026 107.686C61.1986 107.981 60.609 108.128 59.9338 108.128C59.2396 108.128 58.612 107.957 58.0509 107.615C57.4898 107.273 57.0476 106.792 56.7243 106.174C56.4009 105.556 56.2393 104.852 56.2393 104.063ZM62.8581 104.077C62.8581 103.488 62.7392 102.974 62.5015 102.537C62.2637 102.099 61.9404 101.766 61.5315 101.538C61.1321 101.3 60.6898 101.181 60.2048 101.181C59.7198 101.181 59.2776 101.296 58.8782 101.524C58.4788 101.752 58.1602 102.085 57.9225 102.522C57.6848 102.96 57.5659 103.473 57.5659 104.063C57.5659 104.662 57.6848 105.185 57.9225 105.632C58.1602 106.07 58.4788 106.407 58.8782 106.645C59.2776 106.873 59.7198 106.987 60.2048 106.987C60.6898 106.987 61.1321 106.873 61.5315 106.645C61.9404 106.407 62.2637 106.07 62.5015 105.632C62.7392 105.185 62.8581 104.667 62.8581 104.077ZM67.9475 101.253V105.86C67.9475 106.241 68.0283 106.512 68.19 106.673C68.3516 106.826 68.6322 106.902 69.0316 106.902H69.9873V108H68.8176C68.0949 108 67.5528 107.834 67.1914 107.501C66.8301 107.168 66.6494 106.621 66.6494 105.86V101.253H65.6366V100.183H66.6494V98.2144H67.9475V100.183H69.9873V101.253H67.9475ZM72.2305 98.9134C71.9833 98.9134 71.7741 98.8278 71.6029 98.6566C71.4317 98.4855 71.3461 98.2762 71.3461 98.029C71.3461 97.7817 71.4317 97.5725 71.6029 97.4013C71.7741 97.2302 71.9833 97.1446 72.2305 97.1446C72.4683 97.1446 72.668 97.2302 72.8296 97.4013C73.0008 97.5725 73.0864 97.7817 73.0864 98.029C73.0864 98.2762 73.0008 98.4855 72.8296 98.6566C72.668 98.8278 72.4683 98.9134 72.2305 98.9134ZM72.8582 100.183V108H71.5601V100.183H72.8582ZM78.4798 108.128C77.7476 108.128 77.0819 107.962 76.4827 107.629C75.8931 107.296 75.4272 106.826 75.0848 106.217C74.752 105.599 74.5855 104.886 74.5855 104.077C74.5855 103.278 74.7567 102.575 75.0991 101.966C75.4509 101.348 75.9264 100.877 76.5255 100.554C77.1247 100.221 77.7951 100.055 78.5369 100.055C79.2786 100.055 79.9491 100.221 80.5482 100.554C81.1473 100.877 81.618 101.343 81.9604 101.952C82.3122 102.56 82.4882 103.269 82.4882 104.077C82.4882 104.886 82.3075 105.599 81.9461 106.217C81.5943 106.826 81.114 107.296 80.5054 107.629C79.8968 107.962 79.2216 108.128 78.4798 108.128ZM78.4798 106.987C78.9458 106.987 79.3832 106.878 79.7922 106.659C80.2011 106.44 80.5292 106.112 80.7764 105.675C81.0332 105.237 81.1616 104.705 81.1616 104.077C81.1616 103.45 81.0379 102.917 80.7907 102.48C80.5434 102.042 80.2201 101.719 79.8207 101.51C79.4213 101.291 78.9886 101.181 78.5226 101.181C78.0471 101.181 77.6097 101.291 77.2102 101.51C76.8203 101.719 76.5065 102.042 76.2688 102.48C76.031 102.917 75.9122 103.45 75.9122 104.077C75.9122 104.714 76.0263 105.252 76.2545 105.689C76.4923 106.127 76.8061 106.455 77.196 106.673C77.5859 106.883 78.0138 106.987 78.4798 106.987ZM88.0036 100.04C88.9546 100.04 89.7249 100.33 90.3145 100.91C90.9041 101.481 91.1989 102.308 91.1989 103.393V108H89.9151V103.578C89.9151 102.798 89.7201 102.204 89.3302 101.795C88.9403 101.376 88.4078 101.167 87.7326 101.167C87.0479 101.167 86.501 101.381 86.0921 101.809C85.6927 102.237 85.493 102.86 85.493 103.678V108H84.1949V100.183H85.493V101.296C85.7498 100.896 86.0969 100.587 86.5343 100.368C86.9813 100.15 87.471 100.04 88.0036 100.04ZM98.1693 94.5627L94.2608 110.425H92.977L96.8712 94.5627H98.1693ZM105.98 105.789H101.644L100.845 108H99.4757L103.07 98.1146H104.568L108.149 108H106.779L105.98 105.789ZM105.61 104.733L103.812 99.7122L102.015 104.733H105.61ZM111.013 101.453C111.242 101.006 111.565 100.658 111.983 100.411C112.411 100.164 112.93 100.04 113.538 100.04V101.381H113.196C111.741 101.381 111.013 102.17 111.013 103.749V108H109.715V100.183H111.013V101.453ZM116.62 101.253V105.86C116.62 106.241 116.701 106.512 116.863 106.673C117.024 106.826 117.305 106.902 117.704 106.902H118.66V108H117.49C116.768 108 116.225 107.834 115.864 107.501C115.503 107.168 115.322 106.621 115.322 105.86V101.253H114.309V100.183H115.322V98.2144H116.62V100.183H118.66V101.253H116.62Z" fill="#979292"/>
<defs>
<filter id="filter0_b_1040_2593" x="-1.4268" y="-1.38773" width="140.854" height="137.867" filterUnits="userSpaceOnUse" color-interpolation-filters="sRGB">
<feFlood flood-opacity="0" result="BackgroundImageFix"/>
<feGaussianBlur in="BackgroundImageFix" stdDeviation="1.7134"/>
<feComposite in2="SourceAlpha" operator="in" result="effect1_backgroundBlur_1040_2593"/>
<feBlend mode="normal" in="SourceGraphic" in2="effect1_backgroundBlur_1040_2593" result="shape"/>
</filter>
<filter id="filter1_f_1040_2593" x="0" y="0.0383301" width="138" height="135.014" filterUnits="userSpaceOnUse" color-interpolation-filters="sRGB">
<feFlood flood-opacity="0" result="BackgroundImageFix"/>
<feBlend mode="normal" in="SourceGraphic" in2="BackgroundImageFix" result="shape"/>
<feGaussianBlur stdDeviation="2.5" result="effect1_foregroundBlur_1040_2593"/>
</filter>
<linearGradient id="paint0_linear_1040_2593" x1="133" y1="14.5" x2="69" y2="134" gradientUnits="userSpaceOnUse">
<stop stop-color="#454343"/>
<stop offset="0.404952" stop-color="#4D4C4C" stop-opacity="0.2"/>
<stop offset="1" stop-color="#3C3A3A" stop-opacity="0.2"/>
</linearGradient>
<linearGradient id="paint1_linear_1040_2593" x1="115.5" y1="15" x2="69" y2="131" gradientUnits="userSpaceOnUse">
<stop stop-color="#5E5C5C"/>
<stop offset="0.356744" stop-color="#908D8D" stop-opacity="0.1"/>
<stop offset="1" stop-color="#C4C0C0" stop-opacity="0.05"/>
</linearGradient>
<linearGradient id="paint2_linear_1040_2593" x1="49.9995" y1="55.3926" x2="89.1462" y2="55.3926" gradientUnits="userSpaceOnUse">
<stop stop-color="#ABABAB"/>
<stop offset="0.9955" stop-color="#5F5F5F"/>
</linearGradient>
<linearGradient id="paint3_linear_1040_2593" x1="80.3881" y1="37.0375" x2="89.1511" y2="37.0375" gradientUnits="userSpaceOnUse">
<stop stop-color="white"/>
<stop offset="0.9955" stop-color="#5C5C5C"/>
</linearGradient>
</defs>
</svg>
