<svg width="38" height="32" viewBox="0 0 38 32" fill="none" xmlns="http://www.w3.org/2000/svg">
<path d="M37.9047 18.4944V31.9291H30.2627V20.3095C30.2627 18.9793 30.031 18.0439 29.5718 17.4946C29.1084 16.9411 28.4605 16.6708 27.6281 16.6708C26.7055 16.6708 25.9589 17.0398 25.3839 17.7821C24.809 18.5245 24.5258 19.8589 24.5258 21.7812V31.9334H16.9224V10.7966H24.0023V14.2379C25.0578 12.8348 26.1306 11.8307 27.2162 11.2257C28.3017 10.6207 29.619 10.3203 31.1766 10.3203C33.2834 10.3203 34.9311 10.9897 36.1197 12.3199C37.3126 13.6586 37.909 15.7139 37.909 18.503L37.9047 18.4944Z" fill="#626366" fill-opacity="0.7"/>
<path d="M8.24637 10.7925H0.638672V31.9293H8.24637V10.7925Z" fill="#626366" fill-opacity="0.7"/>
<path d="M4.04976 8.411C6.19441 8.411 7.93296 6.67242 7.93296 4.52777C7.93296 2.38311 6.19441 0.644531 4.04976 0.644531C1.90511 0.644531 0.166504 2.38311 0.166504 4.52777C0.166504 6.67242 1.90511 8.411 4.04976 8.411Z" fill="#626366" fill-opacity="0.7"/>
</svg>
