<svg width="24" height="24" viewBox="0 0 24 24" fill="none" xmlns="http://www.w3.org/2000/svg">
<path d="M17.9223 0H6.07943C2.72198 0 0 2.72198 0 6.07943V17.9223C0 21.2797 2.72198 24.0017 6.07943 24.0017H17.9223C21.2797 24.0017 24.0017 21.2797 24.0017 17.9223V6.07943C24 2.72198 21.2797 0 17.9223 0ZM6.03696 5.60028C7.09041 5.42697 7.98754 6.3258 7.81423 7.37756C7.70889 8.01473 7.19575 8.52956 6.55688 8.6349C5.50343 8.80821 4.6063 7.90938 4.77961 6.85763C4.88496 6.22046 5.39979 5.70563 6.03696 5.60028ZM7.95696 17.9681H4.94612V9.5983H7.95865V17.9681H7.95696ZM19.7029 17.9681H16.6768V13.3669C16.6768 12.8402 16.5851 12.4698 16.4033 12.2523C16.2198 12.0331 15.9632 11.9261 15.6336 11.9261C15.2682 11.9261 14.9726 12.0722 14.7449 12.3662C14.5172 12.6601 14.4051 13.1885 14.4051 13.9497V17.9698H11.396V9.5983H14.1995V10.961C14.6175 10.4054 15.0423 10.0078 15.4721 9.76821C15.902 9.52864 16.4236 9.4097 17.0404 9.4097C17.8747 9.4097 18.5271 9.67476 18.9978 10.2015C19.4702 10.7316 19.7063 11.5455 19.7063 12.6499V17.9681H19.7029Z" fill="url(#paint0_linear_1139_1221)"/>
<defs>
<linearGradient id="paint0_linear_1139_1221" x1="11.4817" y1="13.1897" x2="15.522" y2="25.485" gradientUnits="userSpaceOnUse">
<stop stop-color="#8873FE"/>
<stop offset="1" stop-color="#73A2FE" stop-opacity="0.94"/>
</linearGradient>
</defs>
</svg>
