<svg width="10" height="10" viewBox="0 0 10 10" fill="none" xmlns="http://www.w3.org/2000/svg">
<path fill-rule="evenodd" clip-rule="evenodd" d="M5 10C7.76142 10 10 7.76142 10 5C10 2.23858 7.76142 0 5 0C2.23858 0 0 2.23858 0 5C0 7.76142 2.23858 10 5 10ZM7.43148 4.20223C7.68117 3.96389 7.69037 3.56827 7.45203 3.31858C7.21369 3.06889 6.81807 3.05969 6.56838 3.29803L4.24129 5.51935L3.17226 4.53941C2.91781 4.30616 2.52246 4.32335 2.28921 4.5778C2.05597 4.83225 2.07315 5.2276 2.3276 5.46085L3.54029 6.57248C3.9445 6.94301 4.56677 6.93673 4.96342 6.55811L7.43148 4.20223Z" fill="#D9D9D9"/>
</svg>
