<svg width="12" height="12" viewBox="0 0 12 12" fill="none" xmlns="http://www.w3.org/2000/svg">
<path id="Subtract" fill-rule="evenodd" clip-rule="evenodd" d="M6 12C9.31371 12 12 9.31371 12 6C12 2.68629 9.31371 0 6 0C2.68629 0 0 2.68629 0 6C0 9.31371 2.68629 12 6 12ZM8.91777 5.04267C9.2174 4.75667 9.22844 4.28192 8.94243 3.9823C8.65643 3.68267 8.18168 3.67163 7.88206 3.95764L5.08955 6.62322L3.80671 5.44729C3.50137 5.16739 3.02695 5.18802 2.74705 5.49336C2.46716 5.7987 2.48779 6.27313 2.79312 6.55302L4.24835 7.88698C4.73341 8.33161 5.48012 8.32407 5.9561 7.86973L8.91777 5.04267Z" fill="#D9D9D9"/>
</svg>
