<svg width="138" height="136" viewBox="0 0 138 136" fill="none" xmlns="http://www.w3.org/2000/svg">
<g filter="url(#filter0_b_1040_2618)">
<path d="M135.5 96.8471V38.8286C135.5 28.4303 128.666 19.2682 118.7 16.3038L75.6996 3.5143C71.3278 2.21402 66.6722 2.21402 62.3004 3.5143L19.3004 16.3038C9.33366 19.2682 2.5 28.4303 2.5 38.8286V96.8471C2.5 107.355 9.4752 116.585 19.5834 119.454L62.5834 131.659C66.7783 132.85 71.2217 132.85 75.4166 131.659L118.417 119.454C128.525 116.585 135.5 107.355 135.5 96.8471Z" stroke="url(#paint0_linear_1040_2618)"/>
</g>
<g filter="url(#filter1_f_1040_2618)">
<path d="M132.5 94.7033V40.9314C132.5 30.5322 125.665 21.3697 115.697 18.406L75.6974 6.51293C71.327 5.21351 66.673 5.21351 62.3026 6.51293L22.3026 18.406C12.3347 21.3697 5.5 30.5322 5.5 40.9314V94.7033C5.5 105.212 12.4763 114.443 22.5855 117.311L62.5855 128.66C66.7791 129.85 71.2209 129.85 75.4145 128.66L115.415 117.311C125.524 114.443 132.5 105.212 132.5 94.7033Z" stroke="url(#paint1_linear_1040_2618)"/>
</g>
<g clip-path="url(#clip0_1040_2618)">
<path opacity="0.5" d="M92.0577 67.8469C92.0577 70.43 92.0735 73.0048 92.0972 75.5879V75.6713C92.0972 77.2461 91.7102 78.7377 90.731 79.9959C89.5386 81.5375 87.9118 82.2541 86.0718 82.2791C85.4874 82.2874 84.911 82.2957 84.3345 82.2957C82.763 82.2957 81.1994 82.2791 79.6279 82.2707C72.7971 82.2707 65.9742 82.2624 59.1434 82.2624H58.9065C57.3034 82.2624 55.7003 82.2791 54.0893 82.2791C53.4813 82.2791 52.8653 82.2707 52.2573 82.2624C51.5307 82.2541 50.7884 82.1874 50.0698 82.0124C48.9248 81.7375 47.9692 81.1708 47.2743 80.3626C46.5715 79.5543 46.1214 78.5044 45.9555 77.2795C45.8687 76.6878 45.8213 76.0879 45.8213 75.4879C45.8134 72.3382 45.8134 69.1718 45.8134 66.0137C45.8134 62.064 45.8134 58.106 45.8292 54.1563C45.8292 53.048 45.8924 51.9398 45.995 50.8482C46.0424 50.3066 46.074 49.765 46.074 49.2233C46.074 47.2985 45.7502 45.407 45.2369 43.5321C45.1816 43.3321 45.1421 43.1488 45.0711 42.8822L45 42.5989L45.2606 42.5072C59.9804 37.6742 74.6213 32.8663 89.2464 28.0583L89.4438 28L89.5623 28.1833C89.6017 28.2416 89.6333 28.3 89.6649 28.375C89.7044 28.4416 89.736 28.5333 89.7755 28.6333C89.8544 28.8333 89.9413 29.0832 90.044 29.3749C90.2572 29.9665 90.4941 30.7165 90.7468 31.5247C91.2522 33.1413 91.7734 34.9745 92.0419 36.1327L92.1051 36.4077L91.8524 36.4993C91.5918 36.591 91.3154 36.7077 91.0311 36.7993C82.7314 39.5408 74.4318 42.2739 66.14 45.0153C62.1679 46.3319 58.1878 47.6485 54.2157 48.965C57.5877 48.9817 60.9675 48.9817 64.3395 48.99C73.1604 48.99 81.9812 48.9984 90.8021 49.0067H92.0656V50.2399C92.0577 55.7478 92.0498 61.2641 92.0498 66.772V67.8469H92.0577Z" fill="url(#paint2_linear_1040_2618)"/>
<path d="M91.7736 67.8468C91.7657 61.9806 91.7815 56.106 91.7894 50.2398V49.3065H90.8023C81.9735 49.2982 73.1527 49.2982 64.3397 49.2899C60.944 49.2815 57.5484 49.2732 54.1527 49.2732C53.979 49.2649 53.7895 49.3149 53.6078 49.2399C53.5683 49.2316 53.5446 49.2149 53.5052 49.1899C53.4815 49.1732 53.4657 49.1566 53.442 49.1399C53.4578 49.0982 53.4736 49.0566 53.4894 49.0232C53.5131 48.9732 53.5367 48.9316 53.5762 48.9066C53.7184 48.7566 53.9395 48.7316 54.1132 48.6816C58.0933 47.3567 62.0812 46.0318 66.0612 44.7236C74.3609 41.9821 82.6605 39.249 90.9602 36.5075C91.2366 36.4159 91.5051 36.3076 91.7736 36.2076C91.2366 33.9161 89.6888 28.8665 89.3413 28.3499C74.7084 33.1578 60.0754 37.9741 45.3556 42.7987H45.3477C45.3635 42.8654 45.3871 42.932 45.395 42.9904L45.4108 43.057C45.4266 43.1487 45.4503 43.232 45.474 43.307C45.4898 43.357 45.4977 43.3987 45.5135 43.4487C46.1768 45.8818 46.5243 48.34 46.2795 50.8731C46.1689 51.9647 46.1137 53.0646 46.1137 54.1562C46.0979 61.2639 46.0979 68.3717 46.1058 75.4878C46.1058 76.0711 46.1531 76.6627 46.2321 77.2377C46.5638 79.5875 47.9299 81.179 50.1332 81.7123C50.8202 81.8873 51.5467 81.954 52.2575 81.9623C54.4686 81.9873 56.6876 81.954 58.9066 81.954C65.8164 81.954 72.7183 81.9623 79.6281 81.9623C81.7761 81.9707 83.9241 82.004 86.072 81.979C87.8488 81.9623 89.365 81.279 90.5101 79.8125C91.4577 78.5876 91.821 77.1627 91.8052 75.5962C91.7815 73.013 91.7736 70.4299 91.7736 67.8468ZM91.4182 77.271C90.9049 79.8375 88.8991 81.6373 86.4116 81.7123C84.1768 81.779 81.9261 81.7207 79.6913 81.7207C70.6099 81.7123 61.5363 81.7207 52.4628 81.6957C51.6415 81.6873 50.7965 81.604 49.9989 81.3957C48.2142 80.9374 47.0692 79.6958 46.627 77.8126C46.469 77.1544 46.3743 76.4628 46.3743 75.7961C46.3585 68.5717 46.3585 61.3306 46.3822 54.1062C46.3822 53.1312 46.4374 52.1563 46.5322 51.1897C46.7454 49.1149 46.6112 47.0651 46.1689 45.0319C46.0505 44.4736 45.9083 43.9153 45.7583 43.2737C45.7425 43.1987 45.7188 43.107 45.6951 43.0154L45.6872 42.9904C60.1623 38.2157 74.6136 33.4411 89.1518 28.6415H89.1597L89.3018 28.5915L89.3255 28.6748L89.3887 28.8831C90.1389 31.2496 90.8023 33.5994 91.513 35.9826L91.5288 36.0409L91.4419 36.0742H91.434C91.1576 36.1909 90.9128 36.2909 90.6601 36.3742C79.2096 40.1406 67.7591 43.907 56.3007 47.665C55.4162 47.9567 54.5397 48.2316 53.6631 48.5483C53.5525 48.5899 53.4736 48.6149 53.4025 48.6649C53.2683 48.7316 53.2051 48.8232 53.1893 48.9649C53.1735 49.0649 53.1893 49.1899 53.2288 49.3732L53.2367 49.3815C53.2446 49.4315 53.2525 49.4982 53.2762 49.5565H91.5525V50.5648C91.5604 58.6225 91.5683 66.6802 91.5683 74.7462C91.5683 75.5878 91.5762 76.4544 91.4182 77.271Z" fill="url(#paint3_linear_1040_2618)"/>
<path d="M91.8524 49.2483H53.5129C53.505 49.2317 53.505 49.2067 53.4971 49.1983C53.4971 49.1817 53.4971 49.1733 53.4892 49.165C53.4892 49.1317 53.4813 49.1067 53.4813 49.0817C53.4734 49.065 53.4734 49.04 53.4734 49.0317C53.4734 49.0234 53.4734 49.0234 53.4734 49.015C53.4734 48.9734 53.4813 48.965 53.4813 48.965C53.4813 48.9567 53.4813 48.9567 53.5129 48.9317C53.5287 48.9234 53.5445 48.915 53.5602 48.9067C53.6076 48.8817 53.6708 48.8567 53.7498 48.8234C54.6184 48.5234 55.5029 48.2401 56.3873 47.9484C67.8379 44.1904 79.2963 40.424 90.7468 36.6577C91.039 36.566 91.3154 36.441 91.6233 36.3243L91.8839 36.2327L91.7971 35.9577C91.0548 33.4496 90.3598 30.9914 89.5701 28.5083L89.4833 28.225L89.2227 28.3C74.6213 33.1246 60.1226 37.8992 45.6081 42.6905L45.3475 42.7822L45.3554 42.8072L45.3869 42.9238L45.4027 42.9988L45.4185 43.0655C45.4343 43.1571 45.458 43.2405 45.4817 43.3155C45.6318 43.9654 45.766 44.532 45.8924 45.0903C46.1924 46.4736 46.3504 47.8568 46.3504 49.2567C46.3504 49.8816 46.3188 50.5232 46.2556 51.1565C46.1608 52.1398 46.1056 53.123 46.0977 54.1063C46.0898 58.2643 46.0819 62.4223 46.0819 66.5803C46.0819 69.6551 46.0898 72.7298 46.0977 75.8046C46.0977 76.5045 46.1924 77.2211 46.3583 77.8961C46.5952 78.8877 47.0137 79.7209 47.6218 80.3626C48.2219 81.0042 49.0116 81.4541 49.9514 81.7041C50.7726 81.9208 51.6334 82.0041 52.4863 82.0041C61.5598 82.0291 70.6334 82.0208 79.7148 82.0291C81.152 82.0291 82.5972 82.0541 84.0502 82.0541C84.8478 82.0541 85.6454 82.0458 86.443 82.0208C87.7539 81.9791 88.9384 81.4875 89.8623 80.6625C90.7942 79.8376 91.4575 78.6877 91.726 77.3378C91.8918 76.4712 91.8918 75.5796 91.8918 74.738V69.0468C91.8918 62.8806 91.8839 56.7227 91.8839 50.5566V49.2483H91.8524ZM53.1022 48.5067C53.0391 48.5734 52.9838 48.6484 52.9443 48.74C52.9048 48.8317 52.8969 48.9317 52.8969 49.015C52.9048 49.1983 52.9364 49.3817 52.9996 49.6233L53.0548 49.8566H91.268V50.5566C91.2759 56.7144 91.2838 62.8806 91.2838 69.0468V74.738C91.2838 75.5879 91.2917 76.4379 91.1337 77.2128C90.8889 78.4377 90.2967 79.4626 89.4675 80.2042C88.6383 80.9375 87.5801 81.3791 86.4035 81.4208C85.6138 81.4458 84.8241 81.4541 84.0265 81.4541C82.5893 81.4541 81.1441 81.4291 79.6911 81.4291C70.6097 81.4208 61.5361 81.4208 52.4626 81.4041C51.6571 81.3958 50.8358 81.3125 50.0698 81.1125C49.2169 80.8875 48.5378 80.4959 48.0087 79.9376C47.4875 79.3793 47.1164 78.6544 46.8953 77.7544C46.7452 77.1211 46.6584 76.4462 46.6584 75.8129C46.6505 72.7382 46.6426 69.6634 46.6426 66.5886C46.6426 62.439 46.6505 58.2726 46.6584 54.1146C46.6584 53.1564 46.7136 52.1898 46.8084 51.2315C46.8716 50.5732 46.9032 49.9233 46.9032 49.265C46.9032 47.8234 46.7452 46.3819 46.4372 44.9653C46.3267 44.3904 46.1845 43.8321 46.0345 43.1905C60.3753 38.4575 74.7003 33.7412 89.12 28.9749C89.8307 31.2581 90.4783 33.5329 91.1732 35.8494C90.96 35.941 90.7705 36.0244 90.581 36.0744C79.1304 39.8407 67.6799 43.6071 56.2215 47.3651C55.3371 47.6568 54.4526 47.9318 53.576 48.2484C53.3944 48.3234 53.2444 48.3817 53.1022 48.5067ZM92.0577 66.772C92.0577 61.2641 92.0656 55.7478 92.0735 50.2399V49.0067H90.8021C81.9733 48.9984 73.1525 48.99 64.3395 48.99C60.9675 48.9817 57.5877 48.9734 54.2157 48.965C58.1878 47.6401 62.1679 46.3236 66.1479 45.0153C74.4476 42.2739 82.7472 39.5408 91.039 36.7993C91.3233 36.7077 91.5997 36.591 91.8602 36.4993L92.1129 36.4077L92.0498 36.1327C91.7813 34.9745 91.2601 33.1413 90.7547 31.5247C90.502 30.7165 90.2651 29.9582 90.0519 29.3749C89.9492 29.0832 89.8623 28.8333 89.7834 28.6333C89.7439 28.5333 89.7044 28.4416 89.6728 28.375C89.6412 28.3 89.6096 28.2416 89.5701 28.1833L89.4438 28L89.2464 28.0667C74.6213 32.8663 59.9804 37.6826 45.2606 42.5072L45 42.5989L45.0711 42.8822C45.1342 43.1571 45.1816 43.3405 45.2369 43.5321C45.7502 45.407 46.074 47.2985 46.074 49.2233C46.074 49.765 46.0424 50.2983 45.995 50.8482C45.8845 51.9398 45.8292 53.048 45.8292 54.1563C45.8134 58.106 45.8134 62.064 45.8134 66.0137C45.8134 69.1718 45.8134 72.3299 45.8213 75.4879C45.8213 76.0879 45.8687 76.6878 45.9555 77.2795C46.1214 78.5044 46.5715 79.5543 47.2743 80.3626C47.9692 81.1625 48.9248 81.7291 50.0698 82.0124C50.7805 82.1874 51.5307 82.2624 52.2573 82.2624C52.8653 82.2707 53.4813 82.2791 54.0893 82.2791C55.7003 82.2791 57.3034 82.2624 58.9065 82.2624H59.1434C65.9742 82.2624 72.7971 82.2707 79.6279 82.2707C81.1994 82.2791 82.763 82.2957 84.3345 82.2957C84.9189 82.2957 85.4953 82.2874 86.0718 82.2791C87.9039 82.2624 89.5307 81.5458 90.731 79.9959C91.7181 78.7377 92.0972 77.2461 92.0972 75.6713V75.5879C92.0735 73.0048 92.0577 70.43 92.0577 67.8469V66.772ZM89.12 28.9749C89.8307 31.2581 90.4783 33.5329 91.1732 35.8494C90.96 35.941 90.7705 36.0244 90.581 36.0744C79.1304 39.8407 67.6799 43.6071 56.2215 47.3651C55.3371 47.6568 54.4526 47.9318 53.576 48.2484C53.3865 48.3151 53.2365 48.3734 53.1022 48.4984C53.0391 48.5651 52.9838 48.64 52.9443 48.7317C52.9048 48.8234 52.8969 48.9234 52.8969 49.0067C52.9048 49.19 52.9364 49.3733 52.9996 49.615L53.0548 49.8483H91.268V50.5482C91.2759 56.7061 91.2838 62.8723 91.2838 69.0384V74.7297C91.2838 75.5796 91.2917 76.4295 91.1337 77.2045C90.8889 78.4294 90.2967 79.4543 89.4675 80.1959C88.6383 80.9292 87.5801 81.3708 86.4035 81.4125C85.6138 81.4375 84.8241 81.4458 84.0265 81.4458C82.5893 81.4458 81.1441 81.4208 79.6911 81.4208C70.6097 81.4125 61.5361 81.4125 52.4626 81.3958C51.6571 81.3875 50.8358 81.3042 50.0698 81.1042C49.2169 80.8792 48.5378 80.4876 48.0087 79.9293C47.4875 79.371 47.1164 78.646 46.8953 77.7461C46.7452 77.1128 46.6584 76.4379 46.6584 75.8046C46.6505 72.7298 46.6426 69.6551 46.6426 66.5803C46.6426 62.4306 46.6505 58.2643 46.6584 54.1063C46.6584 53.148 46.7136 52.1814 46.8084 51.2232C46.8716 50.5649 46.9032 49.9149 46.9032 49.2567C46.9032 47.8151 46.7452 46.3736 46.4372 44.957C46.3267 44.3904 46.1845 43.8321 46.0345 43.1905C60.3753 38.4575 74.7082 33.7329 89.12 28.9749Z" fill="url(#paint4_linear_1040_2618)"/>
<path d="M90.518 50.4567C90.676 51.0733 90.6997 55.8312 90.5733 56.6229C90.0679 56.8145 87.5014 56.8395 86.7512 56.6479C87.454 54.8813 88.1569 53.1231 88.8755 51.3149C88.6386 51.2816 88.5043 51.2483 88.3701 51.2483C87.1934 51.2483 86.0168 51.2983 84.8402 51.2566C84.2163 51.2316 83.9004 51.5483 83.6793 52.0815C83.245 53.1065 82.8186 54.1314 82.3763 55.148C81.6419 56.8312 81.6419 56.8395 79.8888 56.8562C78.9886 56.8645 78.0883 56.8562 77.1881 56.8478C77.117 56.8478 77.0538 56.8312 76.9117 56.8062C77.038 56.1562 77.346 55.5979 77.575 54.998C77.7961 54.4064 78.0409 53.8314 78.2778 53.2481C78.5226 52.6482 78.7595 52.0482 79.028 51.3733C78.8069 51.3316 78.6648 51.2899 78.5147 51.2899C77.2907 51.2899 76.0667 51.3233 74.8427 51.2899C74.3373 51.2733 74.0846 51.4983 73.9029 51.9482C73.3896 53.1981 72.8606 54.4397 72.3394 55.6896C72.2525 55.8896 72.1814 56.0979 72.0867 56.2895C71.9129 56.6395 71.6365 56.8478 71.2575 56.8562C69.8281 56.8645 68.3988 56.8562 66.8431 56.8562C67.1827 55.8729 67.5696 55.0063 67.9171 54.1147C68.2725 53.2231 68.6357 52.3315 69.0227 51.3733C68.7936 51.3233 68.6515 51.2733 68.5015 51.2649C67.3485 51.2566 66.1956 51.2899 65.0347 51.2566C64.3951 51.2399 64.0555 51.5483 63.8265 52.1232C63.3132 53.3731 62.7841 54.6147 62.2629 55.8646C61.8918 56.7562 61.7417 56.8645 60.7941 56.8645C59.4832 56.8645 58.1644 56.8645 56.7272 56.8645C57.1141 55.8812 57.4695 54.998 57.8248 54.1064C58.1802 53.2148 58.5277 52.3149 58.9067 51.3649C58.7172 51.3233 58.5987 51.2649 58.4724 51.2649C57.2958 51.2649 56.1191 51.2816 54.9425 51.2649C54.3502 51.2566 53.9948 51.5399 53.7658 52.0899C53.2446 53.3398 52.7076 54.573 52.1865 55.8229C51.8232 56.6978 51.6021 56.8562 50.7255 56.8395C49.9437 56.8312 49.154 56.8478 48.3722 56.8478C48.009 56.8478 47.6378 56.8478 47.2351 56.8478C47.2114 56.6145 47.1798 56.4312 47.1719 56.2479C47.164 55.4729 47.1798 54.6897 47.1561 53.9147C47.1403 53.2481 47.3456 52.6732 47.7247 52.1565C48.5539 51.0233 49.6279 50.4233 51.0019 50.4233C54.6503 50.4317 58.2987 50.44 61.947 50.4483C71.1864 50.4567 80.4179 50.4567 89.6573 50.465C89.9416 50.4567 90.2416 50.4567 90.518 50.4567Z" fill="url(#paint5_linear_1040_2618)"/>
<path d="M88.7408 29.7332C74.6685 34.3578 60.691 38.9491 46.6582 43.5571C46.9425 44.5403 47.211 45.4403 47.4716 46.3402C47.8348 47.6151 48.7351 48.265 49.8722 48.64C50.0618 48.7067 50.2987 48.7067 50.4803 48.6483C51.9649 48.19 53.4416 47.7151 55.021 47.1985C53.7812 45.6402 52.6599 44.2154 51.4911 42.7405C52.8968 42.2655 54.184 41.8239 55.479 41.3822C55.8897 41.2406 56.2529 41.3406 56.5372 41.7072C56.8057 42.0405 57.0742 42.3822 57.3506 42.7071C57.9903 43.4821 58.622 44.2487 59.2696 45.0153C59.5223 45.3153 59.8145 45.5736 60.233 45.4403C61.5755 45.0153 62.9179 44.5737 64.371 44.107C63.1785 42.5905 62.0414 41.1656 60.8647 39.674C61.1806 39.5574 61.4175 39.4574 61.6544 39.3741C62.5547 39.0741 63.4628 38.7824 64.3631 38.4658C65.4055 38.1075 65.5081 38.1325 66.203 38.9991C66.9927 39.9574 67.7745 40.9073 68.5642 41.8572C68.9354 42.2988 69.3539 42.4572 69.9225 42.2572C71.0596 41.8489 72.2047 41.4989 73.3576 41.1156C73.4998 41.0739 73.6261 40.9823 73.8236 40.8823C72.6627 39.4241 71.5493 38.0158 70.3884 36.5493C70.6648 36.4326 70.8227 36.3493 70.9965 36.291C71.9836 35.9577 72.9944 35.6744 73.9657 35.2994C74.7238 34.9994 75.2292 35.2244 75.7188 35.841C76.5085 36.8326 77.3298 37.7825 78.1274 38.7658C78.4827 39.1991 78.8697 39.3324 79.4146 39.1408C80.5991 38.7241 81.7915 38.3575 82.9761 37.9658C83.1182 37.9242 83.2446 37.8409 83.4341 37.7492C82.2733 36.266 81.1519 34.8578 80.0226 33.4412C80.1095 33.3662 80.1332 33.3162 80.1727 33.2995C81.4836 32.8496 82.8102 32.4079 84.129 31.9663C84.4449 31.858 84.7213 31.9663 84.9424 32.2163C85.0767 32.3579 85.1872 32.5079 85.3057 32.6579C86.1112 33.6245 86.9087 34.5994 87.7142 35.566C87.9669 35.866 88.2512 36.166 88.6619 36.0577C89.2462 35.8993 89.8306 35.6744 90.4623 35.466C89.8859 33.4912 89.3489 31.6247 88.7408 29.7332ZM52.0123 45.5402C51.9965 46.7402 51.0094 47.7567 49.8565 47.7567C48.6719 47.7567 47.7085 46.7235 47.7243 45.4569C47.7322 44.257 48.7035 43.2571 49.8643 43.2571C51.041 43.2488 52.0281 44.3153 52.0123 45.5402Z" fill="url(#paint6_linear_1040_2618)"/>
<path d="M47.4954 48.4817C47.4796 49.3483 47.4559 50.1566 47.5112 50.9982C48.0956 50.7815 48.2456 50.3649 48.2456 49.8899C48.2377 49.3483 48.2851 48.74 47.4954 48.4817ZM47.8823 50.1482H47.8034V49.39H47.8823V50.1482Z" fill="url(#paint7_linear_1040_2618)"/>
<path d="M47.8037 50.1482C47.8037 49.8982 47.8037 49.6399 47.8037 49.3899C47.8274 49.3899 47.859 49.3899 47.8827 49.3899C47.8827 49.6399 47.8827 49.8982 47.8827 50.1482C47.8511 50.1482 47.8274 50.1482 47.8037 50.1482Z" fill="url(#paint8_linear_1040_2618)"/>
</g>
<path d="M38.976 95.312V105H37.702V97.776L34.482 105H33.586L30.352 97.762V105H29.078V95.312H30.45L34.034 103.32L37.618 95.312H38.976ZM44.4826 105.126C43.7639 105.126 43.1106 104.963 42.5226 104.636C41.9439 104.309 41.4866 103.847 41.1506 103.25C40.8239 102.643 40.6606 101.943 40.6606 101.15C40.6606 100.366 40.8286 99.6753 41.1646 99.078C41.5099 98.4713 41.9766 98.0093 42.5646 97.692C43.1526 97.3653 43.8106 97.202 44.5386 97.202C45.2666 97.202 45.9246 97.3653 46.5126 97.692C47.1006 98.0093 47.5626 98.4667 47.8986 99.064C48.2439 99.6613 48.4166 100.357 48.4166 101.15C48.4166 101.943 48.2393 102.643 47.8846 103.25C47.5393 103.847 47.0679 104.309 46.4706 104.636C45.8733 104.963 45.2106 105.126 44.4826 105.126ZM44.4826 104.006C44.9399 104.006 45.3693 103.899 45.7706 103.684C46.1719 103.469 46.4939 103.147 46.7366 102.718C46.9886 102.289 47.1146 101.766 47.1146 101.15C47.1146 100.534 46.9933 100.011 46.7506 99.582C46.5079 99.1527 46.1906 98.8353 45.7986 98.63C45.4066 98.4153 44.9819 98.308 44.5246 98.308C44.0579 98.308 43.6286 98.4153 43.2366 98.63C42.8539 98.8353 42.5459 99.1527 42.3126 99.582C42.0793 100.011 41.9626 100.534 41.9626 101.15C41.9626 101.775 42.0746 102.303 42.2986 102.732C42.5319 103.161 42.8399 103.483 43.2226 103.698C43.6053 103.903 44.0253 104.006 44.4826 104.006ZM51.6457 98.378V102.9C51.6457 103.273 51.725 103.539 51.8837 103.698C52.0423 103.847 52.3177 103.922 52.7097 103.922H53.6477V105H52.4997C51.7903 105 51.2583 104.837 50.9037 104.51C50.549 104.183 50.3717 103.647 50.3717 102.9V98.378H49.3777V97.328H50.3717V95.396H51.6457V97.328H53.6477V98.378H51.6457ZM55.8493 96.082C55.6066 96.082 55.4013 95.998 55.2333 95.83C55.0653 95.662 54.9813 95.4567 54.9813 95.214C54.9813 94.9713 55.0653 94.766 55.2333 94.598C55.4013 94.43 55.6066 94.346 55.8493 94.346C56.0826 94.346 56.2786 94.43 56.4373 94.598C56.6053 94.766 56.6893 94.9713 56.6893 95.214C56.6893 95.4567 56.6053 95.662 56.4373 95.83C56.2786 95.998 56.0826 96.082 55.8493 96.082ZM56.4653 97.328V105H55.1913V97.328H56.4653ZM61.9826 105.126C61.2639 105.126 60.6106 104.963 60.0226 104.636C59.4439 104.309 58.9866 103.847 58.6506 103.25C58.3239 102.643 58.1606 101.943 58.1606 101.15C58.1606 100.366 58.3286 99.6753 58.6646 99.078C59.0099 98.4713 59.4766 98.0093 60.0646 97.692C60.6526 97.3653 61.3106 97.202 62.0386 97.202C62.7666 97.202 63.4246 97.3653 64.0126 97.692C64.6006 98.0093 65.0626 98.4667 65.3986 99.064C65.7439 99.6613 65.9166 100.357 65.9166 101.15C65.9166 101.943 65.7393 102.643 65.3846 103.25C65.0393 103.847 64.5679 104.309 63.9706 104.636C63.3733 104.963 62.7106 105.126 61.9826 105.126ZM61.9826 104.006C62.4399 104.006 62.8693 103.899 63.2706 103.684C63.6719 103.469 63.9939 103.147 64.2366 102.718C64.4886 102.289 64.6146 101.766 64.6146 101.15C64.6146 100.534 64.4933 100.011 64.2506 99.582C64.0079 99.1527 63.6906 98.8353 63.2986 98.63C62.9066 98.4153 62.4819 98.308 62.0246 98.308C61.5579 98.308 61.1286 98.4153 60.7366 98.63C60.3539 98.8353 60.0459 99.1527 59.8126 99.582C59.5793 100.011 59.4626 100.534 59.4626 101.15C59.4626 101.775 59.5746 102.303 59.7986 102.732C60.0319 103.161 60.3399 103.483 60.7226 103.698C61.1053 103.903 61.5253 104.006 61.9826 104.006ZM71.3297 97.188C72.263 97.188 73.019 97.4727 73.5977 98.042C74.1763 98.602 74.4657 99.414 74.4657 100.478V105H73.2057V100.66C73.2057 99.8947 73.0143 99.3113 72.6317 98.91C72.249 98.4993 71.7263 98.294 71.0637 98.294C70.3917 98.294 69.855 98.504 69.4537 98.924C69.0617 99.344 68.8657 99.9553 68.8657 100.758V105H67.5917V97.328H68.8657V98.42C69.1177 98.028 69.4583 97.7247 69.8877 97.51C70.3263 97.2953 70.807 97.188 71.3297 97.188ZM87.6712 98.07C87.4005 97.5007 87.0085 97.062 86.4952 96.754C85.9818 96.4367 85.3845 96.278 84.7032 96.278C84.0218 96.278 83.4058 96.4367 82.8552 96.754C82.3138 97.062 81.8845 97.51 81.5672 98.098C81.2592 98.6767 81.1052 99.3487 81.1052 100.114C81.1052 100.879 81.2592 101.551 81.5672 102.13C81.8845 102.709 82.3138 103.157 82.8552 103.474C83.4058 103.782 84.0218 103.936 84.7032 103.936C85.6552 103.936 86.4392 103.651 87.0552 103.082C87.6712 102.513 88.0305 101.743 88.1332 100.772H84.2412V99.736H89.4912V100.716C89.4165 101.519 89.1645 102.256 88.7352 102.928C88.3058 103.591 87.7412 104.118 87.0412 104.51C86.3412 104.893 85.5618 105.084 84.7032 105.084C83.7978 105.084 82.9718 104.874 82.2252 104.454C81.4785 104.025 80.8858 103.432 80.4472 102.676C80.0178 101.92 79.8032 101.066 79.8032 100.114C79.8032 99.162 80.0178 98.308 80.4472 97.552C80.8858 96.7867 81.4785 96.194 82.2252 95.774C82.9718 95.3447 83.7978 95.13 84.7032 95.13C85.7392 95.13 86.6538 95.3867 87.4472 95.9C88.2498 96.4133 88.8332 97.1367 89.1972 98.07H87.6712ZM98.6937 95.242V105H97.4197V100.576H92.4497V105H91.1757V95.242H92.4497V99.526H97.4197V95.242H98.6937ZM104.859 100.128L107.855 105H106.413L104.075 101.192L101.849 105H100.435L103.417 100.128L100.421 95.242H101.849L104.201 99.064L106.441 95.242H107.869L104.859 100.128Z" fill="#979292"/>
<defs>
<filter id="filter0_b_1040_2618" x="-1.4268" y="-1.38773" width="140.854" height="137.867" filterUnits="userSpaceOnUse" color-interpolation-filters="sRGB">
<feFlood flood-opacity="0" result="BackgroundImageFix"/>
<feGaussianBlur in="BackgroundImageFix" stdDeviation="1.7134"/>
<feComposite in2="SourceAlpha" operator="in" result="effect1_backgroundBlur_1040_2618"/>
<feBlend mode="normal" in="SourceGraphic" in2="effect1_backgroundBlur_1040_2618" result="shape"/>
</filter>
<filter id="filter1_f_1040_2618" x="0" y="0.0383301" width="138" height="135.014" filterUnits="userSpaceOnUse" color-interpolation-filters="sRGB">
<feFlood flood-opacity="0" result="BackgroundImageFix"/>
<feBlend mode="normal" in="SourceGraphic" in2="BackgroundImageFix" result="shape"/>
<feGaussianBlur stdDeviation="2.5" result="effect1_foregroundBlur_1040_2618"/>
</filter>
<linearGradient id="paint0_linear_1040_2618" x1="133" y1="14.5" x2="69" y2="134" gradientUnits="userSpaceOnUse">
<stop stop-color="#454343"/>
<stop offset="0.404952" stop-color="#4D4C4C" stop-opacity="0.2"/>
<stop offset="1" stop-color="#3C3A3A" stop-opacity="0.2"/>
</linearGradient>
<linearGradient id="paint1_linear_1040_2618" x1="115.5" y1="15" x2="69" y2="131" gradientUnits="userSpaceOnUse">
<stop stop-color="#5E5C5C"/>
<stop offset="0.356744" stop-color="#908D8D" stop-opacity="0.1"/>
<stop offset="1" stop-color="#C4C0C0" stop-opacity="0.05"/>
</linearGradient>
<linearGradient id="paint2_linear_1040_2618" x1="44.9994" y1="55.1497" x2="92.0978" y2="55.1497" gradientUnits="userSpaceOnUse">
<stop stop-color="#ABABAB"/>
<stop offset="0.9955" stop-color="#5F5F5F"/>
</linearGradient>
<linearGradient id="paint3_linear_1040_2618" x1="68.5767" y1="28.3499" x2="68.5767" y2="81.9881" gradientUnits="userSpaceOnUse">
<stop stop-color="#A6A6BE"/>
<stop offset="0.5" stop-color="#5E6178"/>
<stop offset="1" stop-color="#313647"/>
</linearGradient>
<linearGradient id="paint4_linear_1040_2618" x1="45.0057" y1="55.144" x2="92.1086" y2="55.144" gradientUnits="userSpaceOnUse">
<stop stop-color="#ABABAB"/>
<stop offset="0.9955" stop-color="#5F5F5F"/>
</linearGradient>
<linearGradient id="paint5_linear_1040_2618" x1="47.1621" y1="53.6445" x2="90.6501" y2="53.6445" gradientUnits="userSpaceOnUse">
<stop stop-color="white"/>
<stop offset="0.9955" stop-color="#5C5C5C"/>
</linearGradient>
<linearGradient id="paint6_linear_1040_2618" x1="46.6651" y1="39.2139" x2="90.4581" y2="39.2139" gradientUnits="userSpaceOnUse">
<stop stop-color="white"/>
<stop offset="0.9955" stop-color="#5C5C5C"/>
</linearGradient>
<linearGradient id="paint7_linear_1040_2618" x1="47.8611" y1="48.4817" x2="47.8611" y2="50.9982" gradientUnits="userSpaceOnUse">
<stop stop-color="#A6A6BE"/>
<stop offset="0.5" stop-color="#5E6178"/>
<stop offset="1" stop-color="#313647"/>
</linearGradient>
<linearGradient id="paint8_linear_1040_2618" x1="47.8432" y1="49.3899" x2="47.8432" y2="50.1482" gradientUnits="userSpaceOnUse">
<stop stop-color="#A6A6BE"/>
<stop offset="0.5" stop-color="#5E6178"/>
<stop offset="1" stop-color="#313647"/>
</linearGradient>
<clipPath id="clip0_1040_2618">
<rect width="47.1208" height="54.2874" fill="white" transform="translate(45 28)"/>
</clipPath>
</defs>
</svg>
