<svg width="22" height="21" viewBox="0 0 22 21" fill="none" xmlns="http://www.w3.org/2000/svg">
<path d="M17.9574 20.2823V19.5603H3.73772C2.62346 19.5603 1.71582 18.6722 1.71582 17.582V7.46658C1.71582 6.36913 2.62346 5.48827 3.73772 5.48827H17.9574C19.079 5.48827 19.9793 6.37635 19.9793 7.46658V17.582C19.9793 18.6794 19.0716 19.5603 17.9574 19.5603V20.2823V21.0043C19.8907 21.0043 21.4551 19.4736 21.4551 17.582V7.46658C21.4551 5.57491 19.8907 4.04425 17.9574 4.04425H3.73772C1.80437 4.04425 0.23999 5.57491 0.23999 7.46658V17.582C0.23999 19.4736 1.80437 21.0043 3.73772 21.0043H17.9574V20.2823Z" fill="url(#paint0_linear_46_2874)"/>
<path d="M5.11768 5.22839V20.174H6.59351V5.22839" fill="url(#paint1_linear_46_2874)"/>
<path d="M15.4412 5.04749V20.4696H16.917V5.04749" fill="url(#paint2_linear_46_2874)"/>
<path d="M12.8658 4.69399V3.97198H9.11719C8.95485 3.97198 8.82203 3.84202 8.82203 3.68318V2.24638C8.82203 2.08753 8.95485 1.95757 9.11719 1.95757H12.8658C13.0282 1.95757 13.161 2.08753 13.161 2.24638V3.67596C13.161 3.8348 13.0282 3.96476 12.8658 3.96476V4.69399V5.41601C13.8472 5.41601 14.6368 4.63623 14.6368 3.68318V2.24638C14.6368 1.2861 13.8399 0.51355 12.8658 0.51355H9.11719C8.13576 0.51355 7.34619 1.29332 7.34619 2.24638V3.67596C7.34619 4.63623 8.14314 5.40879 9.11719 5.40879H12.8658V4.69399Z" fill="url(#paint3_linear_46_2874)"/>
<defs>
<linearGradient id="paint0_linear_46_2874" x1="10.8475" y1="4.04425" x2="10.8475" y2="21.0043" gradientUnits="userSpaceOnUse">
<stop stop-color="#FBF0BA"/>
<stop offset="1" stop-color="#AB84FF"/>
</linearGradient>
<linearGradient id="paint1_linear_46_2874" x1="5.85559" y1="5.22839" x2="5.85559" y2="20.174" gradientUnits="userSpaceOnUse">
<stop stop-color="#FBF0BA"/>
<stop offset="1" stop-color="#AB84FF"/>
</linearGradient>
<linearGradient id="paint2_linear_46_2874" x1="16.1791" y1="5.04749" x2="16.1791" y2="20.4696" gradientUnits="userSpaceOnUse">
<stop stop-color="#FBF0BA"/>
<stop offset="1" stop-color="#AB84FF"/>
</linearGradient>
<linearGradient id="paint3_linear_46_2874" x1="10.9915" y1="0.51355" x2="10.9915" y2="5.41601" gradientUnits="userSpaceOnUse">
<stop stop-color="#FBF0BA"/>
<stop offset="1" stop-color="#AB84FF"/>
</linearGradient>
</defs>
</svg>
