<svg width="27" height="25" viewBox="0 0 27 25" fill="none" xmlns="http://www.w3.org/2000/svg">
<path d="M22.1379 24.1191V23.2382H4.78894C3.42948 23.2382 2.3221 22.1547 2.3221 20.8245V8.48309C2.3221 7.14412 3.42948 6.06942 4.78894 6.06942H22.1379C23.5063 6.06942 24.6047 7.15293 24.6047 8.48309V20.8245C24.6047 22.1635 23.4973 23.2382 22.1379 23.2382V24.1191V25C24.4967 25 26.4053 23.1325 26.4053 20.8245V8.48309C26.4053 6.17513 24.4967 4.30762 22.1379 4.30762H4.78894C2.43014 4.30762 0.521484 6.17513 0.521484 8.48309V20.8245C0.521484 23.1325 2.43014 25 4.78894 25H22.1379V24.1191Z" fill="#D9D9D9"/>
<path d="M6.47266 5.75244V23.9871H8.27327V5.75244" fill="#D9D9D9"/>
<path d="M19.0674 5.53198V24.3481H20.868V5.53198" fill="#D9D9D9"/>
<path d="M15.9257 5.10042V4.21952H11.3521C11.1541 4.21952 10.992 4.06096 10.992 3.86716V2.11417C10.992 1.92037 11.1541 1.7618 11.3521 1.7618H15.9257C16.1238 1.7618 16.2858 1.92037 16.2858 2.11417V3.85835C16.2858 4.05215 16.1238 4.21071 15.9257 4.21071V5.10042V5.98133C17.1231 5.98133 18.0864 5.02995 18.0864 3.86716V2.11417C18.0864 0.942565 17.1141 0 15.9257 0H11.3521C10.1547 0 9.19141 0.951374 9.19141 2.11417V3.85835C9.19141 5.02995 10.1637 5.97252 11.3521 5.97252H15.9257V5.10042Z" fill="#D9D9D9"/>
</svg>
