<svg width="138" height="136" viewBox="0 0 138 136" fill="none" xmlns="http://www.w3.org/2000/svg">
<g filter="url(#filter0_b_1040_2561)">
<path d="M135.5 96.8471V38.8286C135.5 28.4303 128.666 19.2682 118.7 16.3038L75.6996 3.5143C71.3278 2.21402 66.6722 2.21402 62.3004 3.5143L19.3004 16.3038C9.33366 19.2682 2.5 28.4303 2.5 38.8286V96.8471C2.5 107.355 9.4752 116.585 19.5834 119.454L62.5834 131.659C66.7783 132.85 71.2217 132.85 75.4166 131.659L118.417 119.454C128.525 116.585 135.5 107.355 135.5 96.8471Z" stroke="url(#paint0_linear_1040_2561)"/>
</g>
<g filter="url(#filter1_f_1040_2561)">
<path d="M132.5 94.7033V40.9314C132.5 30.5322 125.665 21.3697 115.697 18.406L75.6974 6.51293C71.327 5.21351 66.673 5.21351 62.3026 6.51293L22.3026 18.406C12.3347 21.3697 5.5 30.5322 5.5 40.9314V94.7033C5.5 105.212 12.4763 114.443 22.5855 117.311L62.5855 128.66C66.7791 129.85 71.2209 129.85 75.4145 128.66L115.415 117.311C125.524 114.443 132.5 105.212 132.5 94.7033Z" stroke="url(#paint1_linear_1040_2561)"/>
</g>
<path d="M20.602 100.098C20.602 100.91 20.322 101.587 19.762 102.128C19.2113 102.66 18.3667 102.926 17.228 102.926H15.352V107H14.078V97.242H17.228C18.3293 97.242 19.1647 97.508 19.734 98.04C20.3127 98.572 20.602 99.258 20.602 100.098ZM17.228 101.876C17.9373 101.876 18.46 101.722 18.796 101.414C19.132 101.106 19.3 100.667 19.3 100.098C19.3 98.894 18.6093 98.292 17.228 98.292H15.352V101.876H17.228ZM21.7094 103.136C21.7094 102.352 21.8681 101.666 22.1854 101.078C22.5028 100.481 22.9368 100.019 23.4874 99.692C24.0474 99.3653 24.6681 99.202 25.3494 99.202C26.0214 99.202 26.6048 99.3467 27.0994 99.636C27.5941 99.9253 27.9628 100.289 28.2054 100.728V99.328H29.4934V107H28.2054V105.572C27.9534 106.02 27.5754 106.393 27.0714 106.692C26.5768 106.981 25.9981 107.126 25.3354 107.126C24.6541 107.126 24.0381 106.958 23.4874 106.622C22.9368 106.286 22.5028 105.815 22.1854 105.208C21.8681 104.601 21.7094 103.911 21.7094 103.136ZM28.2054 103.15C28.2054 102.571 28.0888 102.067 27.8554 101.638C27.6221 101.209 27.3048 100.882 26.9034 100.658C26.5114 100.425 26.0774 100.308 25.6014 100.308C25.1254 100.308 24.6914 100.42 24.2994 100.644C23.9074 100.868 23.5948 101.195 23.3614 101.624C23.1281 102.053 23.0114 102.557 23.0114 103.136C23.0114 103.724 23.1281 104.237 23.3614 104.676C23.5948 105.105 23.9074 105.437 24.2994 105.67C24.6914 105.894 25.1254 106.006 25.6014 106.006C26.0774 106.006 26.5114 105.894 26.9034 105.67C27.3048 105.437 27.6221 105.105 27.8554 104.676C28.0888 104.237 28.2054 103.729 28.2054 103.15ZM31.1704 103.15C31.1704 102.357 31.329 101.666 31.6464 101.078C31.9637 100.481 32.4024 100.019 32.9624 99.692C33.5317 99.3653 34.1804 99.202 34.9084 99.202C35.851 99.202 36.6257 99.4307 37.2324 99.888C37.8484 100.345 38.2544 100.98 38.4504 101.792H37.0784C36.9477 101.325 36.691 100.957 36.3084 100.686C35.935 100.415 35.4684 100.28 34.9084 100.28C34.1804 100.28 33.5924 100.532 33.1444 101.036C32.6964 101.531 32.4724 102.235 32.4724 103.15C32.4724 104.074 32.6964 104.788 33.1444 105.292C33.5924 105.796 34.1804 106.048 34.9084 106.048C35.4684 106.048 35.935 105.917 36.3084 105.656C36.6817 105.395 36.9384 105.021 37.0784 104.536H38.4504C38.245 105.32 37.8344 105.95 37.2184 106.426C36.6024 106.893 35.8324 107.126 34.9084 107.126C34.1804 107.126 33.5317 106.963 32.9624 106.636C32.4024 106.309 31.9637 105.847 31.6464 105.25C31.329 104.653 31.1704 103.953 31.1704 103.15ZM44.4343 107L41.4243 103.612V107H40.1503V96.64H41.4243V102.73L44.3783 99.328H46.1563L42.5443 103.15L46.1703 107H44.4343ZM46.8793 103.136C46.8793 102.352 47.038 101.666 47.3553 101.078C47.6727 100.481 48.1067 100.019 48.6573 99.692C49.2173 99.3653 49.838 99.202 50.5193 99.202C51.1913 99.202 51.7747 99.3467 52.2693 99.636C52.764 99.9253 53.1327 100.289 53.3753 100.728V99.328H54.6633V107H53.3753V105.572C53.1233 106.02 52.7453 106.393 52.2413 106.692C51.7467 106.981 51.168 107.126 50.5053 107.126C49.824 107.126 49.208 106.958 48.6573 106.622C48.1067 106.286 47.6727 105.815 47.3553 105.208C47.038 104.601 46.8793 103.911 46.8793 103.136ZM53.3753 103.15C53.3753 102.571 53.2587 102.067 53.0253 101.638C52.792 101.209 52.4747 100.882 52.0733 100.658C51.6813 100.425 51.2473 100.308 50.7713 100.308C50.2953 100.308 49.8613 100.42 49.4693 100.644C49.0773 100.868 48.7647 101.195 48.5313 101.624C48.298 102.053 48.1813 102.557 48.1813 103.136C48.1813 103.724 48.298 104.237 48.5313 104.676C48.7647 105.105 49.0773 105.437 49.4693 105.67C49.8613 105.894 50.2953 106.006 50.7713 106.006C51.2473 106.006 51.6813 105.894 52.0733 105.67C52.4747 105.437 52.792 105.105 53.0253 104.676C53.2587 104.237 53.3753 103.729 53.3753 103.15ZM59.9803 99.202C60.6429 99.202 61.2216 99.3467 61.7163 99.636C62.2203 99.9253 62.5936 100.289 62.8363 100.728V99.328H64.1243V107.168C64.1243 107.868 63.9749 108.489 63.6763 109.03C63.3776 109.581 62.9483 110.01 62.3883 110.318C61.8376 110.626 61.1936 110.78 60.4563 110.78C59.4483 110.78 58.6083 110.542 57.9363 110.066C57.2643 109.59 56.8676 108.941 56.7463 108.12H58.0063C58.1463 108.587 58.4356 108.96 58.8743 109.24C59.3129 109.529 59.8403 109.674 60.4563 109.674C61.1563 109.674 61.7256 109.455 62.1643 109.016C62.6123 108.577 62.8363 107.961 62.8363 107.168V105.558C62.5843 106.006 62.2109 106.379 61.7163 106.678C61.2216 106.977 60.6429 107.126 59.9803 107.126C59.2989 107.126 58.6783 106.958 58.1183 106.622C57.5676 106.286 57.1336 105.815 56.8163 105.208C56.4989 104.601 56.3403 103.911 56.3403 103.136C56.3403 102.352 56.4989 101.666 56.8163 101.078C57.1336 100.481 57.5676 100.019 58.1183 99.692C58.6783 99.3653 59.2989 99.202 59.9803 99.202ZM62.8363 103.15C62.8363 102.571 62.7196 102.067 62.4863 101.638C62.2529 101.209 61.9356 100.882 61.5343 100.658C61.1423 100.425 60.7083 100.308 60.2323 100.308C59.7563 100.308 59.3223 100.42 58.9303 100.644C58.5383 100.868 58.2256 101.195 57.9923 101.624C57.7589 102.053 57.6423 102.557 57.6423 103.136C57.6423 103.724 57.7589 104.237 57.9923 104.676C58.2256 105.105 58.5383 105.437 58.9303 105.67C59.3223 105.894 59.7563 106.006 60.2323 106.006C60.7083 106.006 61.1423 105.894 61.5343 105.67C61.9356 105.437 62.2529 105.105 62.4863 104.676C62.7196 104.237 62.8363 103.729 62.8363 103.15ZM66.9352 98.082C66.6926 98.082 66.4872 97.998 66.3192 97.83C66.1512 97.662 66.0672 97.4567 66.0672 97.214C66.0672 96.9713 66.1512 96.766 66.3192 96.598C66.4872 96.43 66.6926 96.346 66.9352 96.346C67.1686 96.346 67.3646 96.43 67.5232 96.598C67.6912 96.766 67.7752 96.9713 67.7752 97.214C67.7752 97.4567 67.6912 97.662 67.5232 97.83C67.3646 97.998 67.1686 98.082 66.9352 98.082ZM67.5512 99.328V107H66.2772V99.328H67.5512ZM73.4605 99.188C74.3939 99.188 75.1499 99.4727 75.7285 100.042C76.3072 100.602 76.5965 101.414 76.5965 102.478V107H75.3365V102.66C75.3365 101.895 75.1452 101.311 74.7625 100.91C74.3799 100.499 73.8572 100.294 73.1945 100.294C72.5225 100.294 71.9859 100.504 71.5845 100.924C71.1925 101.344 70.9965 101.955 70.9965 102.758V107H69.7225V99.328H70.9965V100.42C71.2485 100.028 71.5892 99.7247 72.0185 99.51C72.4572 99.2953 72.9379 99.188 73.4605 99.188ZM81.8416 99.202C82.5043 99.202 83.0829 99.3467 83.5776 99.636C84.0816 99.9253 84.4549 100.289 84.6976 100.728V99.328H85.9856V107.168C85.9856 107.868 85.8363 108.489 85.5376 109.03C85.2389 109.581 84.8096 110.01 84.2496 110.318C83.6989 110.626 83.0549 110.78 82.3176 110.78C81.3096 110.78 80.4696 110.542 79.7976 110.066C79.1256 109.59 78.7289 108.941 78.6076 108.12H79.8676C80.0076 108.587 80.2969 108.96 80.7356 109.24C81.1743 109.529 81.7016 109.674 82.3176 109.674C83.0176 109.674 83.5869 109.455 84.0256 109.016C84.4736 108.577 84.6976 107.961 84.6976 107.168V105.558C84.4456 106.006 84.0723 106.379 83.5776 106.678C83.0829 106.977 82.5043 107.126 81.8416 107.126C81.1603 107.126 80.5396 106.958 79.9796 106.622C79.4289 106.286 78.9949 105.815 78.6776 105.208C78.3603 104.601 78.2016 103.911 78.2016 103.136C78.2016 102.352 78.3603 101.666 78.6776 101.078C78.9949 100.481 79.4289 100.019 79.9796 99.692C80.5396 99.3653 81.1603 99.202 81.8416 99.202ZM84.6976 103.15C84.6976 102.571 84.5809 102.067 84.3476 101.638C84.1143 101.209 83.7969 100.882 83.3956 100.658C83.0036 100.425 82.5696 100.308 82.0936 100.308C81.6176 100.308 81.1836 100.42 80.7916 100.644C80.3996 100.868 80.0869 101.195 79.8536 101.624C79.6203 102.053 79.5036 102.557 79.5036 103.136C79.5036 103.724 79.6203 104.237 79.8536 104.676C80.0869 105.105 80.3996 105.437 80.7916 105.67C81.1836 105.894 81.6176 106.006 82.0936 106.006C82.5696 106.006 83.0036 105.894 83.3956 105.67C83.7969 105.437 84.1143 105.105 84.3476 104.676C84.5809 104.237 84.6976 103.729 84.6976 103.15ZM94.909 97.242C95.973 97.242 96.8923 97.4427 97.667 97.844C98.451 98.236 99.0483 98.8007 99.459 99.538C99.879 100.275 100.089 101.143 100.089 102.142C100.089 103.141 99.879 104.009 99.459 104.746C99.0483 105.474 98.451 106.034 97.667 106.426C96.8923 106.809 95.973 107 94.909 107H91.871V97.242H94.909ZM94.909 105.95C96.169 105.95 97.1303 105.619 97.793 104.956C98.4556 104.284 98.787 103.346 98.787 102.142C98.787 100.929 98.451 99.9813 97.779 99.3C97.1163 98.6187 96.1596 98.278 94.909 98.278H93.145V105.95H94.909ZM108.769 102.87C108.769 103.113 108.755 103.369 108.727 103.64H102.595C102.642 104.396 102.899 104.989 103.365 105.418C103.841 105.838 104.415 106.048 105.087 106.048C105.638 106.048 106.095 105.922 106.459 105.67C106.833 105.409 107.094 105.063 107.243 104.634H108.615C108.41 105.371 107.999 105.973 107.383 106.44C106.767 106.897 106.002 107.126 105.087 107.126C104.359 107.126 103.706 106.963 103.127 106.636C102.558 106.309 102.11 105.847 101.783 105.25C101.457 104.643 101.293 103.943 101.293 103.15C101.293 102.357 101.452 101.661 101.769 101.064C102.087 100.467 102.53 100.009 103.099 99.692C103.678 99.3653 104.341 99.202 105.087 99.202C105.815 99.202 106.459 99.3607 107.019 99.678C107.579 99.9953 108.009 100.434 108.307 100.994C108.615 101.545 108.769 102.17 108.769 102.87ZM107.453 102.604C107.453 102.119 107.346 101.703 107.131 101.358C106.917 101.003 106.623 100.737 106.249 100.56C105.885 100.373 105.479 100.28 105.031 100.28C104.387 100.28 103.837 100.485 103.379 100.896C102.931 101.307 102.675 101.876 102.609 102.604H107.453ZM113.167 107.126C112.579 107.126 112.052 107.028 111.585 106.832C111.118 106.627 110.75 106.347 110.479 105.992C110.208 105.628 110.059 105.213 110.031 104.746H111.347C111.384 105.129 111.562 105.441 111.879 105.684C112.206 105.927 112.63 106.048 113.153 106.048C113.638 106.048 114.021 105.941 114.301 105.726C114.581 105.511 114.721 105.241 114.721 104.914C114.721 104.578 114.572 104.331 114.273 104.172C113.974 104.004 113.512 103.841 112.887 103.682C112.318 103.533 111.851 103.383 111.487 103.234C111.132 103.075 110.824 102.847 110.563 102.548C110.311 102.24 110.185 101.839 110.185 101.344C110.185 100.952 110.302 100.593 110.535 100.266C110.768 99.9393 111.1 99.6827 111.529 99.496C111.958 99.3 112.448 99.202 112.999 99.202C113.848 99.202 114.534 99.4167 115.057 99.846C115.58 100.275 115.86 100.863 115.897 101.61H114.623C114.595 101.209 114.432 100.887 114.133 100.644C113.844 100.401 113.452 100.28 112.957 100.28C112.5 100.28 112.136 100.378 111.865 100.574C111.594 100.77 111.459 101.027 111.459 101.344C111.459 101.596 111.538 101.806 111.697 101.974C111.865 102.133 112.07 102.263 112.313 102.366C112.565 102.459 112.91 102.567 113.349 102.688C113.9 102.837 114.348 102.987 114.693 103.136C115.038 103.276 115.332 103.491 115.575 103.78C115.827 104.069 115.958 104.447 115.967 104.914C115.967 105.334 115.85 105.712 115.617 106.048C115.384 106.384 115.052 106.65 114.623 106.846C114.203 107.033 113.718 107.126 113.167 107.126ZM118.172 107.084C117.929 107.084 117.724 107 117.556 106.832C117.388 106.664 117.304 106.459 117.304 106.216C117.304 105.973 117.388 105.768 117.556 105.6C117.724 105.432 117.929 105.348 118.172 105.348C118.405 105.348 118.601 105.432 118.76 105.6C118.928 105.768 119.012 105.973 119.012 106.216C119.012 106.459 118.928 106.664 118.76 106.832C118.601 107 118.405 107.084 118.172 107.084ZM121.111 107.084C120.868 107.084 120.663 107 120.495 106.832C120.327 106.664 120.243 106.459 120.243 106.216C120.243 105.973 120.327 105.768 120.495 105.6C120.663 105.432 120.868 105.348 121.111 105.348C121.344 105.348 121.54 105.432 121.699 105.6C121.867 105.768 121.951 105.973 121.951 106.216C121.951 106.459 121.867 106.664 121.699 106.832C121.54 107 121.344 107.084 121.111 107.084ZM124.05 107.084C123.808 107.084 123.602 107 123.434 106.832C123.266 106.664 123.182 106.459 123.182 106.216C123.182 105.973 123.266 105.768 123.434 105.6C123.602 105.432 123.808 105.348 124.05 105.348C124.284 105.348 124.48 105.432 124.638 105.6C124.806 105.768 124.89 105.973 124.89 106.216C124.89 106.459 124.806 106.664 124.638 106.832C124.48 107 124.284 107.084 124.05 107.084Z" fill="#979292"/>
<g clip-path="url(#clip0_1040_2561)">
<path d="M47.6621 38.9296C47.6694 38.9296 47.6841 38.9221 47.6914 38.9221C47.6841 38.9296 47.6841 38.9372 47.6768 38.9447C47.6768 38.9447 47.6621 38.9372 47.6621 38.9296Z" fill="url(#paint2_linear_1040_2561)" fill-opacity="0.2"/>
<path d="M83.9334 82.5378C83.1149 82.9005 62.1181 82.9335 61.3828 82.5707C61.3828 80.3394 61.3828 78.075 61.3828 75.7117C61.6464 75.6677 61.8753 75.6128 62.1042 75.6128C69.124 75.6238 76.1437 75.6348 83.1634 75.6458C83.9542 75.6458 83.9958 75.7117 84.0028 76.8989C84.0097 78.4597 84.0097 80.0316 84.0028 81.5924C84.0028 81.9222 83.9542 82.241 83.9334 82.5378Z" fill="url(#paint3_linear_1040_2561)" fill-opacity="0.2" stroke="url(#paint4_linear_1040_2561)" stroke-width="0.25" stroke-miterlimit="10"/>
<path d="M72.6513 76.5795C69.1991 76.5795 65.7469 76.5795 62.2948 76.5795C62.0393 76.5795 61.7912 76.5868 61.5357 76.5723C60.9738 76.5218 60.7986 76.3559 60.784 75.786C60.7621 75.0646 60.7621 74.3432 60.784 73.6218C60.8059 73.0663 60.9884 72.9076 61.5649 72.8787C61.762 72.8643 61.959 72.8787 62.1561 72.8787C69.1991 72.8859 76.2421 72.9004 83.2851 72.9076C83.4821 72.9076 83.6792 72.9148 83.8763 72.9076C84.3215 72.8932 84.5915 73.124 84.6134 73.5352C84.6499 74.336 84.6426 75.1439 84.6061 75.9447C84.5915 76.3126 84.3361 76.5363 83.9273 76.5435C83.6719 76.5435 83.4238 76.5507 83.1683 76.5507C79.6578 76.5507 76.1545 76.5507 72.644 76.5507C72.6513 76.5651 72.6513 76.5723 72.6513 76.5795Z" fill="url(#paint5_linear_1040_2561)"/>
<path d="M71.7398 48.2209C71.5135 49.3175 71.28 50.4068 71.0537 51.5033C71.28 50.4068 71.5135 49.3103 71.7398 48.2209Z" fill="url(#paint6_linear_1040_2561)" fill-opacity="0.2"/>
<path d="M75.7978 40.8987C75.2869 41.4325 74.7687 41.9736 74.2578 42.5074C74.5425 41.7572 75.1336 41.2955 75.7978 40.8987Z" fill="url(#paint7_linear_1040_2561)" fill-opacity="0.2"/>
<path d="M72.3304 46.064C72.126 46.7998 71.929 47.5284 71.7246 48.2643C71.8268 47.4996 71.8341 46.7132 72.3304 46.064Z" fill="url(#paint8_linear_1040_2561)" fill-opacity="0.2"/>
<path d="M47.6767 38.9436C47.5746 39.023 47.4651 39.0951 47.3629 39.1817C47.2534 39.261 47.1367 39.3476 47.0053 39.4414L46.9834 39.427C47.2096 39.261 47.4359 39.0951 47.6622 38.9292C47.6622 38.9364 47.6767 38.9436 47.6767 38.9436Z" fill="url(#paint9_linear_1040_2561)" fill-opacity="0.2"/>
<path d="M47.0046 39.4414C46.9754 39.4559 46.9462 39.4703 46.917 39.4775C46.9389 39.4631 46.9608 39.4414 46.9827 39.427L47.0046 39.4414Z" fill="url(#paint10_linear_1040_2561)" fill-opacity="0.2"/>
<path d="M76.549 40.4082C76.2862 40.5813 76.0235 40.7545 75.7607 40.9276C75.9359 40.6174 76.1768 40.4226 76.549 40.4082Z" fill="url(#paint11_linear_1040_2561)" fill-opacity="0.2"/>
<path d="M72.8344 44.7292C72.6884 45.0395 72.5425 45.3569 72.3965 45.6671C72.5498 45.3569 72.6957 45.0467 72.8344 44.7292Z" fill="url(#paint12_linear_1040_2561)" fill-opacity="0.2"/>
<path d="M65.1414 67.6485C61.7914 70.123 58.4268 72.5902 55.0623 75.0502C54.3178 75.5912 53.7412 75.4974 53.1793 74.7688C52.2597 73.5713 51.3693 72.3593 50.4715 71.1546C50.3694 71.0247 50.2234 70.8732 50.2234 70.7289C50.2307 70.0508 49.749 69.7045 49.3257 69.3078C43.2023 63.5509 37.0789 57.7869 30.9555 52.0229C30.7512 51.8281 30.5687 51.6261 30.3716 51.4241C30.3644 51.4313 30.3571 51.4241 30.3644 51.4169C30.4811 51.3159 30.4957 51.287 30.5176 51.2798C30.5468 51.2654 30.576 51.2654 30.6052 51.2726C30.6125 51.2726 30.6125 51.2726 30.6198 51.2798C32.3641 50.1544 42.5819 42.6879 46.545 39.7878C46.5231 39.7518 46.5012 39.7085 46.4793 39.6724C46.6253 39.6147 46.7712 39.5498 46.9172 39.4776C46.9391 39.4632 46.961 39.4416 46.9829 39.4271C47.2091 39.2612 47.4354 39.0953 47.6616 38.9294C47.6689 38.9294 47.6835 38.9221 47.6908 38.9221C47.8076 38.7562 47.9244 38.5831 48.1142 38.3162C48.3477 38.6841 48.5229 38.951 48.6834 39.2323C52.7852 46.3743 56.8796 53.5162 60.974 60.6581C61.2513 61.1342 61.4484 61.6537 62.1417 61.7186C62.3461 61.7402 62.5651 61.9927 62.711 62.1803C63.6233 63.3778 64.5283 64.5753 65.4187 65.7945C65.9661 66.5376 65.8931 67.0931 65.1414 67.6485Z" fill="url(#paint13_linear_1040_2561)" fill-opacity="0.2"/>
<path d="M65.1414 67.6485C61.7914 70.123 58.4268 72.5902 55.0623 75.0502C54.3178 75.5912 53.7412 75.4974 53.1793 74.7688C52.2597 73.5713 51.3693 72.3593 50.4715 71.1546C50.3694 71.0247 50.2234 70.8732 50.2234 70.7289C50.2307 70.0508 49.749 69.7045 49.3257 69.3078C43.2023 63.5509 37.0789 57.7869 30.9555 52.0229C30.7512 51.8281 30.5687 51.6261 30.3716 51.4241C30.3644 51.4313 30.3571 51.4241 30.3644 51.4169C30.4811 51.3159 30.4957 51.287 30.5176 51.2798C30.5468 51.2654 30.576 51.2654 30.6052 51.2726C30.6125 51.2726 30.6125 51.2726 30.6198 51.2798C30.6636 51.287 30.7147 51.2943 30.7512 51.3303C37.1665 57.3829 43.5818 63.4427 50.0044 69.5025C50.019 69.517 50.0482 69.5314 50.0774 69.5386C50.0993 69.553 50.1285 69.5603 50.2672 69.5963C53.858 66.9776 57.5072 64.3156 61.1784 61.6464C61.0397 61.3795 60.9448 61.1847 60.8426 60.9972C56.7409 53.848 52.6392 46.7061 48.5375 39.5642C48.4426 39.3911 48.3404 39.2323 48.2455 39.0592C48.1142 38.8284 47.9317 38.85 47.7419 38.9077C47.7273 38.9077 47.7127 38.9149 47.6908 38.9221C47.8076 38.7562 47.9244 38.5831 48.1142 38.3162C48.3477 38.6841 48.5229 38.951 48.6834 39.2323C52.7852 46.3743 56.8796 53.5162 60.974 60.6581C61.2513 61.1342 61.4484 61.6537 62.1417 61.7186C62.3461 61.7402 62.5651 61.9927 62.711 62.1803C63.6233 63.3778 64.5283 64.5753 65.4187 65.7945C65.9661 66.5376 65.8931 67.0931 65.1414 67.6485Z" fill="url(#paint14_linear_1040_2561)"/>
<path d="M49.7126 49.0579C51.1212 50.9335 52.4495 52.7082 53.8435 54.5694C50.6249 56.9284 47.4647 59.2441 44.2387 61.6103C42.8447 59.7563 41.5018 57.96 40.0859 56.0771C43.3045 53.7326 46.4721 51.4241 49.7126 49.0579Z" fill="url(#paint15_linear_1040_2561)"/>
<path d="M46.4795 39.6723C46.6255 39.6146 46.7714 39.5497 46.9174 39.4775C46.8079 39.5641 46.7057 39.6579 46.5963 39.7445C46.5817 39.7589 46.5598 39.7733 46.5452 39.7877C46.5233 39.7517 46.5014 39.7084 46.4795 39.6723Z" fill="url(#paint16_linear_1040_2561)" fill-opacity="0.2"/>
<path d="M30.3646 51.4169C30.3573 51.4241 30.3646 51.4313 30.3646 51.4169ZM30.3646 51.4169C30.3938 51.4169 30.4813 51.3664 30.62 51.2798C32.3643 50.1544 42.5822 42.6878 46.5452 39.7878C46.5598 39.7734 46.5817 39.7589 46.5963 39.7445C46.7423 39.6363 46.8809 39.5353 47.005 39.4415C47.1364 39.3477 47.2532 39.2612 47.3626 39.1818C47.5086 39.0736 47.64 38.9798 47.7422 38.9077C47.983 38.7273 48.1144 38.6335 48.1144 38.6335" stroke="url(#paint17_linear_1040_2561)" stroke-opacity="0.2" stroke-miterlimit="10"/>
<path d="M93.7367 51.7847C92.5763 57.289 91.4012 62.7934 90.2262 68.2977C89.8102 70.2527 88.3578 71.2194 86.3799 70.8154C81.1688 69.7477 75.9577 68.6512 70.7394 67.5763C69.8708 67.3959 69.1775 66.9847 68.7031 66.2417C68.6009 66.083 68.579 65.8882 68.5133 65.7078V65.7006C68.1922 65.2966 68.163 64.8061 68.2506 64.3372C68.4184 63.4282 68.6593 62.5264 68.871 61.6247C68.8418 61.8555 68.8199 62.0936 68.7907 62.3244L71.8706 47.1533C71.8706 47.1533 73.3522 42.7383 74.7535 41.6994C74.7535 41.6994 76.3373 40.2999 77.5342 39.6434C77.6729 39.5713 77.8188 39.4992 77.9648 39.427C79.0815 38.8787 80.2565 38.518 81.5191 38.4026C81.6797 38.3882 81.833 38.3449 81.9279 38.3305C81.8914 38.0347 81.8038 37.7822 81.8549 37.5586C82.3439 35.1996 82.811 32.8334 83.3657 30.4888C83.789 28.7141 85.5187 27.7186 87.2995 28.0649C89.1241 28.4111 90.2773 30.2147 89.9488 31.8234C89.4744 34.1824 88.9708 36.5414 88.46 38.9004C88.4089 39.124 88.241 39.326 88.1023 39.5857C88.1972 39.6434 88.3578 39.7516 88.5256 39.8526C92.7514 42.4353 94.7512 47.009 93.7367 51.7847Z" fill="url(#paint18_linear_1040_2561)" fill-opacity="0.2"/>
<path d="M93.7371 51.7847C92.5766 57.289 91.4016 62.7934 90.2265 68.2977C89.8105 70.2527 88.3581 71.2194 86.3802 70.8154C81.1692 69.7477 75.9581 68.6512 70.7397 67.5763C69.8712 67.3959 69.1778 66.9847 68.7034 66.2417C68.6013 66.083 68.5794 65.8882 68.5137 65.7078V65.7006C68.521 65.7006 68.521 65.7078 68.5283 65.715C68.594 65.7583 68.6669 65.8016 68.7034 65.8593C69.2143 66.7539 70.0317 67.1579 71.0097 67.3599C73.7321 67.9081 76.4544 68.4853 79.1694 69.0479C81.483 69.5241 83.7893 70.0002 86.0956 70.4763C86.3146 70.5196 86.5335 70.5629 86.7598 70.5918C88.3435 70.7938 89.577 69.9425 89.9273 68.3987C90.2119 67.1579 90.4601 65.9026 90.7228 64.6546C91.657 60.2324 92.635 55.8174 93.5254 51.3879C94.7151 45.4652 90.5914 39.6867 84.5629 38.7272C82.0888 38.3305 79.7606 38.72 77.5491 39.8743C77.3521 39.9753 77.1477 40.0763 76.9507 40.1701C77.1404 39.9897 77.3083 39.7661 77.5345 39.6434C77.6732 39.5713 77.8192 39.4992 77.9651 39.427C79.0818 38.8787 80.2569 38.518 81.5195 38.4026C81.68 38.3882 81.8333 38.3449 81.9282 38.3305C81.8917 38.0347 81.8041 37.7822 81.8552 37.5586C82.3442 35.1996 82.8113 32.8334 83.366 30.4888C83.7893 28.7141 85.519 27.7186 87.2999 28.0649C89.1245 28.4111 90.2776 30.2147 89.9492 31.8234C89.4748 34.1824 88.9712 36.5414 88.4603 38.9004C88.4092 39.124 88.2413 39.326 88.1027 39.5857C88.1976 39.6434 88.3581 39.7516 88.526 39.8526C92.7518 42.4353 94.7516 47.009 93.7371 51.7847Z" fill="url(#paint19_linear_1040_2561)"/>
<path d="M68.9001 61.5886C68.8709 61.8195 68.9293 62.072 68.9001 62.3028L68.9366 61.9349C68.9074 62.1874 68.9658 61.9638 68.9074 62.2018C68.6811 63.0819 68.163 64.9359 68.7687 65.881C68.776 65.8882 68.6811 66.0902 68.6811 66.0974C68.6738 66.0902 68.1411 65.2894 68.287 64.3011C68.4111 63.3921 68.6884 62.4904 68.9001 61.5886Z" fill="url(#paint20_linear_1040_2561)"/>
<path d="M70.8932 52.1309C70.718 52.9749 70.5502 53.8189 70.375 54.663C70.5502 53.8262 70.7253 52.9749 70.8932 52.1309Z" fill="url(#paint21_linear_1040_2561)" fill-opacity="0.2"/>
<path d="M69.5494 58.4648C69.3743 59.3089 69.2064 60.1529 69.0312 60.997C69.1991 60.1529 69.3743 59.3089 69.5494 58.4648Z" fill="url(#paint22_linear_1040_2561)" fill-opacity="0.2"/>
<path d="M71.2939 57.2963C72.0311 53.8191 72.7536 50.4068 73.4689 47.0234C74.206 46.8936 89.7298 50.2553 91.6274 50.717C90.8976 54.1365 90.1677 57.5632 89.4233 61.062C83.3583 59.7995 77.3881 58.5587 71.2939 57.2963Z" fill="url(#paint23_linear_1040_2561)"/>
<path d="M68.791 62.3389V62.3244L71.871 47.1533C71.871 47.1533 73.3525 42.7383 74.7538 41.6994C74.7538 41.6994 76.3376 40.2999 77.5345 39.6434C77.6878 39.5569 77.8338 39.4847 77.9652 39.427" stroke="url(#paint24_linear_1040_2561)" stroke-width="0.25" stroke-miterlimit="10"/>
<path d="M79.111 78.9456H66.2949V81.86H79.111V78.9456Z" fill="url(#paint25_linear_1040_2561)"/>
</g>
<defs>
<filter id="filter0_b_1040_2561" x="-1.4268" y="-1.38773" width="140.854" height="137.867" filterUnits="userSpaceOnUse" color-interpolation-filters="sRGB">
<feFlood flood-opacity="0" result="BackgroundImageFix"/>
<feGaussianBlur in="BackgroundImageFix" stdDeviation="1.7134"/>
<feComposite in2="SourceAlpha" operator="in" result="effect1_backgroundBlur_1040_2561"/>
<feBlend mode="normal" in="SourceGraphic" in2="effect1_backgroundBlur_1040_2561" result="shape"/>
</filter>
<filter id="filter1_f_1040_2561" x="0" y="0.0383301" width="138" height="135.014" filterUnits="userSpaceOnUse" color-interpolation-filters="sRGB">
<feFlood flood-opacity="0" result="BackgroundImageFix"/>
<feBlend mode="normal" in="SourceGraphic" in2="BackgroundImageFix" result="shape"/>
<feGaussianBlur stdDeviation="2.5" result="effect1_foregroundBlur_1040_2561"/>
</filter>
<linearGradient id="paint0_linear_1040_2561" x1="133" y1="14.5" x2="69" y2="134" gradientUnits="userSpaceOnUse">
<stop stop-color="#454343"/>
<stop offset="0.404952" stop-color="#4D4C4C" stop-opacity="0.2"/>
<stop offset="1" stop-color="#3C3A3A" stop-opacity="0.2"/>
</linearGradient>
<linearGradient id="paint1_linear_1040_2561" x1="115.5" y1="15" x2="69" y2="131" gradientUnits="userSpaceOnUse">
<stop stop-color="#5E5C5C"/>
<stop offset="0.356744" stop-color="#908D8D" stop-opacity="0.1"/>
<stop offset="1" stop-color="#C4C0C0" stop-opacity="0.05"/>
</linearGradient>
<linearGradient id="paint2_linear_1040_2561" x1="47.6666" y1="38.9221" x2="47.6886" y2="38.95" gradientUnits="userSpaceOnUse">
<stop stop-color="#96ADBC"/>
<stop offset="0.439" stop-color="#ACA4BE"/>
<stop offset="1" stop-color="#383746"/>
</linearGradient>
<linearGradient id="paint3_linear_1040_2561" x1="64.8696" y1="75.6128" x2="69.1164" y2="88.6584" gradientUnits="userSpaceOnUse">
<stop stop-color="#96ADBC"/>
<stop offset="0.439" stop-color="#ACA4BE"/>
<stop offset="1" stop-color="#383746"/>
</linearGradient>
<linearGradient id="paint4_linear_1040_2561" x1="72.6954" y1="75.6128" x2="72.6954" y2="82.8269" gradientUnits="userSpaceOnUse">
<stop stop-color="#A6A6BE"/>
<stop offset="0.5" stop-color="#5E6178"/>
<stop offset="1" stop-color="#313647"/>
</linearGradient>
<linearGradient id="paint5_linear_1040_2561" x1="60.7713" y1="74.7272" x2="84.6351" y2="74.7272" gradientUnits="userSpaceOnUse">
<stop stop-color="white"/>
<stop offset="0.9955" stop-color="#5C5C5C"/>
</linearGradient>
<linearGradient id="paint6_linear_1040_2561" x1="71.1594" y1="48.2209" x2="72.4493" y2="48.485" gradientUnits="userSpaceOnUse">
<stop stop-color="#96ADBC"/>
<stop offset="0.439" stop-color="#ACA4BE"/>
<stop offset="1" stop-color="#383746"/>
</linearGradient>
<linearGradient id="paint7_linear_1040_2561" x1="74.4951" y1="40.8987" x2="76.1005" y2="42.4039" gradientUnits="userSpaceOnUse">
<stop stop-color="#96ADBC"/>
<stop offset="0.439" stop-color="#ACA4BE"/>
<stop offset="1" stop-color="#383746"/>
</linearGradient>
<linearGradient id="paint8_linear_1040_2561" x1="71.818" y1="46.064" x2="72.9242" y2="46.3623" gradientUnits="userSpaceOnUse">
<stop stop-color="#96ADBC"/>
<stop offset="0.439" stop-color="#ACA4BE"/>
<stop offset="1" stop-color="#383746"/>
</linearGradient>
<linearGradient id="paint9_linear_1040_2561" x1="47.0903" y1="38.9292" x2="47.5827" y2="39.5822" gradientUnits="userSpaceOnUse">
<stop stop-color="#96ADBC"/>
<stop offset="0.439" stop-color="#ACA4BE"/>
<stop offset="1" stop-color="#383746"/>
</linearGradient>
<linearGradient id="paint10_linear_1040_2561" x1="46.9305" y1="39.427" x2="46.9746" y2="39.502" gradientUnits="userSpaceOnUse">
<stop stop-color="#96ADBC"/>
<stop offset="0.439" stop-color="#ACA4BE"/>
<stop offset="1" stop-color="#383746"/>
</linearGradient>
<linearGradient id="paint11_linear_1040_2561" x1="75.8822" y1="40.4082" x2="76.3633" y2="41.1233" gradientUnits="userSpaceOnUse">
<stop stop-color="#96ADBC"/>
<stop offset="0.439" stop-color="#ACA4BE"/>
<stop offset="1" stop-color="#383746"/>
</linearGradient>
<linearGradient id="paint12_linear_1040_2561" x1="72.464" y1="44.7292" x2="73.1734" y2="45.0537" gradientUnits="userSpaceOnUse">
<stop stop-color="#96ADBC"/>
<stop offset="0.439" stop-color="#ACA4BE"/>
<stop offset="1" stop-color="#383746"/>
</linearGradient>
<linearGradient id="paint13_linear_1040_2561" x1="35.8191" y1="38.3162" x2="72.8166" y2="72.9262" gradientUnits="userSpaceOnUse">
<stop stop-color="#96ADBC"/>
<stop offset="0.439" stop-color="#ACA4BE"/>
<stop offset="1" stop-color="#383746"/>
</linearGradient>
<linearGradient id="paint14_linear_1040_2561" x1="30.3669" y1="56.8595" x2="65.7727" y2="56.8595" gradientUnits="userSpaceOnUse">
<stop stop-color="white"/>
<stop offset="0.9955" stop-color="#5C5C5C"/>
</linearGradient>
<linearGradient id="paint15_linear_1040_2561" x1="40.0881" y1="55.3353" x2="53.8422" y2="55.3353" gradientUnits="userSpaceOnUse">
<stop stop-color="white"/>
<stop offset="0.9955" stop-color="#5C5C5C"/>
</linearGradient>
<linearGradient id="paint16_linear_1040_2561" x1="46.547" y1="39.4775" x2="46.8416" y2="39.8849" gradientUnits="userSpaceOnUse">
<stop stop-color="#96ADBC"/>
<stop offset="0.439" stop-color="#ACA4BE"/>
<stop offset="1" stop-color="#383746"/>
</linearGradient>
<linearGradient id="paint17_linear_1040_2561" x1="33.0972" y1="38.6335" x2="45.3089" y2="55.2334" gradientUnits="userSpaceOnUse">
<stop stop-color="#96ADBC"/>
<stop offset="0.439" stop-color="#ACA4BE"/>
<stop offset="1" stop-color="#383746"/>
</linearGradient>
<linearGradient id="paint18_linear_1040_2561" x1="72.1823" y1="27.9966" x2="109.7" y2="50.0813" gradientUnits="userSpaceOnUse">
<stop stop-color="#96ADBC"/>
<stop offset="0.439" stop-color="#ACA4BE"/>
<stop offset="1" stop-color="#383746"/>
</linearGradient>
<linearGradient id="paint19_linear_1040_2561" x1="68.5177" y1="49.4552" x2="93.9946" y2="49.4552" gradientUnits="userSpaceOnUse">
<stop stop-color="white"/>
<stop offset="0.9955" stop-color="#5C5C5C"/>
</linearGradient>
<linearGradient id="paint20_linear_1040_2561" x1="68.5992" y1="61.5886" x2="68.5992" y2="66.0974" gradientUnits="userSpaceOnUse">
<stop stop-color="#A6A6BE"/>
<stop offset="0.5" stop-color="#5E6178"/>
<stop offset="1" stop-color="#313647"/>
</linearGradient>
<linearGradient id="paint21_linear_1040_2561" x1="70.4549" y1="52.1309" x2="71.4307" y2="52.3265" gradientUnits="userSpaceOnUse">
<stop stop-color="#96ADBC"/>
<stop offset="0.439" stop-color="#ACA4BE"/>
<stop offset="1" stop-color="#383746"/>
</linearGradient>
<linearGradient id="paint22_linear_1040_2561" x1="69.1111" y1="58.4648" x2="70.087" y2="58.6604" gradientUnits="userSpaceOnUse">
<stop stop-color="#96ADBC"/>
<stop offset="0.439" stop-color="#ACA4BE"/>
<stop offset="1" stop-color="#383746"/>
</linearGradient>
<linearGradient id="paint23_linear_1040_2561" x1="71.2971" y1="54.0422" x2="91.6254" y2="54.0422" gradientUnits="userSpaceOnUse">
<stop stop-color="white"/>
<stop offset="0.9955" stop-color="#5C5C5C"/>
</linearGradient>
<linearGradient id="paint24_linear_1040_2561" x1="73.3781" y1="39.427" x2="73.3781" y2="62.3389" gradientUnits="userSpaceOnUse">
<stop stop-color="#A6A6BE"/>
<stop offset="0.5" stop-color="#5E6178"/>
<stop offset="1" stop-color="#313647"/>
</linearGradient>
<linearGradient id="paint25_linear_1040_2561" x1="66.2969" y1="80.4031" x2="79.1097" y2="80.4031" gradientUnits="userSpaceOnUse">
<stop stop-color="white"/>
<stop offset="0.9955" stop-color="#5C5C5C"/>
</linearGradient>
<clipPath id="clip0_1040_2561">
<rect width="64" height="55" fill="white" transform="translate(30 28)"/>
</clipPath>
</defs>
</svg>
