<svg width="28" height="23" viewBox="0 0 28 23" fill="none" xmlns="http://www.w3.org/2000/svg">
<g clip-path="url(#clip0_1043_2765)">
<path d="M23.6751 22.0056V21.0112H4.32489C3.01284 21.0112 1.94377 19.9174 1.94377 18.575V4.42499C1.94377 3.08258 3.01284 1.98876 4.32489 1.98876H23.6751C24.9872 1.98876 26.0465 3.08258 26.0562 4.42499V18.575C26.0562 19.9174 24.9872 21.0013 23.6751 21.0112V22.0056V23C26.066 23 28 21.0212 28 18.575V4.42499C28 1.97882 26.066 0 23.6751 0H4.32489C1.93405 0 0 1.97882 0 4.42499V18.575C0 21.0212 1.93405 23 4.32489 23H23.6751V22.0056Z" fill="#D9D9D9"/>
<path d="M14.7439 9.24773H13.772C13.772 10.1626 13.4027 10.978 12.8001 11.5845C12.1975 12.1911 11.3617 12.569 10.4287 12.569C9.49569 12.569 8.66959 12.1911 8.0573 11.5845C7.45473 10.978 7.08542 10.1526 7.08542 9.24773C7.08542 8.3329 7.45473 7.51751 8.0573 6.91094C8.65987 6.30437 9.49569 5.9265 10.4287 5.9265C11.3617 5.9265 12.1878 6.30437 12.8001 6.91094C13.4027 7.51751 13.772 8.34285 13.772 9.24773H14.7439H15.7158C15.7158 7.77605 15.1132 6.44358 14.1607 5.48898C13.2083 4.53437 11.8865 3.93774 10.4287 3.93774C8.98059 3.93774 7.65883 4.52443 6.69666 5.48898C5.74422 6.44358 5.15137 7.77605 5.15137 9.24773C5.15137 10.7194 5.75394 12.0519 6.70638 13.0065C7.65883 13.9611 8.98059 14.5577 10.4384 14.5577C11.8865 14.5577 13.2083 13.971 14.1705 13.0065C15.1229 12.0519 15.7255 10.7095 15.7255 9.24773H14.7439Z" fill="#D9D9D9"/>
<path d="M17.3479 8.01464H23.3055C23.8401 8.01464 24.2774 7.56717 24.2774 7.02026C24.2774 6.47335 23.8401 6.02588 23.3055 6.02588H17.3479C16.8133 6.02588 16.376 6.47335 16.376 7.02026C16.376 7.57711 16.8133 8.01464 17.3479 8.01464Z" fill="#D9D9D9"/>
<path d="M17.2893 13.8616H23.2469C23.7815 13.8616 24.2188 13.4141 24.2188 12.8672C24.2188 12.3203 23.7815 11.8728 23.2469 11.8728H17.2893C16.7547 11.8728 16.3174 12.3203 16.3174 12.8672C16.3174 13.4141 16.745 13.8616 17.2893 13.8616Z" fill="#D9D9D9"/>
<path d="M4.56807 21.6378C4.93739 20.1462 5.72462 18.8635 6.75481 17.9586C7.78501 17.0537 9.05818 16.5366 10.4285 16.5366C11.7989 16.5366 13.0623 17.0537 14.0925 17.9486C15.1227 18.8436 15.91 20.1164 16.289 21.598L18.1745 21.1008C17.6982 19.2314 16.7069 17.6006 15.356 16.4272C14.0051 15.2539 12.2946 14.5479 10.4383 14.5479C8.57224 14.5479 6.852 15.2638 5.50108 16.4471C4.15016 17.6304 3.14912 19.2712 2.68262 21.1505L4.56807 21.6378Z" fill="#D9D9D9"/>
</g>
<defs>
<clipPath id="clip0_1043_2765">
<rect width="28" height="23" fill="white"/>
</clipPath>
</defs>
</svg>
