<svg width="45" height="48" viewBox="0 0 45 48" fill="none" xmlns="http://www.w3.org/2000/svg">
<path d="M28.5733 21.2002H27.4649C27.4649 22.6023 26.8996 23.8658 25.9796 24.7858C25.0597 25.7058 23.7961 26.271 22.394 26.271C20.9919 26.271 19.7284 25.7058 18.8084 24.7858C17.8885 23.8658 17.3232 22.6023 17.3232 21.2002C17.3232 19.7981 17.8885 18.5345 18.8084 17.6146C19.7284 16.6946 20.9919 16.1294 22.394 16.1294C23.7961 16.1294 25.0597 16.6946 25.9796 17.6146C26.8996 18.5345 27.4649 19.7981 27.4649 21.2002H28.5733H29.6816C29.6816 17.1768 26.4175 13.9126 22.394 13.9126C18.3706 13.9126 15.1064 17.1768 15.1064 21.2002C15.1064 25.2236 18.3706 28.4878 22.394 28.4878C26.4175 28.4878 29.6816 25.2236 29.6816 21.2002H28.5733Z" fill="#888484"/>
<path d="M11.3107 11.1861H10.2024C10.2024 11.9232 9.9031 12.5827 9.42095 13.0704C8.93327 13.5525 8.27378 13.8518 7.53671 13.8518C6.79964 13.8518 6.14015 13.5525 5.65246 13.0704C5.17032 12.5827 4.87106 11.9232 4.87106 11.1861C4.87106 10.449 5.17032 9.78956 5.65246 9.30188C6.14015 8.81973 6.79964 8.52047 7.53671 8.52047C8.27378 8.52047 8.93327 8.81973 9.42095 9.30188C9.9031 9.78956 10.2024 10.449 10.2024 11.1861H11.3107H12.4191C12.4191 8.48722 10.2356 6.30371 7.53671 6.30371C4.8378 6.30371 2.6543 8.48722 2.6543 11.1861C2.6543 13.885 4.8378 16.0685 7.53671 16.0685C10.2356 16.0685 12.4191 13.885 12.4191 11.1861H11.3107Z" fill="#D9D9D9"/>
<path d="M26.1418 5.15097H25.0334C25.0334 5.88804 24.7342 6.54752 24.252 7.03521C23.7643 7.51736 23.1048 7.81662 22.3678 7.81662C21.6307 7.81662 20.9712 7.51736 20.4835 7.03521C20.0014 6.54752 19.7021 5.88804 19.7021 5.15097C19.7021 4.41389 20.0014 3.75441 20.4835 3.26672C20.9712 2.78458 21.6307 2.48531 22.3733 2.48531C23.1104 2.48531 23.7699 2.78458 24.2575 3.26672C24.7397 3.75441 25.039 4.41389 25.039 5.15097H26.1418H27.2502C27.2502 2.4576 25.0667 0.268555 22.3678 0.268555C19.6689 0.268555 17.4854 2.45206 17.4854 5.15097C17.4854 7.84987 19.6689 10.0334 22.3678 10.0334C25.0667 10.0334 27.2502 7.84987 27.2502 5.15097H26.1418Z" fill="#D9D9D9"/>
<path d="M40.4836 11.1861H39.3752C39.3752 11.9232 39.0759 12.5827 38.5938 13.0704C38.1061 13.5525 37.4466 13.8518 36.7096 13.8518C35.9725 13.8518 35.313 13.5525 34.8253 13.0704C34.3432 12.5827 34.0439 11.9232 34.0439 11.1861C34.0439 10.449 34.3432 9.78956 34.8253 9.30188C35.313 8.81973 35.9725 8.52047 36.7096 8.52047C37.4466 8.52047 38.1061 8.81973 38.5938 9.30188C39.0759 9.78956 39.3752 10.449 39.3752 11.1861H40.4836H41.592C41.592 8.48722 39.4085 6.30371 36.7096 6.30371C34.0107 6.30371 31.8271 8.48722 31.8271 11.1861C31.8271 13.885 34.0107 16.0685 36.7096 16.0685C39.4029 16.0685 41.592 13.885 41.592 11.1861H40.4836Z" fill="#D9D9D9"/>
<path d="M13.3006 46.7817L14.6639 39.6216C14.6916 39.4664 14.7082 39.3168 14.7082 39.1616C14.7082 38.5908 14.5087 38.0532 14.1651 37.621C13.8215 37.1942 13.3172 36.8728 12.7353 36.762C11.6269 36.5569 9.85349 36.036 8.00804 34.7669C6.16259 33.4922 4.22293 31.475 2.76541 28.1554L1.75124 28.5987L2.79312 28.2164C2.77095 28.1997 2.62686 27.7896 2.48831 27.2188C2.34422 26.6425 2.21676 25.8943 2.21676 25.2237C2.21676 24.9134 2.24447 24.6197 2.29989 24.3758C2.38302 23.999 2.52156 23.7496 2.68782 23.5833C2.77649 23.5002 2.87624 23.4282 3.01479 23.3672C3.15888 23.3062 3.34731 23.2564 3.60223 23.2342C3.67982 23.2286 3.75741 23.2231 3.82945 23.2231C4.39472 23.2231 4.94337 23.3949 5.43106 23.6997C5.9132 24.0045 6.32885 24.4534 6.6004 24.9854C7.17121 26.0938 7.99696 27.5402 9.03883 28.8537C9.55977 29.5132 10.1361 30.1394 10.779 30.6714C11.4219 31.2034 12.1312 31.6523 12.9292 31.9128L13.0733 31.9571L22.3228 32.3894C22.9324 32.4171 23.4533 31.9461 23.481 31.3364C23.5087 30.7268 23.0377 30.2059 22.4281 30.1782L13.3283 29.7515L13.2784 30.8598L13.622 29.8069C13.1786 29.6628 12.6909 29.3746 12.2033 28.9701C11.4717 28.366 10.7513 27.5015 10.1306 26.5926C9.50435 25.6893 8.97233 24.7416 8.57886 23.9713C8.12442 23.0846 7.44831 22.3475 6.62811 21.8321C5.81345 21.3112 4.84916 21.0063 3.84053 21.0063C3.70753 21.0063 3.56898 21.0119 3.43598 21.023C2.82637 21.0729 2.26664 21.2336 1.79557 21.5051C1.07513 21.9097 0.598525 22.5636 0.34914 23.2231C0.0775865 23.8937 0 24.5753 0 25.2237C0 26.1936 0.177341 27.1135 0.34914 27.8063C0.520938 28.499 0.692737 28.959 0.698279 28.9867L0.709363 29.0199L0.720447 29.0532C2.33868 32.7385 4.57206 35.116 6.73895 36.6012C8.90583 38.092 10.984 38.6961 12.3141 38.951L12.4305 39.0231C12.4637 39.0618 12.4804 39.1173 12.4804 39.1671L12.4748 39.2115L11.1115 46.3716C10.9951 46.9757 11.3941 47.552 11.9927 47.6684C12.6023 47.7737 13.1842 47.3802 13.3006 46.7817Z" fill="#888484"/>
<path d="M33.8894 46.3662L32.5261 39.2061L32.5205 39.1618C32.5205 39.1119 32.5427 39.0565 32.5704 39.0177L32.6868 38.9456C34.0224 38.6963 36.1006 38.0866 38.2619 36.5959C40.4288 35.1106 42.6622 32.7332 44.2804 29.0478L44.2915 29.0146L44.3026 28.9813C44.3137 28.9536 44.4799 28.4936 44.6517 27.8009C44.8235 27.1081 44.9953 26.1937 45.0009 25.2184C45.0009 24.7861 44.9676 24.3372 44.8679 23.8883C44.7238 23.2233 44.4245 22.5305 43.8537 21.9819C43.5711 21.7103 43.233 21.4831 42.8451 21.3169C42.4571 21.1561 42.0304 21.0564 41.576 21.0176C41.4374 21.0065 41.3044 21.001 41.1714 21.001C40.1628 21.001 39.1985 21.3058 38.3838 21.8267C37.5692 22.3477 36.8875 23.0847 36.4331 23.9659C35.9066 24.9911 35.1308 26.3323 34.2274 27.4739C33.7785 28.0447 33.2908 28.5601 32.8087 28.9647C32.321 29.3692 31.8389 29.6574 31.39 29.8015L31.7336 30.8545L31.6837 29.7461L22.5839 30.1728C21.9743 30.2005 21.4977 30.7215 21.5309 31.3311C21.5586 31.9407 22.0796 32.4173 22.6892 32.384L31.9386 31.9518L32.0827 31.9074C32.8807 31.647 33.5901 31.1981 34.233 30.666C35.1917 29.8625 36.0119 28.8594 36.7102 27.8452C37.4085 26.8311 37.9793 25.8113 38.4116 24.9801C38.6831 24.448 39.0932 24.0047 39.5809 23.6943C40.063 23.384 40.6172 23.2177 41.1825 23.2177C41.2601 23.2177 41.3321 23.2233 41.4097 23.2288C41.7533 23.2565 41.9695 23.3341 42.1246 23.4228C42.3518 23.5558 42.4904 23.7276 42.6123 24.0269C42.7287 24.3261 42.7952 24.7473 42.7952 25.2128C42.7952 25.9056 42.6566 26.6814 42.5126 27.2578C42.4405 27.5515 42.3685 27.7953 42.3131 27.9616C42.2853 28.0447 42.2632 28.1112 42.2521 28.15L42.2355 28.1944L42.2299 28.2054L43.2718 28.5878L42.2576 28.1445C40.7946 31.4641 38.8604 33.4813 37.015 34.756C35.1695 36.0251 33.3906 36.546 32.2878 36.751C31.7003 36.8619 31.2015 37.1778 30.8579 37.61C30.5144 38.0368 30.3148 38.5743 30.3148 39.1507C30.3148 39.3003 30.3315 39.4555 30.3592 39.6107L31.7225 46.7708C31.8389 47.3749 32.4152 47.7683 33.0193 47.652C33.6067 47.5467 34.0002 46.9703 33.8894 46.3662Z" fill="#888484"/>
</svg>
