<svg width="42" height="42" viewBox="0 0 42 42" fill="none" xmlns="http://www.w3.org/2000/svg">
<path d="M0.811035 15.0176C0.897615 14.7865 0.985547 14.5567 1.06942 14.3256C1.67683 12.6564 3.21091 11.5224 4.98444 11.5116C8.60996 11.4913 12.2355 11.4832 15.861 11.5143C18.1567 11.5332 19.9992 13.4457 20.0101 15.7312C20.0222 18.0518 18.1784 19.99 15.8542 20.0089C12.2287 20.04 8.60319 20.0292 4.97768 20.0103C3.21091 20.0008 1.66601 18.8574 1.06536 17.1922C0.982841 16.9625 0.896262 16.7341 0.811035 16.5043C0.811035 16.0096 0.811035 15.5136 0.811035 15.0176Z" fill="#4F4F52"/>
<path d="M14.8799 41.3732C14.2684 41.0556 13.5893 40.8772 13.0482 40.4122C12.0701 39.5729 11.5047 38.5268 11.4965 37.2401C11.4762 33.5936 11.4668 29.9471 11.4992 26.3006C11.5195 24.0434 13.4243 22.2188 15.6889 22.1931C17.9846 22.1675 19.9624 23.9705 19.9935 26.2546C20.0436 29.9457 20.0287 33.6382 19.9935 37.3293C19.9773 39.0458 18.7963 40.5447 17.1283 41.138C16.9186 41.2124 16.7103 41.2935 16.5019 41.3719C15.9622 41.3732 15.421 41.3732 14.8799 41.3732Z" fill="#4F4F52"/>
<path d="M27.1907 0.826172C27.7913 1.11676 28.4555 1.26138 28.9994 1.68982C30.0735 2.53861 30.689 3.62931 30.6971 4.99439C30.7201 8.61929 30.7255 12.2428 30.6971 15.8677C30.6795 18.164 28.7707 20.0062 26.4791 20.017C24.1414 20.0279 22.2137 18.1992 22.1934 15.8691C22.1623 12.2455 22.1704 8.62065 22.192 4.99575C22.2029 3.2306 23.3582 1.68576 25.0194 1.08432C25.248 1.00187 25.5145 1.01539 25.7026 0.827525C26.1991 0.826173 26.6942 0.826172 27.1907 0.826172Z" fill="#4F4F52"/>
<path d="M41.3954 27.1815C41.133 27.6748 41.0477 28.2397 40.7285 28.7155C39.8911 29.9643 38.7371 30.6807 37.2342 30.6928C33.6073 30.7226 29.9791 30.7239 26.3509 30.6969C24.0159 30.6793 22.1788 28.7628 22.1856 26.4286C22.1923 24.1418 24.0308 22.2226 26.3279 22.2009C29.9547 22.1671 33.583 22.178 37.2112 22.1982C39.005 22.2077 40.5607 23.3822 41.1533 25.0798C41.225 25.2866 41.2114 25.5312 41.3954 25.6947C41.3954 26.1908 41.3954 26.6868 41.3954 27.1815Z" fill="#4F4F52"/>
<path d="M0.811035 25.6949C1.15465 24.7123 1.56049 23.7756 2.42764 23.1147C3.16762 22.5511 3.98742 22.2146 4.91409 22.197C6.2182 22.1727 7.52366 22.197 8.82776 22.1808C9.19302 22.1767 9.34994 22.2754 9.34318 22.6714C9.32289 24.0189 9.36618 25.3691 9.32289 26.7166C9.26066 28.6832 7.70358 30.3537 5.70413 30.6673C3.75068 30.9741 1.76341 29.7996 1.08565 27.9371C0.995017 27.6857 0.903026 27.4343 0.811035 27.1816C0.811035 26.6869 0.811035 26.1909 0.811035 25.6949Z" fill="#4F4F52"/>
<path d="M16.5036 0.826172C16.7322 1.03296 17.0461 1.01539 17.3099 1.13298C18.9617 1.86823 19.9073 3.12383 19.9965 4.93223C20.0615 6.23379 19.9938 7.54075 20.0209 8.84501C20.0304 9.28292 19.8545 9.36806 19.4649 9.36265C18.2271 9.34373 16.9879 9.36671 15.7501 9.35319C13.5856 9.32886 11.8391 7.81917 11.528 5.72424C11.2195 3.64283 12.4695 1.68847 14.5272 1.0235C14.6935 0.969441 14.8924 0.989713 15.0155 0.827525C15.512 0.826173 16.0071 0.826172 16.5036 0.826172Z" fill="#4F4F52"/>
<path d="M25.7024 41.373C25.4089 41.2649 25.1072 41.1716 24.8231 41.0446C23.1957 40.3174 22.2839 39.0632 22.1986 37.2845C22.1364 35.9843 22.1986 34.6774 22.1729 33.3745C22.1648 32.9514 22.3123 32.8392 22.7168 32.846C23.9532 32.869 25.1911 32.846 26.4275 32.8568C28.6015 32.8757 30.3804 34.4246 30.674 36.5385C30.9581 38.5861 29.7054 40.531 27.687 41.1811C27.5179 41.2352 27.3555 41.3081 27.1891 41.373C26.694 41.373 26.1989 41.373 25.7024 41.373Z" fill="#4F4F52"/>
<path d="M41.3952 16.5045C41.2017 16.6896 41.218 16.9572 41.1354 17.1843C40.5199 18.8616 39.0048 19.9834 37.2326 20.0172C35.9501 20.0415 34.6663 20.0077 33.3839 20.0321C32.9645 20.0402 32.8441 19.8956 32.8509 19.4887C32.8725 18.2291 32.8427 16.9694 32.8644 15.7098C32.9009 13.5594 34.4336 11.8375 36.5508 11.5388C38.561 11.255 40.5159 12.4957 41.1774 14.4663C41.2396 14.6515 41.2207 14.8758 41.3979 15.0178C41.3952 15.5138 41.3952 16.0098 41.3952 16.5045Z" fill="#4F4F52"/>
</svg>
