<svg width="39" height="39" viewBox="0 0 39 39" fill="none" xmlns="http://www.w3.org/2000/svg">
<path d="M26.8924 0.589355H11.2684C5.11745 0.589355 0.12915 5.57767 0.12915 11.7287V27.3526C0.12915 33.5036 5.11745 38.4919 11.2684 38.4919H26.8924C33.0434 38.4919 38.0317 33.5036 38.0317 27.3526V11.7287C38.0317 5.57767 33.0434 0.589355 26.8924 0.589355ZM29.4429 25.8256C28.382 26.1578 26.9889 26.5543 26.9219 26.7552C26.8549 26.9561 27.3211 27.6179 26.7237 27.8831C26.1262 28.1483 23.474 28.0813 23.0106 28.2822C22.5471 28.4832 21.154 30.337 18.1696 30.1388C15.1852 29.9406 14.5208 28.2822 12.9964 28.1483C11.4721 28.0143 10.7755 28.4457 10.079 28.0143C9.84055 27.867 9.58069 27.1758 9.78162 26.7793C9.78162 26.7793 6.43286 25.8256 6.63111 25.2282C6.82935 24.6308 11.4721 23.1064 11.7373 19.5915C11.7373 19.5915 11.9355 18.8629 10.8077 18.2654C9.67981 17.668 8.42069 16.6741 8.81718 16.0767C9.21636 15.4793 11.9998 16.2106 11.9998 16.2106L12.0427 13.0789C12.0614 11.7313 12.5463 10.4213 13.4492 9.42204C14.4109 8.35847 15.9058 7.2574 18.0329 7.12613C22.2765 6.86091 24.334 10.2445 24.5322 11.7688C24.7305 13.2932 24.7305 16.4785 24.7305 16.4785C24.7305 16.4785 27.3157 15.6159 27.5166 15.9481C27.7176 16.2803 28.2453 16.6125 27.1175 17.6064C25.9896 18.6003 25.0627 18.7343 24.8618 19.3317C24.6608 19.9291 26.3861 23.6422 29.8367 24.9683C29.8393 24.963 30.5037 25.4934 29.4429 25.8256Z" fill="#4F4F52"/>
</svg>
