<svg width="20" height="20" viewBox="0 0 20 20" fill="none" xmlns="http://www.w3.org/2000/svg">
<path fill-rule="evenodd" clip-rule="evenodd" d="M9.75699 19.514C15.1456 19.514 19.514 15.1456 19.514 9.75699C19.514 4.36835 15.1456 0 9.75699 0C4.36835 0 0 4.36835 0 9.75699C0 15.1456 4.36835 19.514 9.75699 19.514ZM14.5022 8.20018C14.9895 7.73509 15.0074 6.96308 14.5423 6.47584C14.0772 5.9886 13.3052 5.97065 12.818 6.43574L8.27689 10.7704L6.19079 8.85816C5.69426 8.403 4.92276 8.43655 4.46761 8.93308C4.01245 9.42961 4.046 10.2011 4.54253 10.6563L6.90896 12.8255C7.69775 13.5485 8.91203 13.5363 9.68605 12.7974L14.5022 8.20018Z" fill="#D9D9D9"/>
</svg>
