<svg width="33" height="40" viewBox="0 0 33 40" fill="none" xmlns="http://www.w3.org/2000/svg">
<path d="M10.7746 32.0062C10.7746 32.0062 12.7336 32.0327 13.7098 31.712C15.3744 31.1632 16.5855 29.725 16.9462 28.0125C17.1448 27.0735 17.2407 26.1147 17.2275 25.1526L17.0753 12.0009C17.0488 9.76594 16.8999 7.5343 16.5855 5.32251C16.4565 4.42655 16.3208 3.02475 16.205 0.826172H21.1488C21.1488 0.826172 22.6082 6.16887 30.388 8.84353L30.4674 13.9449C30.4674 13.9449 22.3633 14.1862 21.4731 11.5149L21.9927 24.9212C22.1383 28.72 20.5697 32.4361 17.6047 34.8132C17.4426 34.9421 17.2738 35.071 17.0984 35.1967C15.1328 36.6249 12.7634 37.3985 10.3378 37.5143L10.1062 37.5242C6.47933 37.6994 2.98486 35.8546 1.29719 32.6443C0.602262 31.3186 0.0992748 29.6688 0 27.6256L0.0761042 25.556C0.181997 22.726 1.27072 19.9918 3.26614 17.9784C4.93065 16.2988 7.39597 14.907 10.9401 15.0756L11.1816 19.6909C11.1816 19.6909 8.50785 19.5289 7.77653 20.0149C7.25699 20.3621 5.24502 21.4928 4.61297 24.0881C4.11329 26.1445 5.91678 32.4063 10.7746 32.0062Z" fill="#4F4F52"/>
<path d="M12.3762 34.1322C12.3762 34.1322 14.3352 34.1587 15.3114 33.838C16.9759 33.2892 18.1871 31.851 18.5478 30.1384C18.7463 29.1995 18.8423 28.2407 18.829 27.2786L18.6768 14.1269C18.6503 11.8919 18.5014 9.66028 18.1871 7.44848C18.058 6.55252 17.9223 5.15072 17.8065 2.95215H22.7504C22.7504 2.95215 24.2097 8.29485 31.9896 10.9695L32.069 16.0709C32.069 16.0709 23.9649 16.3122 23.0747 13.6409L23.5942 27.0472C23.7398 30.8459 22.1713 34.562 19.2063 36.9391C19.0441 37.0681 18.8754 37.197 18.7 37.3226C16.7343 38.7509 14.365 39.5245 11.9394 39.6402L11.7077 39.6501C8.08089 39.8254 4.58642 37.9806 2.89875 34.7703C2.20382 33.4446 1.70084 31.7948 1.60156 29.7516L1.67767 27.682C1.78356 24.8519 2.87228 22.1178 4.8677 20.1043C6.53221 18.4248 8.99753 17.0329 12.5416 17.2015L12.7832 21.8169C12.7832 21.8169 10.1094 21.6549 9.37809 22.1409C8.85855 22.488 6.84658 23.6187 6.21453 26.2141C5.71485 28.2705 7.51834 34.5323 12.3762 34.1322Z" fill="#4F4F52"/>
</svg>
