<svg width="37" height="37" viewBox="0 0 37 37" fill="none" xmlns="http://www.w3.org/2000/svg">
<g clip-path="url(#clip0_1028_2826)">
<path d="M5.00424 25.5196L5.72353 26.2314L28.9142 3.28629C29.4856 2.72087 30.2304 2.43815 30.9853 2.43815C31.6995 2.43815 32.4086 2.69058 32.9749 3.21057C33.6023 3.78609 33.9135 4.5585 33.9135 5.34101C33.9135 6.08818 33.6278 6.8303 33.0463 7.40077L10.1311 29.8461L2.05056 33.8445L2.21891 34.1777V33.8092C2.15769 33.8092 2.09137 33.8243 2.05056 33.8445L2.21891 34.1777V33.8092V34.1827L2.48928 33.9152C2.42806 33.8546 2.33624 33.8092 2.21891 33.8092V34.1827L2.48928 33.9152L2.21381 34.1878H2.60151C2.60151 34.0717 2.55049 33.9757 2.48928 33.9152L2.21381 34.1878H2.60151H2.22911L2.576 34.3241C2.59131 34.2887 2.60151 34.2383 2.60151 34.1878H2.22911L2.576 34.3241L5.95309 25.8982L5.00424 25.5196L4.05539 25.146L0.678304 33.5769C0.596682 33.7738 0.555872 33.9858 0.560973 34.1878C0.560973 34.6522 0.759925 35.0612 1.0558 35.3489C1.35168 35.6367 1.75979 35.8235 2.22401 35.8285C2.47397 35.8285 2.73414 35.7679 2.9688 35.6518L11.3401 31.5071L34.4798 8.83453C35.4592 7.87532 35.9541 6.60312 35.9541 5.34101C35.9541 4.02336 35.4184 2.70067 34.3624 1.73137C33.4085 0.857994 32.1944 0.423828 30.9853 0.423828C29.7151 0.423828 28.4347 0.908478 27.4705 1.86263L4.13191 24.9542L4.05539 25.146L5.00424 25.5196Z" fill="#979292"/>
<path d="M24.1241 6.62853L29.71 11.9395C30.1182 12.3282 30.7609 12.3131 31.1537 11.9092C31.5465 11.5053 31.5312 10.8692 31.1231 10.4805L25.5372 5.16953C25.129 4.7808 24.4863 4.79595 24.0935 5.19982C23.7058 5.59865 23.7211 6.2398 24.1241 6.62853Z" fill="#979292"/>
<path d="M4.26976 26.2218L9.51393 31.6186C9.90674 32.0224 10.5495 32.0325 10.9576 31.6489C11.3657 31.2601 11.3759 30.624 10.9882 30.2201L5.73894 24.8234C5.34614 24.4195 4.70337 24.4094 4.29526 24.7931C3.89226 25.1818 3.87695 25.8179 4.26976 26.2218Z" fill="#979292"/>
<path d="M18.5129 27.3423L26.6751 35.6419C27.2311 36.2074 27.9759 36.4951 28.7105 36.4901C29.4451 36.4901 30.1899 36.2074 30.7408 35.6419L36.1942 30.0988C36.7298 29.5535 37.0002 28.8417 37.0002 28.14C37.0002 27.4382 36.7298 26.7264 36.1993 26.1812L28.3534 18.1996C27.9606 17.8008 27.3128 17.7907 26.9097 18.1794C26.5067 18.5681 26.4965 19.2093 26.8893 19.6081L34.7301 27.5897C34.8831 27.7462 34.9546 27.938 34.9546 28.14C34.9546 28.3419 34.8831 28.5337 34.7301 28.6902L29.2819 34.2334C29.1237 34.395 28.9197 34.4707 28.7105 34.4707C28.5014 34.4707 28.2973 34.395 28.1392 34.2334L19.977 25.9338C19.5842 25.535 18.9364 25.5249 18.5334 25.9136C18.1303 26.3023 18.1201 26.9435 18.5129 27.3423Z" fill="#D9D9D9"/>
<path d="M28.6748 26.9384L32.2049 23.5812C32.613 23.1924 32.6232 22.5563 32.2355 22.1525C31.8478 21.7486 31.1999 21.7385 30.7918 22.1222L27.2617 25.4794C26.8536 25.8681 26.8434 26.5042 27.2311 26.9081C27.6188 27.312 28.2717 27.3221 28.6748 26.9384Z" fill="#D9D9D9"/>
<path d="M10.1721 16.4932L2.53536 8.52172C2.20378 8.17338 2.04053 7.73922 2.04053 7.2899C2.04053 6.8204 2.21908 6.36099 2.58638 6.0076L6.70316 2.01934C7.05515 1.68109 7.50407 1.51449 7.96319 1.51449C8.44781 1.51449 8.91714 1.70128 9.27933 2.07487L16.6814 9.80403C17.0691 10.2079 17.7169 10.2281 18.1251 9.84441C18.5332 9.46073 18.5536 8.81958 18.1659 8.41571L10.7587 0.686548C10.0037 -0.106056 8.98345 -0.504883 7.96319 -0.504883C6.99393 -0.504883 6.01958 -0.141395 5.26968 0.580531L1.1529 4.5688C0.387702 5.31092 0 6.30546 0 7.2899C0 8.22891 0.351992 9.17802 1.05598 9.91004L8.69268 17.8765C9.08038 18.2804 9.72825 18.3005 10.1364 17.9169C10.5445 17.5332 10.5598 16.8971 10.1721 16.4932Z" fill="#D9D9D9"/>
<path d="M10.5955 8.95611L14.0134 5.49288C14.4062 5.09406 14.4011 4.45291 13.9981 4.06418C13.5951 3.67545 12.9472 3.6805 12.5544 4.07932L9.13653 7.54255C8.74373 7.94138 8.74883 8.58253 9.15183 8.97126C9.55484 9.35999 10.2027 9.35494 10.5955 8.95611Z" fill="#D9D9D9"/>
</g>
<defs>
<clipPath id="clip0_1028_2826">
<rect width="37" height="37" fill="white"/>
</clipPath>
</defs>
</svg>
