<svg width="138" height="136" viewBox="0 0 138 136" fill="none" xmlns="http://www.w3.org/2000/svg">
<g filter="url(#filter0_b_1040_2603)">
<path d="M135.5 96.8471V38.8286C135.5 28.4303 128.666 19.2682 118.7 16.3038L75.6996 3.5143C71.3278 2.21402 66.6722 2.21402 62.3004 3.5143L19.3004 16.3038C9.33366 19.2682 2.5 28.4303 2.5 38.8286V96.8471C2.5 107.355 9.4752 116.585 19.5834 119.454L62.5834 131.659C66.7783 132.85 71.2217 132.85 75.4166 131.659L118.417 119.454C128.525 116.585 135.5 107.355 135.5 96.8471Z" stroke="url(#paint0_linear_1040_2603)"/>
</g>
<g filter="url(#filter1_f_1040_2603)">
<path d="M132.5 94.7033V40.9314C132.5 30.5322 125.665 21.3697 115.697 18.406L75.6974 6.51293C71.327 5.21351 66.673 5.21351 62.3026 6.51293L22.3026 18.406C12.3347 21.3697 5.5 30.5322 5.5 40.9314V94.7033C5.5 105.212 12.4763 114.443 22.5855 117.311L62.5855 128.66C66.7791 129.85 71.2209 129.85 75.4145 128.66L115.415 117.311C125.524 114.443 132.5 105.212 132.5 94.7033Z" stroke="url(#paint1_linear_1040_2603)"/>
</g>
<path opacity="0.5" d="M80.0767 80.6872H58.3427C55.475 80.6872 53.1475 78.3585 53.1475 75.4893V38.1979C53.1475 35.3287 55.475 33 58.3427 33H80.0767C82.9444 33 85.2719 35.3287 85.2719 38.1979V75.4893C85.2719 78.3585 82.9444 80.6872 80.0767 80.6872Z" fill="url(#paint2_linear_1040_2603)"/>
<path d="M89.2107 47.4971H68.6205C67.7229 47.4971 67 46.7739 67 45.8758C67 44.9777 67.7229 44.2544 68.6205 44.2544H89.2107C90.1083 44.2544 90.8312 44.9777 90.8312 45.8758C90.8312 46.7739 90.1083 47.4971 89.2107 47.4971Z" fill="url(#paint3_linear_1040_2603)"/>
<path d="M80.9829 58.9416H65.159C64.317 58.9416 63.6338 58.2581 63.6338 57.4156C63.6338 56.5732 64.317 55.8896 65.159 55.8896H80.9829C81.8249 55.8896 82.5081 56.5732 82.5081 57.4156C82.5081 58.2581 81.8249 58.9416 80.9829 58.9416Z" fill="url(#paint4_linear_1040_2603)"/>
<path d="M87.3491 69.052H71.5252C70.6832 69.052 70 68.3685 70 67.526C70 66.6835 70.6832 66 71.5252 66H87.3491C88.1911 66 88.8743 66.6835 88.8743 67.526C88.8743 68.3685 88.1911 69.052 87.3491 69.052Z" fill="url(#paint5_linear_1040_2603)"/>
<path d="M99.475 48.052H94.7088C93.8668 48.052 93.1836 47.3685 93.1836 46.526C93.1836 45.6835 93.8668 45 94.7088 45H99.475C100.317 45 101 45.6835 101 46.526C101 47.3685 100.317 48.052 99.475 48.052Z" fill="url(#paint6_linear_1040_2603)"/>
<path d="M88.9899 60.4676C90.2535 60.4676 91.2777 59.4428 91.2777 58.1786C91.2777 56.9145 90.2535 55.8896 88.9899 55.8896C87.7264 55.8896 86.7021 56.9145 86.7021 58.1786C86.7021 59.4428 87.7264 60.4676 88.9899 60.4676Z" fill="url(#paint7_linear_1040_2603)"/>
<path d="M92.0407 71.9129C93.3042 71.9129 94.3285 70.8881 94.3285 69.6239C94.3285 68.3598 93.3042 67.335 92.0407 67.335C90.7772 67.335 89.7529 68.3598 89.7529 69.6239C89.7529 70.8881 90.7772 71.9129 92.0407 71.9129Z" fill="url(#paint8_linear_1040_2603)"/>
<path d="M54.5774 51.8841C58.21 51.8841 61.1548 48.8096 61.1548 45.0171C61.1548 41.2246 58.21 38.1501 54.5774 38.1501C50.9448 38.1501 48 41.2246 48 45.0171C48 48.8096 50.9448 51.8841 54.5774 51.8841Z" fill="url(#paint9_linear_1040_2603)"/>
<path d="M23.324 95.242V101.416C23.324 102.284 23.534 102.928 23.954 103.348C24.3833 103.768 24.976 103.978 25.732 103.978C26.4787 103.978 27.062 103.768 27.482 103.348C27.9113 102.928 28.126 102.284 28.126 101.416V95.242H29.4V101.402C29.4 102.214 29.2367 102.9 28.91 103.46C28.5833 104.011 28.14 104.421 27.58 104.692C27.0293 104.963 26.4087 105.098 25.718 105.098C25.0273 105.098 24.402 104.963 23.842 104.692C23.2913 104.421 22.8527 104.011 22.526 103.46C22.2087 102.9 22.05 102.214 22.05 101.402V95.242H23.324ZM32.7993 95.242V105H31.5253V95.242H32.7993ZM39.7306 91.812L35.8946 107.38H34.6346L38.4566 91.812H39.7306ZM42.8748 95.242V101.416C42.8748 102.284 43.0848 102.928 43.5048 103.348C43.9341 103.768 44.5268 103.978 45.2828 103.978C46.0294 103.978 46.6128 103.768 47.0328 103.348C47.4621 102.928 47.6768 102.284 47.6768 101.416V95.242H48.9508V101.402C48.9508 102.214 48.7874 102.9 48.4608 103.46C48.1341 104.011 47.6908 104.421 47.1308 104.692C46.5801 104.963 45.9594 105.098 45.2688 105.098C44.5781 105.098 43.9528 104.963 43.3928 104.692C42.8421 104.421 42.4034 104.011 42.0768 103.46C41.7594 102.9 41.6008 102.214 41.6008 101.402V95.242H42.8748ZM55.066 100.128L58.062 105H56.62L54.282 101.192L52.056 105H50.642L53.624 100.128L50.628 95.242H52.056L54.408 99.064L56.648 95.242H58.076L55.066 100.128ZM66.5418 95.242C67.6058 95.242 68.5251 95.4427 69.2998 95.844C70.0838 96.236 70.6811 96.8007 71.0918 97.538C71.5118 98.2753 71.7218 99.1433 71.7218 100.142C71.7218 101.141 71.5118 102.009 71.0918 102.746C70.6811 103.474 70.0838 104.034 69.2998 104.426C68.5251 104.809 67.6058 105 66.5418 105H63.5038V95.242H66.5418ZM66.5418 103.95C67.8018 103.95 68.7631 103.619 69.4258 102.956C70.0884 102.284 70.4198 101.346 70.4198 100.142C70.4198 98.9287 70.0838 97.9813 69.4118 97.3C68.7491 96.6187 67.7924 96.278 66.5418 96.278H64.7778V103.95H66.5418ZM80.4022 100.87C80.4022 101.113 80.3882 101.369 80.3602 101.64H74.2282C74.2749 102.396 74.5316 102.989 74.9982 103.418C75.4742 103.838 76.0482 104.048 76.7202 104.048C77.2709 104.048 77.7282 103.922 78.0922 103.67C78.4656 103.409 78.7269 103.063 78.8762 102.634H80.2482C80.0429 103.371 79.6322 103.973 79.0162 104.44C78.4002 104.897 77.6349 105.126 76.7202 105.126C75.9922 105.126 75.3389 104.963 74.7602 104.636C74.1909 104.309 73.7429 103.847 73.4162 103.25C73.0896 102.643 72.9262 101.943 72.9262 101.15C72.9262 100.357 73.0849 99.6613 73.4022 99.064C73.7196 98.4667 74.1629 98.0093 74.7322 97.692C75.3109 97.3653 75.9736 97.202 76.7202 97.202C77.4482 97.202 78.0922 97.3607 78.6522 97.678C79.2122 97.9953 79.6416 98.434 79.9402 98.994C80.2482 99.5447 80.4022 100.17 80.4022 100.87ZM79.0862 100.604C79.0862 100.119 78.9789 99.7033 78.7642 99.358C78.5496 99.0033 78.2556 98.7373 77.8822 98.56C77.5182 98.3733 77.1122 98.28 76.6642 98.28C76.0202 98.28 75.4696 98.4853 75.0122 98.896C74.5642 99.3067 74.3076 99.876 74.2422 100.604H79.0862ZM84.7999 105.126C84.2119 105.126 83.6845 105.028 83.2179 104.832C82.7512 104.627 82.3825 104.347 82.1119 103.992C81.8412 103.628 81.6919 103.213 81.6639 102.746H82.9799C83.0172 103.129 83.1945 103.441 83.5119 103.684C83.8385 103.927 84.2632 104.048 84.7859 104.048C85.2712 104.048 85.6539 103.941 85.9339 103.726C86.2139 103.511 86.3539 103.241 86.3539 102.914C86.3539 102.578 86.2045 102.331 85.9059 102.172C85.6072 102.004 85.1452 101.841 84.5199 101.682C83.9505 101.533 83.4839 101.383 83.1199 101.234C82.7652 101.075 82.4572 100.847 82.1959 100.548C81.9439 100.24 81.8179 99.8387 81.8179 99.344C81.8179 98.952 81.9345 98.5927 82.1679 98.266C82.4012 97.9393 82.7325 97.6827 83.1619 97.496C83.5912 97.3 84.0812 97.202 84.6319 97.202C85.4812 97.202 86.1672 97.4167 86.6899 97.846C87.2125 98.2753 87.4925 98.8633 87.5299 99.61H86.2559C86.2279 99.2087 86.0645 98.8867 85.7659 98.644C85.4765 98.4013 85.0845 98.28 84.5899 98.28C84.1325 98.28 83.7685 98.378 83.4979 98.574C83.2272 98.77 83.0919 99.0267 83.0919 99.344C83.0919 99.596 83.1712 99.806 83.3299 99.974C83.4979 100.133 83.7032 100.263 83.9459 100.366C84.1979 100.459 84.5432 100.567 84.9819 100.688C85.5325 100.837 85.9805 100.987 86.3259 101.136C86.6712 101.276 86.9652 101.491 87.2079 101.78C87.4599 102.069 87.5905 102.447 87.5999 102.914C87.5999 103.334 87.4832 103.712 87.2499 104.048C87.0165 104.384 86.6852 104.65 86.2559 104.846C85.8359 105.033 85.3505 105.126 84.7999 105.126ZM90.0563 96.082C89.8136 96.082 89.6083 95.998 89.4403 95.83C89.2723 95.662 89.1883 95.4567 89.1883 95.214C89.1883 94.9713 89.2723 94.766 89.4403 94.598C89.6083 94.43 89.8136 94.346 90.0563 94.346C90.2896 94.346 90.4856 94.43 90.6443 94.598C90.8123 94.766 90.8963 94.9713 90.8963 95.214C90.8963 95.4567 90.8123 95.662 90.6443 95.83C90.4856 95.998 90.2896 96.082 90.0563 96.082ZM90.6723 97.328V105H89.3983V97.328H90.6723ZM96.0076 97.202C96.6703 97.202 97.249 97.3467 97.7436 97.636C98.2476 97.9253 98.621 98.2893 98.8636 98.728V97.328H100.152V105.168C100.152 105.868 100.002 106.489 99.7036 107.03C99.405 107.581 98.9756 108.01 98.4156 108.318C97.865 108.626 97.221 108.78 96.4836 108.78C95.4756 108.78 94.6356 108.542 93.9636 108.066C93.2916 107.59 92.895 106.941 92.7736 106.12H94.0336C94.1736 106.587 94.463 106.96 94.9016 107.24C95.3403 107.529 95.8676 107.674 96.4836 107.674C97.1836 107.674 97.753 107.455 98.1916 107.016C98.6396 106.577 98.8636 105.961 98.8636 105.168V103.558C98.6116 104.006 98.2383 104.379 97.7436 104.678C97.249 104.977 96.6703 105.126 96.0076 105.126C95.3263 105.126 94.7056 104.958 94.1456 104.622C93.595 104.286 93.161 103.815 92.8436 103.208C92.5263 102.601 92.3676 101.911 92.3676 101.136C92.3676 100.352 92.5263 99.666 92.8436 99.078C93.161 98.4807 93.595 98.0187 94.1456 97.692C94.7056 97.3653 95.3263 97.202 96.0076 97.202ZM98.8636 101.15C98.8636 100.571 98.747 100.067 98.5136 99.638C98.2803 99.2087 97.963 98.882 97.5616 98.658C97.1696 98.4247 96.7356 98.308 96.2596 98.308C95.7836 98.308 95.3496 98.42 94.9576 98.644C94.5656 98.868 94.253 99.1947 94.0196 99.624C93.7863 100.053 93.6696 100.557 93.6696 101.136C93.6696 101.724 93.7863 102.237 94.0196 102.676C94.253 103.105 94.5656 103.437 94.9576 103.67C95.3496 103.894 95.7836 104.006 96.2596 104.006C96.7356 104.006 97.1696 103.894 97.5616 103.67C97.963 103.437 98.2803 103.105 98.5136 102.676C98.747 102.237 98.8636 101.729 98.8636 101.15ZM106.043 97.188C106.976 97.188 107.732 97.4727 108.311 98.042C108.889 98.602 109.179 99.414 109.179 100.478V105H107.919V100.66C107.919 99.8947 107.727 99.3113 107.345 98.91C106.962 98.4993 106.439 98.294 105.777 98.294C105.105 98.294 104.568 98.504 104.167 98.924C103.775 99.344 103.579 99.9553 103.579 100.758V105H102.305V97.328H103.579V98.42C103.831 98.028 104.171 97.7247 104.601 97.51C105.039 97.2953 105.52 97.188 106.043 97.188ZM113.976 105.126C113.388 105.126 112.86 105.028 112.394 104.832C111.927 104.627 111.558 104.347 111.288 103.992C111.017 103.628 110.868 103.213 110.84 102.746H112.156C112.193 103.129 112.37 103.441 112.688 103.684C113.014 103.927 113.439 104.048 113.962 104.048C114.447 104.048 114.83 103.941 115.11 103.726C115.39 103.511 115.53 103.241 115.53 102.914C115.53 102.578 115.38 102.331 115.082 102.172C114.783 102.004 114.321 101.841 113.696 101.682C113.126 101.533 112.66 101.383 112.296 101.234C111.941 101.075 111.633 100.847 111.372 100.548C111.12 100.24 110.994 99.8387 110.994 99.344C110.994 98.952 111.11 98.5927 111.344 98.266C111.577 97.9393 111.908 97.6827 112.338 97.496C112.767 97.3 113.257 97.202 113.808 97.202C114.657 97.202 115.343 97.4167 115.866 97.846C116.388 98.2753 116.668 98.8633 116.706 99.61H115.432C115.404 99.2087 115.24 98.8867 114.942 98.644C114.652 98.4013 114.26 98.28 113.766 98.28C113.308 98.28 112.944 98.378 112.674 98.574C112.403 98.77 112.268 99.0267 112.268 99.344C112.268 99.596 112.347 99.806 112.506 99.974C112.674 100.133 112.879 100.263 113.122 100.366C113.374 100.459 113.719 100.567 114.158 100.688C114.708 100.837 115.156 100.987 115.502 101.136C115.847 101.276 116.141 101.491 116.384 101.78C116.636 102.069 116.766 102.447 116.776 102.914C116.776 103.334 116.659 103.712 116.426 104.048C116.192 104.384 115.861 104.65 115.432 104.846C115.012 105.033 114.526 105.126 113.976 105.126Z" fill="#979292"/>
<defs>
<filter id="filter0_b_1040_2603" x="-1.4268" y="-1.38773" width="140.854" height="137.867" filterUnits="userSpaceOnUse" color-interpolation-filters="sRGB">
<feFlood flood-opacity="0" result="BackgroundImageFix"/>
<feGaussianBlur in="BackgroundImageFix" stdDeviation="1.7134"/>
<feComposite in2="SourceAlpha" operator="in" result="effect1_backgroundBlur_1040_2603"/>
<feBlend mode="normal" in="SourceGraphic" in2="effect1_backgroundBlur_1040_2603" result="shape"/>
</filter>
<filter id="filter1_f_1040_2603" x="0" y="0.0383301" width="138" height="135.014" filterUnits="userSpaceOnUse" color-interpolation-filters="sRGB">
<feFlood flood-opacity="0" result="BackgroundImageFix"/>
<feBlend mode="normal" in="SourceGraphic" in2="BackgroundImageFix" result="shape"/>
<feGaussianBlur stdDeviation="2.5" result="effect1_foregroundBlur_1040_2603"/>
</filter>
<linearGradient id="paint0_linear_1040_2603" x1="133" y1="14.5" x2="69" y2="134" gradientUnits="userSpaceOnUse">
<stop stop-color="#454343"/>
<stop offset="0.404952" stop-color="#4D4C4C" stop-opacity="0.2"/>
<stop offset="1" stop-color="#3C3A3A" stop-opacity="0.2"/>
</linearGradient>
<linearGradient id="paint1_linear_1040_2603" x1="115.5" y1="15" x2="69" y2="131" gradientUnits="userSpaceOnUse">
<stop stop-color="#5E5C5C"/>
<stop offset="0.356744" stop-color="#908D8D" stop-opacity="0.1"/>
<stop offset="1" stop-color="#C4C0C0" stop-opacity="0.05"/>
</linearGradient>
<linearGradient id="paint2_linear_1040_2603" x1="53.147" y1="56.8452" x2="85.267" y2="56.8452" gradientUnits="userSpaceOnUse">
<stop stop-color="#ABABAB"/>
<stop offset="0.9955" stop-color="#5F5F5F"/>
</linearGradient>
<linearGradient id="paint3_linear_1040_2603" x1="67.0037" y1="45.8761" x2="90.8289" y2="45.8761" gradientUnits="userSpaceOnUse">
<stop stop-color="white"/>
<stop offset="0.9955" stop-color="#5C5C5C"/>
</linearGradient>
<linearGradient id="paint4_linear_1040_2603" x1="63.6368" y1="57.4159" x2="82.5063" y2="57.4159" gradientUnits="userSpaceOnUse">
<stop stop-color="white"/>
<stop offset="0.9955" stop-color="#5C5C5C"/>
</linearGradient>
<linearGradient id="paint5_linear_1040_2603" x1="70.003" y1="67.5263" x2="88.8725" y2="67.5263" gradientUnits="userSpaceOnUse">
<stop stop-color="white"/>
<stop offset="0.9955" stop-color="#5C5C5C"/>
</linearGradient>
<linearGradient id="paint6_linear_1040_2603" x1="93.1848" y1="46.5263" x2="100.999" y2="46.5263" gradientUnits="userSpaceOnUse">
<stop stop-color="white"/>
<stop offset="0.9955" stop-color="#5C5C5C"/>
</linearGradient>
<linearGradient id="paint7_linear_1040_2603" x1="86.7029" y1="58.1791" x2="91.2773" y2="58.1791" gradientUnits="userSpaceOnUse">
<stop stop-color="white"/>
<stop offset="0.9955" stop-color="#5C5C5C"/>
</linearGradient>
<linearGradient id="paint8_linear_1040_2603" x1="92.0407" y1="67.335" x2="92.0407" y2="71.9129" gradientUnits="userSpaceOnUse">
<stop stop-color="#424244"/>
<stop offset="0.288" stop-color="#616163"/>
<stop offset="1" stop-color="#313647"/>
</linearGradient>
<linearGradient id="paint9_linear_1040_2603" x1="48.0021" y1="45.0184" x2="61.1535" y2="45.0184" gradientUnits="userSpaceOnUse">
<stop stop-color="white"/>
<stop offset="0.9955" stop-color="#5C5C5C"/>
</linearGradient>
</defs>
</svg>
