<svg width="18" height="18" viewBox="0 0 18 18" fill="none" xmlns="http://www.w3.org/2000/svg">
<path d="M9.16426 17.3285C4.65526 17.3285 1 13.6732 1 9.16426C1 4.65526 4.65526 1 9.16426 1" stroke="#555555" stroke-width="0.73181"/>
<path d="M9.16424 17.3286C13.6732 17.3286 17.3285 13.6734 17.3285 9.16438C17.3285 4.65538 13.6732 1.00012 9.16424 1.00012" stroke="#555555" stroke-width="0.73181" stroke-dasharray="1.46 1.46"/>
<path d="M8.14368 7.12329V11.2054" stroke="#6971FF" stroke-width="0.73181" stroke-linecap="round"/>
<path d="M8.14368 9.16418H6.10261" stroke="#6971FF" stroke-width="0.73181" stroke-linecap="round"/>
<path d="M10.1848 9.16418L8.14375 9.16418" stroke="#6971FF" stroke-width="0.73181" stroke-linecap="round"/>
<path d="M13.5051 8.90533C13.648 9.04822 13.648 9.2799 13.5051 9.4228L11.1765 11.7514C11.0336 11.8943 10.8019 11.8943 10.659 11.7514C10.5161 11.6085 10.5161 11.3768 10.659 11.2339L12.7289 9.16406L10.659 7.09419C10.5161 6.9513 10.5161 6.71962 10.659 6.57672C10.8019 6.43383 11.0336 6.43383 11.1765 6.57672L13.5051 8.90533ZM11.2053 9.52997C11.0032 9.52997 10.8394 9.36615 10.8394 9.16406C10.8394 8.96198 11.0032 8.79816 11.2053 8.79816V9.52997ZM13.2463 9.52997H11.2053V8.79816H13.2463V9.52997Z" fill="#6971FF"/>
</svg>
