<svg width="33" height="31" viewBox="0 0 33 31" fill="none" xmlns="http://www.w3.org/2000/svg">
<path d="M0.455566 30.3529C1.48011 29.2449 2.40422 28.2434 3.33155 27.245C6.48636 23.8452 9.63904 20.4433 12.8067 17.0562C13.0823 16.7611 12.9723 16.5992 12.7842 16.3499C8.8239 11.0834 4.86889 5.81159 0.913886 0.540855C0.809188 0.401282 0.714105 0.255317 0.609408 0.10509C0.797436 -0.064315 1.00256 0.00920002 1.18204 0.00813458C4.04734 0.00280738 6.9137 0.0113317 9.77899 0.000677349C10.0995 -0.000388091 10.2939 0.106155 10.483 0.35973C13.031 3.7766 15.5972 7.18174 18.1377 10.605C18.4219 10.9875 18.5458 10.8714 18.7926 10.6039C21.9528 7.18601 25.1257 3.77766 28.2838 0.357599C28.5241 0.0976314 28.7624 -0.00997705 29.1139 0.000677349C29.8521 0.0251825 30.5925 0.00813458 31.4557 0.00813458C30.913 0.604781 30.4578 1.11406 29.9931 1.61482C26.6802 5.18298 23.3694 8.75327 20.0436 12.3097C19.7637 12.6091 19.784 12.787 20.0148 13.0949C24.2326 18.7013 28.4397 24.3161 32.6469 29.93C32.7291 30.0397 32.8531 30.1271 32.8531 30.2986C32.6982 30.4137 32.5165 30.354 32.3509 30.3551C29.4856 30.3593 26.6193 30.3508 23.754 30.3636C23.4164 30.3647 23.207 30.2709 23.0008 29.9949C20.2306 26.2787 17.4412 22.5742 14.672 18.8568C14.4113 18.5063 14.2885 18.5063 13.9915 18.8291C10.5354 22.5795 7.05899 26.3117 3.59436 30.0546C3.39671 30.2677 3.19693 30.3668 2.90314 30.3593C2.14034 30.3412 1.37755 30.3529 0.455566 30.3529ZM28.7474 28.2593C28.5936 28.0431 28.5145 27.928 28.4312 27.8161C25.2774 23.6098 22.1248 19.4023 18.9699 15.197C15.7948 10.9619 12.6187 6.72786 9.43819 2.497C9.32815 2.34997 9.26192 2.1241 9.02154 2.12303C7.62628 2.11984 6.23103 2.1209 4.82616 2.1209C4.83898 2.3553 4.98534 2.44906 5.07615 2.57158C8.67433 7.37672 12.2746 12.1808 15.876 16.9849C18.6035 20.6233 21.3321 24.2607 24.0606 27.8971C24.1963 28.0772 24.302 28.2689 24.5948 28.2657C25.9452 28.2508 27.2945 28.2593 28.7474 28.2593Z" fill="#4F4F52"/>
</svg>
