<svg width="1384" height="496" viewBox="0 0 1384 496" fill="none" xmlns="http://www.w3.org/2000/svg">
<path d="M113.478 91V387.5" stroke="#555555" stroke-opacity="0.5"/>
<path d="M166.212 91V387.5" stroke="#555555" stroke-opacity="0.5"/>
<path d="M166.212 91V387.5" stroke="#555555" stroke-opacity="0.5"/>
<path d="M218.052 91V387.5" stroke="#555555" stroke-opacity="0.5"/>
<path d="M271.68 91V387.5" stroke="#555555" stroke-opacity="0.5"/>
<path d="M325.308 91V387.5" stroke="#555555" stroke-opacity="0.5"/>
<path d="M378.936 91V387.5" stroke="#555555" stroke-opacity="0.5"/>
<path d="M432.563 91V387.5" stroke="#555555" stroke-opacity="0.5"/>
<path d="M486.191 91V387.5" stroke="#555555" stroke-opacity="0.5"/>
<path d="M539.819 91V387.5" stroke="#555555" stroke-opacity="0.5"/>
<path d="M593.446 91V387.5" stroke="#555555" stroke-opacity="0.5"/>
<path d="M647.074 91V387.5" stroke="#555555" stroke-opacity="0.5"/>
<path d="M700.702 91V387.5" stroke="#555555" stroke-opacity="0.5"/>
<path d="M754.33 91V387.5" stroke="#555555" stroke-opacity="0.5"/>
<path d="M807.958 91V387.5" stroke="#555555" stroke-opacity="0.5"/>
<path d="M861.586 91V387.5" stroke="#555555" stroke-opacity="0.5"/>
<path d="M915.214 91V387.5" stroke="#555555" stroke-opacity="0.5"/>
<path d="M968.842 91V387.5" stroke="#555555" stroke-opacity="0.5"/>
<path d="M1022.47 91V387.5" stroke="#555555" stroke-opacity="0.5"/>
<path d="M1076.1 91V387.5" stroke="#555555" stroke-opacity="0.5"/>
<path d="M67 135.5H1119" stroke="#555555" stroke-opacity="0.5"/>
<path d="M67 185.5H1119" stroke="#555555" stroke-opacity="0.5"/>
<path d="M67 235.5H1119" stroke="#555555" stroke-opacity="0.5"/>
<path d="M67 285.5H1119" stroke="#555555" stroke-opacity="0.5"/>
<path d="M67 335.5H1119" stroke="#555555" stroke-opacity="0.5"/>
<path d="M420 341.596C419.98 341.564 419.959 341.531 419.937 341.495C419.762 341.22 419.515 340.838 419.224 340.412C418.645 339.565 417.885 338.531 417.177 337.823C416.469 337.115 415.435 336.355 414.588 335.776C414.162 335.485 413.78 335.238 413.505 335.063C413.49 335.054 413.476 335.045 413.462 335.037C413.467 335.035 413.471 335.033 413.476 335.031C413.753 334.902 414.137 334.717 414.565 334.488C415.415 334.033 416.459 333.394 417.177 332.677C417.891 331.962 418.655 330.795 419.233 329.825C419.523 329.336 419.771 328.891 419.945 328.568C419.964 328.533 419.983 328.499 420 328.466C420.017 328.499 420.036 328.533 420.055 328.568C420.229 328.891 420.477 329.336 420.767 329.825C421.345 330.795 422.109 331.962 422.823 332.677C423.541 333.394 424.585 334.033 425.435 334.488C425.863 334.717 426.247 334.902 426.524 335.031C426.529 335.033 426.533 335.035 426.538 335.037C426.524 335.045 426.51 335.054 426.495 335.063C426.22 335.238 425.838 335.485 425.412 335.776C424.565 336.355 423.531 337.115 422.823 337.823C422.115 338.531 421.355 339.565 420.776 340.412C420.485 340.838 420.238 341.22 420.063 341.495C420.041 341.531 420.02 341.564 420 341.596Z" fill="url(#paint0_linear_1052_2855)" stroke="url(#paint1_linear_1052_2855)" stroke-width="0.5"/>
<rect opacity="0.1" x="123.5" y="185.5" width="57" height="49" fill="url(#paint2_linear_1052_2855)" stroke="url(#paint3_linear_1052_2855)"/>
<rect opacity="0.1" x="900.5" y="185.5" width="57" height="49" fill="url(#paint4_linear_1052_2855)" stroke="url(#paint5_linear_1052_2855)"/>
<rect opacity="0.1" x="540.5" y="335.5" width="57" height="49" fill="url(#paint6_linear_1052_2855)" stroke="url(#paint7_linear_1052_2855)"/>
<rect x="717.5" y="133.5" width="5" height="4" fill="url(#paint8_linear_1052_2855)" stroke="url(#paint9_linear_1052_2855)"/>
<rect x="297.5" y="133.5" width="5" height="4" fill="url(#paint10_linear_1052_2855)" stroke="url(#paint11_linear_1052_2855)"/>
<rect x="902.5" y="333.5" width="5" height="4" fill="url(#paint12_linear_1052_2855)" stroke="url(#paint13_linear_1052_2855)"/>
<rect opacity="0.1" x="419.5" y="135.5" width="57" height="49" fill="url(#paint14_linear_1052_2855)" stroke="url(#paint15_linear_1052_2855)"/>
<rect opacity="0.1" x="1133.5" y="135.5" width="57" height="49" fill="url(#paint16_linear_1052_2855)" stroke="url(#paint17_linear_1052_2855)"/>
<circle cx="182" cy="336" r="4.5" fill="url(#paint18_linear_1052_2855)" stroke="url(#paint19_linear_1052_2855)"/>
<circle cx="780" cy="236" r="4.5" fill="url(#paint20_linear_1052_2855)" stroke="url(#paint21_linear_1052_2855)"/>
<circle cx="1147" cy="285" r="4.5" fill="url(#paint22_linear_1052_2855)" stroke="url(#paint23_linear_1052_2855)"/>
<circle cx="1231.5" cy="313.5" r="1.5" fill="#D9D9D9"/>
<circle cx="1253.5" cy="134.5" r="1.5" fill="#D9D9D9"/>
<circle cx="1010.5" cy="87.5" r="1.5" fill="#D9D9D9"/>
<circle cx="769.5" cy="207.5" r="1.5" fill="#D9D9D9"/>
<circle cx="507.5" cy="186.5" r="1.5" fill="#D9D9D9"/>
<circle cx="543.5" cy="278.5" r="1.5" fill="#D9D9D9"/>
<circle cx="245.5" cy="204.5" r="1.5" fill="#D9D9D9"/>
<circle cx="408.5" cy="358.5" r="1.5" fill="#D9D9D9"/>
<circle cx="147.5" cy="361.5" r="1.5" fill="#D9D9D9"/>
<circle cx="150.5" cy="105.5" r="1.5" fill="#D9D9D9"/>
<g filter="url(#filter0_f_1052_2855)">
<path d="M450.5 366C475.7 443.2 440 443.167 419 433.5H344.5C296.5 433.5 71.9997 366 57.4997 366C42.9997 366 54.9997 173 57.4997 153.5C59.9997 134 108 221.5 122.5 231C137 240.5 199.5 235.5 313 243C426.5 250.5 419 269.5 450.5 366Z" fill="#161616" fill-opacity="0.8"/>
<path d="M1195 366C1281.8 377.6 1348.67 175.333 1331 153.5C1324.5 139.167 1296.6 103.2 1237 73.9998C1198.5 66.4998 1128.5 59.4998 1077.5 59.4998C1026.5 59.4998 983.5 54.9998 928 59.4998C883.599 63.0998 925.5 94.9998 952 110.5C978.666 124.833 1047.9 159.3 1111.5 182.5C1191 211.5 1086.5 351.5 1195 366Z" fill="#161616" fill-opacity="0.8"/>
<path d="M419 127C382.2 105.8 371.666 82.8331 371 73.9998C387 69.1665 421.4 58.0998 431 52.4998C440.599 46.8998 463.999 54.8332 474.5 59.4998H525.5C554.5 59.4998 566.5 73.9998 605 73.9998C643.5 73.9998 641 88.4998 650.5 110.5C660 132.5 641 127 605 166C593 178.5 581 168 566.5 166C552 164 525.5 166 496.5 153.5C467.5 141 465 153.5 419 127Z" fill="#161616" fill-opacity="0.8"/>
<path d="M1237 366C1293 354.4 1286 391.833 1275.5 412C1262.67 424 1236.5 447.5 1234.5 445.5C1232.5 443.5 1174 422.333 1145 412L1029.5 433.5L761.5 412H605V366C610.666 354.667 624.4 329.1 634 317.5C646 303 663 317.5 711 317.5C759 317.5 754.5 337 783.5 346.5C812.5 356 827 366 877.5 366C928 366 1003 390 1077.5 392.5C1152 395 1167 380.5 1237 366Z" fill="#161616" fill-opacity="0.8"/>
</g>
<path d="M368 121.667C367.98 121.635 367.959 121.602 367.937 121.566C367.762 121.291 367.515 120.909 367.224 120.483C366.645 119.636 365.885 118.602 365.177 117.894C364.469 117.187 363.435 116.426 362.588 115.847C362.162 115.556 361.78 115.309 361.505 115.134C361.49 115.125 361.476 115.116 361.462 115.108C361.467 115.106 361.471 115.104 361.476 115.102C361.753 114.973 362.137 114.788 362.565 114.559C363.415 114.104 364.459 113.465 365.177 112.748C365.891 112.033 366.655 110.867 367.233 109.896C367.523 109.407 367.771 108.962 367.945 108.639C367.964 108.604 367.983 108.57 368 108.537C368.017 108.57 368.036 108.604 368.055 108.639C368.229 108.962 368.477 109.407 368.767 109.896C369.345 110.867 370.109 112.033 370.823 112.748C371.541 113.465 372.585 114.104 373.435 114.559C373.863 114.788 374.247 114.973 374.524 115.102C374.529 115.104 374.533 115.106 374.538 115.108C374.524 115.116 374.51 115.125 374.495 115.134C374.22 115.309 373.838 115.556 373.412 115.847C372.565 116.426 371.531 117.187 370.823 117.894C370.115 118.602 369.355 119.636 368.776 120.483C368.485 120.909 368.238 121.291 368.063 121.566C368.041 121.602 368.02 121.635 368 121.667Z" fill="url(#paint24_linear_1052_2855)" stroke="url(#paint25_linear_1052_2855)" stroke-width="0.5"/>
<defs>
<filter id="filter0_f_1052_2855" x="0.462891" y="0.57373" width="1383.38" height="495.046" filterUnits="userSpaceOnUse" color-interpolation-filters="sRGB">
<feFlood flood-opacity="0" result="BackgroundImageFix"/>
<feBlend mode="normal" in="SourceGraphic" in2="BackgroundImageFix" result="shape"/>
<feGaussianBlur stdDeviation="25" result="effect1_foregroundBlur_1052_2855"/>
</filter>
<linearGradient id="paint0_linear_1052_2855" x1="423.536" y1="331.464" x2="416.464" y2="338.536" gradientUnits="userSpaceOnUse">
<stop stop-color="#373434"/>
<stop offset="1" stop-color="#4E4D4D"/>
</linearGradient>
<linearGradient id="paint1_linear_1052_2855" x1="418.5" y1="340.5" x2="423" y2="330" gradientUnits="userSpaceOnUse">
<stop stop-color="#333333"/>
<stop offset="0.715" stop-color="#515151"/>
<stop offset="1" stop-color="#AAAAAA"/>
</linearGradient>
<linearGradient id="paint2_linear_1052_2855" x1="152" y1="185" x2="152" y2="235" gradientUnits="userSpaceOnUse">
<stop stop-color="#373434"/>
<stop offset="1" stop-color="#4E4D4D"/>
</linearGradient>
<linearGradient id="paint3_linear_1052_2855" x1="168.405" y1="234.749" x2="149.446" y2="179.768" gradientUnits="userSpaceOnUse">
<stop stop-color="#333333"/>
<stop offset="0.715" stop-color="#515151"/>
<stop offset="1" stop-color="#AAAAAA"/>
</linearGradient>
<linearGradient id="paint4_linear_1052_2855" x1="929" y1="185" x2="929" y2="235" gradientUnits="userSpaceOnUse">
<stop stop-color="#373434"/>
<stop offset="1" stop-color="#4E4D4D"/>
</linearGradient>
<linearGradient id="paint5_linear_1052_2855" x1="945.405" y1="234.749" x2="926.446" y2="179.768" gradientUnits="userSpaceOnUse">
<stop stop-color="#333333"/>
<stop offset="0.715" stop-color="#515151"/>
<stop offset="1" stop-color="#AAAAAA"/>
</linearGradient>
<linearGradient id="paint6_linear_1052_2855" x1="569" y1="335" x2="569" y2="385" gradientUnits="userSpaceOnUse">
<stop stop-color="#373434"/>
<stop offset="1" stop-color="#4E4D4D"/>
</linearGradient>
<linearGradient id="paint7_linear_1052_2855" x1="585.405" y1="384.749" x2="566.446" y2="329.768" gradientUnits="userSpaceOnUse">
<stop stop-color="#333333"/>
<stop offset="0.715" stop-color="#515151"/>
<stop offset="1" stop-color="#AAAAAA"/>
</linearGradient>
<linearGradient id="paint8_linear_1052_2855" x1="720" y1="133" x2="720" y2="138" gradientUnits="userSpaceOnUse">
<stop stop-color="#373434"/>
<stop offset="1" stop-color="#4E4D4D"/>
</linearGradient>
<linearGradient id="paint9_linear_1052_2855" x1="721.697" y1="137.975" x2="719.851" y2="132.438" gradientUnits="userSpaceOnUse">
<stop stop-color="#333333"/>
<stop offset="0.715" stop-color="#515151"/>
<stop offset="1" stop-color="#AAAAAA"/>
</linearGradient>
<linearGradient id="paint10_linear_1052_2855" x1="300" y1="133" x2="300" y2="138" gradientUnits="userSpaceOnUse">
<stop stop-color="#373434"/>
<stop offset="1" stop-color="#4E4D4D"/>
</linearGradient>
<linearGradient id="paint11_linear_1052_2855" x1="301.697" y1="137.975" x2="299.851" y2="132.438" gradientUnits="userSpaceOnUse">
<stop stop-color="#333333"/>
<stop offset="0.715" stop-color="#515151"/>
<stop offset="1" stop-color="#AAAAAA"/>
</linearGradient>
<linearGradient id="paint12_linear_1052_2855" x1="905" y1="333" x2="905" y2="338" gradientUnits="userSpaceOnUse">
<stop stop-color="#373434"/>
<stop offset="1" stop-color="#4E4D4D"/>
</linearGradient>
<linearGradient id="paint13_linear_1052_2855" x1="906.697" y1="337.975" x2="904.851" y2="332.438" gradientUnits="userSpaceOnUse">
<stop stop-color="#333333"/>
<stop offset="0.715" stop-color="#515151"/>
<stop offset="1" stop-color="#AAAAAA"/>
</linearGradient>
<linearGradient id="paint14_linear_1052_2855" x1="448" y1="135" x2="448" y2="185" gradientUnits="userSpaceOnUse">
<stop stop-color="#373434"/>
<stop offset="1" stop-color="#4E4D4D"/>
</linearGradient>
<linearGradient id="paint15_linear_1052_2855" x1="464.405" y1="184.749" x2="445.446" y2="129.768" gradientUnits="userSpaceOnUse">
<stop stop-color="#333333"/>
<stop offset="0.715" stop-color="#515151"/>
<stop offset="1" stop-color="#AAAAAA"/>
</linearGradient>
<linearGradient id="paint16_linear_1052_2855" x1="1162" y1="135" x2="1162" y2="185" gradientUnits="userSpaceOnUse">
<stop stop-color="#373434"/>
<stop offset="1" stop-color="#4E4D4D"/>
</linearGradient>
<linearGradient id="paint17_linear_1052_2855" x1="1178.4" y1="184.749" x2="1159.45" y2="129.768" gradientUnits="userSpaceOnUse">
<stop stop-color="#333333"/>
<stop offset="0.715" stop-color="#515151"/>
<stop offset="1" stop-color="#AAAAAA"/>
</linearGradient>
<linearGradient id="paint18_linear_1052_2855" x1="182" y1="331" x2="182" y2="341" gradientUnits="userSpaceOnUse">
<stop stop-color="#373434"/>
<stop offset="1" stop-color="#4E4D4D"/>
</linearGradient>
<linearGradient id="paint19_linear_1052_2855" x1="184.828" y1="340.95" x2="180.586" y2="330.343" gradientUnits="userSpaceOnUse">
<stop stop-color="#333333"/>
<stop offset="0.715" stop-color="#515151"/>
<stop offset="1" stop-color="#AAAAAA"/>
</linearGradient>
<linearGradient id="paint20_linear_1052_2855" x1="780" y1="231" x2="780" y2="241" gradientUnits="userSpaceOnUse">
<stop stop-color="#373434"/>
<stop offset="1" stop-color="#4E4D4D"/>
</linearGradient>
<linearGradient id="paint21_linear_1052_2855" x1="782.828" y1="240.95" x2="778.586" y2="230.343" gradientUnits="userSpaceOnUse">
<stop stop-color="#333333"/>
<stop offset="0.715" stop-color="#515151"/>
<stop offset="1" stop-color="#AAAAAA"/>
</linearGradient>
<linearGradient id="paint22_linear_1052_2855" x1="1147" y1="280" x2="1147" y2="290" gradientUnits="userSpaceOnUse">
<stop stop-color="#373434"/>
<stop offset="1" stop-color="#4E4D4D"/>
</linearGradient>
<linearGradient id="paint23_linear_1052_2855" x1="1149.83" y1="289.95" x2="1145.59" y2="279.343" gradientUnits="userSpaceOnUse">
<stop stop-color="#333333"/>
<stop offset="0.715" stop-color="#515151"/>
<stop offset="1" stop-color="#AAAAAA"/>
</linearGradient>
<linearGradient id="paint24_linear_1052_2855" x1="371.536" y1="111.536" x2="364.464" y2="118.607" gradientUnits="userSpaceOnUse">
<stop stop-color="#373434"/>
<stop offset="1" stop-color="#4E4D4D"/>
</linearGradient>
<linearGradient id="paint25_linear_1052_2855" x1="366.5" y1="120.571" x2="371" y2="110.071" gradientUnits="userSpaceOnUse">
<stop stop-color="#333333"/>
<stop offset="0.715" stop-color="#515151"/>
<stop offset="1" stop-color="#AAAAAA"/>
</linearGradient>
</defs>
</svg>
